<svg xmlns="http://www.w3.org/2000/svg" width="24" height="24" viewBox="0 0 24 24" fill="none"><path d="M19.0621 20.9693C17.1077 22.9236 12.1028 21.0873 7.88327 16.8677C3.66372 12.6482 1.82739 7.64325 3.7817 5.68893L5.06847 4.40216C5.9568 3.51383 7.42054 3.53731 8.33784 4.45461L10.3309 6.4477C11.2482 7.36499 11.2717 8.82874 10.3834 9.71706L10.107 9.99345C9.62737 10.4731 9.58045 11.2468 10.0261 11.7868C10.456 12.3078 10.9194 12.8266 11.4219 13.3291C11.9244 13.8316 12.4432 14.295 12.9641 14.7249C13.5042 15.1705 14.2779 15.1236 14.7575 14.644L15.0339 14.3676C15.9222 13.4793 17.386 13.5028 18.3033 14.4201L20.2964 16.4131C21.2137 17.3304 21.2371 18.7942 20.3488 19.6825L19.0621 20.9693Z" stroke="white" stroke-width="1.5"></path><path d="M17.6264 9.7508C17.3825 9.15561 17.0188 8.59799 16.5356 8.11472C16.0796 7.65874 15.5574 7.30927 14.9999 7.06631" stroke="white" stroke-width="1.5" stroke-linecap="round"></path><path d="M14.9999 3.6634C16.3346 4.1469 17.5868 4.92364 18.6568 5.99363C19.7536 7.09048 20.5423 8.37882 21.0229 9.75112" stroke="white" stroke-width="1.5" stroke-linecap="round"></path></svg>