<svg xmlns="http://www.w3.org/2000/svg" width="30" height="32" viewBox="0 0 30 32"><title>Calling</title><path fill="none" stroke-linejoin="miter" stroke-linecap="butt" stroke-miterlimit="4" stroke-width="2.2857" stroke="#000" d="M25.999 28.906c-2.978 2.978-10.605 0.18-17.034-6.25s-9.228-14.056-6.25-17.034l1.961-1.961c1.354-1.354 3.584-1.318 4.982 0.080l3.037 3.037c1.398 1.398 1.434 3.628 0.080 4.982l-0.421 0.421c-0.731 0.731-0.802 1.91-0.123 2.733 0.655 0.794 1.361 1.584 2.127 2.35s1.556 1.472 2.35 2.127c0.823 0.679 2.002 0.608 2.733-0.123l0.421-0.421c1.354-1.354 3.584-1.318 4.982 0.080l3.037 3.037c1.398 1.398 1.433 3.628 0.080 4.982l-1.961 1.961z"></path><path fill="none" stroke-linejoin="miter" stroke-linecap="round" stroke-miterlimit="4" stroke-width="2.2857" stroke="#000" d="M23.812 11.811c-0.372-0.907-0.926-1.757-1.662-2.493-0.695-0.695-1.491-1.227-2.34-1.598"></path><path fill="none" stroke-linejoin="miter" stroke-linecap="round" stroke-miterlimit="4" stroke-width="2.2857" stroke="#000" d="M19.809 2.535c2.034 0.737 3.942 1.92 5.572 3.551 1.671 1.671 2.873 3.635 3.605 5.726"></path></svg>