<!-- Generated by IcoMoon.io -->
<svg version="1.1" xmlns="http://www.w3.org/2000/svg" width="31" height="32" viewBox="0 0 31 32">
<title>adventure</title>
<path d="M9.46 20.209l-0.579-0.335 0.637-1.11 0.579 0.335-0.637 1.11z"></path>
<path d="M6.022 26.196l-0.579-0.335 2.827-4.921 0.579 0.335-2.827 4.921z"></path>
<path d="M27.591 21.226l1.539 3.537-0.613 0.268-1.539-3.537 0.613-0.268z"></path>
<path d="M26.583 20.581l-0.484-1.111 0.613-0.268 0.484 1.111-0.613 0.268z"></path>
<path d="M17.017 9.945h0.5v0.702h-0.725v2.412c0 0.547 0.443 0.992 0.988 0.992h1.651c0.545 0 0.988-0.445 0.988-0.992v-2.412h-0.724v-0.702h0.5l0.1-0.133c0.292-0.385 0.558-0.754 0.803-1.108h3.064v-0.671h-2.615c0.828-1.286 1.311-2.341 1.443-3.153l0.015 0.025c0.281-0.165 0.602-0.252 0.929-0.252 1.177 0 2.056 1.093 1.806 2.258l-0.118 0.551 0.539-0.159c0.528-0.156 1.131 0.138 1.319 0.729h-2.577v0.671h3.827v-0.671h-0.558c-0.164-0.869-0.928-1.442-1.72-1.442h-0.002c0.044-1.412-1.082-2.608-2.516-2.608-0.317 0-0.628 0.063-0.92 0.178-0.149-2.319-2.067-4.162-4.409-4.162-2.439 0-4.423 1.996-4.423 4.449 0 1.164 0.92 2.968 2.734 5.364l0.1 0.133zM18.272 0.758v1.019h0.668v-1.019c0.702 0.352 1.372 1.769 1.372 3.69 0 1.247-0.649 3.27-1.227 4.826h-0.145v-1.656h-0.668v1.656h-0.145c-0.578-1.556-1.227-3.579-1.227-4.826 0-1.921 0.67-3.338 1.372-3.69zM19.751 13.059c0 0.177-0.144 0.321-0.32 0.321h-1.651c-0.177 0-0.32-0.144-0.32-0.321v-1.741h2.291v1.741zM18.186 10.648v-0.702h0.841v0.702l-0.841-0zM22.361 4.449c0 0.966-0.886 2.676-2.497 4.826h-0.066c0.574-1.574 1.184-3.545 1.184-4.826 0-1.41-0.334-2.646-0.863-3.456 1.319 0.587 2.243 1.914 2.243 3.456zM17.095 0.993c-0.53 0.809-0.863 2.046-0.863 3.456 0 1.281 0.609 3.251 1.184 4.826h-0.066c-1.612-2.15-2.497-3.86-2.497-4.826-0-1.542 0.924-2.869 2.243-3.456z"></path>
<path d="M18.273 2.527h0.668v4.158h-0.668v-4.158z"></path>
<path d="M6.877 6.176l0.661 0.665 0.662-0.665 0.424 0.427 0.473-0.474-0.897-0.902-0.662 0.665-0.661-0.665-0.899 0.902 0.472 0.474 0.426-0.427z"></path>
<path d="M9.682 3.196l0.794 0.798 0.795-0.798 0.557 0.561 0.473-0.474-1.030-1.036-0.795 0.798-0.793-0.798-1.031 1.036 0.473 0.474 0.558-0.561z"></path>
<path d="M2.695 2.782l0.956 0.961 0.958-0.961 0.719 0.724 0.473-0.474-1.192-1.199-0.957 0.962-0.956-0.962-1.194 1.199 0.472 0.474 0.721-0.724z"></path>
<path d="M31.407 31.33h-0.808l-7.919-18.197-4.201 7.313-4.914-11.289-2.712 4.722c-0.159 0.025-0.318 0.062-0.474 0.119-0.407-1.358-1.649-2.305-3.1-2.305-1.631 0-2.985 1.218-3.208 2.803-1.552-0.388-3.046 0.798-3.046 2.392v0.335h6.496v-0.671l-5.796-0c0.157-0.83 0.883-1.459 1.753-1.459 0.563 0 0.859 0.24 1.23 0.39v-0.534c0-1.426 1.154-2.586 2.573-2.586 1.267 0 2.335 0.91 2.537 2.164l0.076 0.471 0.416-0.231c0.016-0.009 0.033-0.016 0.049-0.024l-9.525 16.587h-0.833v0.671h31.407l-0-0.67zM24.382 18.718l-0.572 0.575-1.595-1.601-1.592 1.601-0.451-0.454 2.425-4.221 1.784 4.1zM19.827 19.441l0.797 0.801 1.592-1.601 1.595 1.601 0.859-0.864 5.201 11.951-6.654-0-4.405-10.12 1.016-1.769zM15.669 15.666l-0.899 0.905-1.595-1.601-1.591 1.601-0.953-0.961 2.852-4.966 2.186 5.023zM10.285 16.212l1.298 1.309 1.592-1.602 1.595 1.601 1.186-1.193 6.531 15.003h-20.884l8.682-15.118z"></path>
</svg>
