<!-- Generated by IcoMoon.io -->
<svg version="1.1" xmlns="http://www.w3.org/2000/svg" width="30" height="32" viewBox="0 0 30 32">
<title>bag</title>
<path d="M27.067 29.611c1.508 0 2.728-1.231 2.728-2.751v-6.661c0-0.29-0.215-0.507-0.503-0.507h-4.092v-9.267c0.359 0 0.933 0.145 1.436 0.579 0.862 0.724 1.938 2.534 1.938 6.733 0 0.29 0.215 0.507 0.503 0.507s0.503-0.217 0.503-0.507c0-3.692-0.79-6.226-2.297-7.529-0.79-0.652-1.58-0.796-2.082-0.869v-0.796c0-0.579-0.215-1.158-0.574-1.593h0.144c1.867 0 3.446-1.52 3.446-3.475 0-1.882-1.508-3.475-3.446-3.475h-19.744c-1.867 0.072-3.446 1.593-3.446 3.547 0 1.882 1.508 3.475 3.446 3.475h0.144c-0.359 0.434-0.574 1.014-0.574 1.593v0.796c-0.503 0-1.292 0.217-2.082 0.869-1.579 1.303-2.297 3.837-2.297 7.529 0 0.29 0.215 0.507 0.503 0.507s0.503-0.217 0.503-0.507c0-4.199 1.077-5.937 1.938-6.733 0.574-0.434 1.077-0.579 1.436-0.652v9.267h-4.092c-0.287 0-0.503 0.217-0.503 0.507v6.661c0 1.52 1.22 2.751 2.728 2.751h1.867c0.072 0.507 0.215 0.941 0.574 1.376h-4.667c-0.287 0-0.503 0.217-0.503 0.507s0.215 0.507 0.503 0.507h28.862c0.287 0 0.503-0.217 0.503-0.507s-0.215-0.507-0.503-0.507h-4.667c0.287-0.362 0.503-0.869 0.574-1.376h1.795zM4.595 22.878c-0.287 0-0.503 0.072-0.79 0.072-1.795 0-2.585-0.796-2.8-1.086v-1.086h3.59v2.1zM1.005 23.167c0.646 0.434 1.508 0.796 2.872 0.796 0.215 0 0.503 0 0.79-0.072v4.706h-1.938c-0.933 0-1.723-0.796-1.723-1.738v-3.692zM9.979 5.937h-1.508v-4.851h1.508v4.851zM18.81 5.937h-7.754v-4.851h7.754v4.851zM21.323 5.937h-1.508v-4.851h1.508v4.851zM5.672 29.321v-12.525h18.595v12.525c0 0.869-0.718 1.593-1.579 1.593h-15.436c-0.862 0.072-1.58-0.652-1.58-1.593zM24.195 14.262v1.52h-18.523v-1.52h18.523zM24.195 13.176h-18.523v-4.633c0-0.869 0.718-1.593 1.58-1.593h15.292c0.862 0 1.58 0.724 1.58 1.593v4.633h0.072zM27.21 3.547c0 1.303-1.077 2.389-2.369 2.389h-2.441v-4.851h2.441c1.292 0 2.369 1.086 2.369 2.462zM5.026 1.086h2.441v4.851h-2.441c-1.292 0-2.369-1.086-2.369-2.389 0-1.376 1.005-2.462 2.369-2.462zM25.2 28.597v-4.706c0.287 0 0.503 0.072 0.79 0.072 1.292 0 2.226-0.362 2.8-0.796v3.692c0 0.941-0.79 1.738-1.723 1.738h-1.867zM28.79 21.792c-0.215 0.29-1.077 1.086-2.8 1.086-0.215 0-0.503 0-0.79-0.072v-2.172h3.59v1.158z"></path>
<path d="M9.046 24.688h0.287v2.824c0 0.29 0.215 0.507 0.503 0.507h10.195c0.287 0 0.503-0.217 0.503-0.507v-2.824h0.215c0.287 0 0.503-0.217 0.503-0.507v-4.561c0-0.29-0.215-0.507-0.503-0.507h-11.703c-0.287 0-0.503 0.217-0.503 0.507v4.561c0 0.29 0.287 0.507 0.503 0.507zM19.456 24.688v2.244h-9.118v-2.244h9.118zM20.246 20.127v3.547h-10.626v-3.547h10.626z"></path>
<path d="M13.785 22.443h2.226c0.287 0 0.503-0.217 0.503-0.507s-0.215-0.507-0.503-0.507h-2.226c-0.287 0-0.503 0.217-0.503 0.507 0 0.217 0.215 0.507 0.503 0.507z"></path>
<path d="M19.097 8.471h-8.4c-0.574 0-1.077 0.507-1.077 1.086v1.303c0 0.579 0.503 1.086 1.077 1.086h8.4c0.574 0 1.077-0.507 1.077-1.086v-1.303c0.072-0.579-0.431-1.086-1.077-1.086zM19.169 9.557v1.303c0 0 0 0.072-0.072 0.072h-8.4c0 0-0.072 0-0.072-0.072v-1.303c0 0 0-0.072 0.072-0.072l8.472 0.072z"></path>
</svg>
