<!-- Generated by IcoMoon.io -->
<svg version="1.1" xmlns="http://www.w3.org/2000/svg" width="34" height="32" viewBox="0 0 34 32">
<title>beach</title>
<path d="M32.568 25.908h-17.82l-1.605-8.54c0-0.002 0-0.004-0.002-0.007 0-0.002 0-0.004-0.002-0.007-0.015-0.087-0.024-0.171-0.027-0.256-0.018-0.796 0.543-1.514 1.352-1.667 0.436-0.082 0.876 0.011 1.243 0.26 0.365 0.251 0.611 0.627 0.694 1.063 0.047 0.218 0.247 0.356 0.467 0.32 0.218-0.040 0.36-0.249 0.32-0.467-0.031-0.167-0.036-0.331-0.018-0.494 0.080-0.705 0.609-1.305 1.341-1.443 0.436-0.082 0.876 0.011 1.243 0.26 0.365 0.249 0.611 0.627 0.694 1.063 0.040 0.218 0.249 0.36 0.467 0.32 0.191-0.036 0.327-0.204 0.327-0.394 0-0.025-0.002-0.049-0.007-0.074-0.031-0.164-0.036-0.329-0.018-0.489 0.078-0.707 0.609-1.31 1.343-1.447 0.436-0.082 0.876 0.011 1.243 0.26 0.365 0.249 0.611 0.627 0.694 1.063 0.036 0.194 0.207 0.329 0.398 0.327 0.040 0.004 0.082 0.004 0.124-0.004 0.218-0.040 0.36-0.251 0.32-0.467-0.316-1.683-0.952-3.255-1.885-4.673-0.903-1.369-2.048-2.539-3.402-3.475s-2.85-1.596-4.449-1.957c-1.654-0.376-3.346-0.416-5.029-0.12h-0.004l-0.336 0.064h-0.007c-1.663 0.34-3.215 0.992-4.611 1.936-1.35 0.914-2.499 2.065-3.417 3.422s-1.559 2.853-1.905 4.447c-0.36 1.647-0.387 3.333-0.082 5.005 0.002 0.018 0.007 0.038 0.011 0.056l0.002 0.013c0.036 0.191 0.204 0.327 0.394 0.327 0.024 0 0.049-0.002 0.076-0.007 0.218-0.040 0.36-0.251 0.32-0.467l-0.002-0.011v-0.002c-0.002-0.013-0.004-0.027-0.007-0.038-0.145-0.885 0.445-1.73 1.329-1.896 0.749-0.142 1.479 0.249 1.797 0.903 0.002 0.004 0.004 0.009 0.007 0.013 0.060 0.127 0.107 0.262 0.133 0.407 0.040 0.218 0.249 0.36 0.467 0.32 0.191-0.036 0.327-0.204 0.327-0.394 0-0.024-0.002-0.049-0.007-0.076-0.082-0.436 0.011-0.876 0.26-1.243s0.627-0.611 1.063-0.694 0.876 0.011 1.243 0.26c0.231 0.158 0.413 0.365 0.538 0.607 0.004 0.009 0.009 0.018 0.013 0.027l0.002 0.002c0.065 0.133 0.114 0.276 0.14 0.425 0.040 0.213 0.247 0.36 0.465 0.32s0.36-0.251 0.32-0.467c-0.169-0.898 0.425-1.768 1.323-1.936s1.765 0.422 1.934 1.321v0.004l1.578 8.393h-12.833c-0.22 0-0.4 0.18-0.4 0.4s0.18 0.4 0.4 0.4h31.467c0.22 0 0.4-0.18 0.4-0.4s-0.18-0.398-0.402-0.398l-0.001 0zM24.042 13.38c-0.498-0.274-1.070-0.365-1.632-0.258-0.634 0.12-1.165 0.471-1.521 0.954-0.696-2.119-1.896-4.035-3.513-5.592-1.385-1.334-3.019-2.355-4.802-3.010 5.089-0.084 9.738 3.124 11.468 7.906h0zM20.084 14.192c-0.516-0.311-1.123-0.42-1.719-0.309-0.636 0.12-1.169 0.476-1.525 0.961-1.041-3.333-2.846-6.363-5.282-8.866 3.986 1.203 7.181 4.286 8.526 8.215l-0-0.001zM3.969 17.28c-0.511-0.331-1.145-0.476-1.79-0.354-0.551 0.104-1.027 0.385-1.374 0.776-0.098-5.047 3.053-9.694 7.775-11.47-1.43 1.267-2.586 2.823-3.388 4.582-0.931 2.034-1.347 4.247-1.223 6.466v-0zM7.991 16.501c-0.527-0.333-1.15-0.451-1.765-0.336-0.6 0.113-1.11 0.438-1.465 0.881-0.164-4.122 1.67-8.12 4.913-10.688-1.385 3.202-1.961 6.666-1.683 10.142l-0 0zM10.272 15.403c-0.616 0.116-1.136 0.454-1.492 0.916-0.242-3.268 0.3-6.523 1.585-9.538l1.685 8.969c-0.509-0.327-1.138-0.467-1.778-0.347l-0 0zM12.829 15.555l-1.659-8.824c2.223 2.341 3.882 5.145 4.862 8.22-0.516-0.309-1.118-0.418-1.714-0.305-0.616 0.114-1.134 0.451-1.489 0.909l0-0.001z"></path>
<path d="M32.568 28.296h-11.212c-0.22 0-0.4 0.18-0.4 0.4s0.18 0.4 0.4 0.4h11.212c0.22 0 0.4-0.18 0.4-0.4s-0.178-0.4-0.4-0.4z"></path>
<path d="M26.079 30.686h-8.451c-0.22 0-0.4 0.18-0.4 0.4s0.18 0.4 0.4 0.4l8.451 0c0.22 0 0.4-0.18 0.4-0.4s-0.178-0.4-0.4-0.4z"></path>
<path d="M10.713 28.696c0-0.22-0.18-0.4-0.4-0.4h-9.209c-0.22 0-0.4 0.18-0.4 0.4s0.18 0.4 0.4 0.4h9.211c0.22 0 0.398-0.178 0.398-0.4h0.001z"></path>
<path d="M19.090 29.096c0.22 0 0.4-0.18 0.4-0.4s-0.18-0.4-0.4-0.4h-6.421c-0.22 0-0.4 0.18-0.4 0.4s0.18 0.4 0.4 0.4h6.421z"></path>
<path d="M15.515 30.686h-7.884c-0.22 0-0.4 0.18-0.4 0.4s0.18 0.4 0.4 0.4h7.882c0.22 0 0.4-0.18 0.4-0.4s-0.178-0.4-0.398-0.4z"></path>
<path d="M28.596 8.288c1.654 0 3.002-1.347 3.002-3.002s-1.347-3.002-3.002-3.002c-1.654 0-3.002 1.347-3.002 3.002s1.347 3.002 3.002 3.002zM28.596 3.086c1.214 0 2.201 0.987 2.201 2.201s-0.987 2.201-2.201 2.201c-1.214 0-2.201-0.987-2.201-2.201s0.987-2.201 2.201-2.201z"></path>
<path d="M28.596 1.752c0.22 0 0.4-0.18 0.4-0.4v-0.952c0-0.22-0.18-0.4-0.4-0.4s-0.4 0.18-0.4 0.4v0.952c-0 0.22 0.18 0.4 0.4 0.4z"></path>
<path d="M25.531 2.786c0.078 0.078 0.18 0.118 0.282 0.118s0.204-0.040 0.282-0.118c0.156-0.156 0.156-0.409 0-0.567l-0.672-0.672c-0.156-0.156-0.409-0.156-0.567 0-0.156 0.156-0.156 0.409 0 0.567l0.674 0.672z"></path>
<path d="M23.711 5.687h0.952c0.22 0 0.4-0.18 0.4-0.4s-0.18-0.4-0.4-0.4h-0.952c-0.22 0-0.4 0.18-0.4 0.4s0.178 0.4 0.4 0.4z"></path>
<path d="M25.531 7.786l-0.672 0.672c-0.156 0.156-0.156 0.409 0 0.567 0.078 0.078 0.18 0.118 0.282 0.118s0.204-0.040 0.282-0.118l0.672-0.672c0.156-0.156 0.156-0.409 0-0.567-0.155-0.156-0.409-0.156-0.565 0z"></path>
<path d="M28.195 9.222v0.952c0 0.22 0.18 0.4 0.4 0.4s0.4-0.18 0.4-0.4v-0.952c0-0.22-0.18-0.4-0.4-0.4s-0.4 0.178-0.4 0.4z"></path>
<path d="M31.097 7.786c-0.156 0.156-0.156 0.409 0 0.567l0.672 0.672c0.078 0.078 0.18 0.118 0.282 0.118s0.204-0.040 0.282-0.118c0.156-0.156 0.156-0.409 0-0.567l-0.672-0.671c-0.155-0.156-0.409-0.156-0.565 0z"></path>
<path d="M33.482 4.887h-0.952c-0.22 0-0.4 0.18-0.4 0.4s0.18 0.4 0.4 0.4h0.952c0.22 0 0.4-0.18 0.4-0.4s-0.18-0.4-0.4-0.4z"></path>
<path d="M31.379 2.903c0.102 0 0.204-0.040 0.282-0.118l0.672-0.672c0.156-0.156 0.156-0.409 0-0.567-0.156-0.156-0.409-0.156-0.567 0l-0.672 0.672c-0.156 0.156-0.156 0.409 0 0.567 0.080 0.080 0.182 0.118 0.285 0.118z"></path>
</svg>
