<!-- Generated by IcoMoon.io -->
<svg version="1.1" xmlns="http://www.w3.org/2000/svg" width="45" height="32" viewBox="0 0 45 32">
<title>binoculars</title>
<path d="M5.449 24.583c0.419 0 0.699-0.353 0.699-0.706 0-1.060 0.838-1.837 1.816-1.837 0.419 0 0.699-0.353 0.699-0.706s-0.349-0.706-0.699-0.706c-1.816 0-3.283 1.483-3.283 3.32 0.070 0.283 0.349 0.636 0.768 0.636z"></path>
<path d="M8.034 18.013c-3.214 0-5.798 2.614-5.798 5.863s2.585 5.863 5.798 5.863c3.214 0 5.798-2.614 5.798-5.863s-2.585-5.863-5.798-5.863zM8.034 19.426c2.375 0 4.331 1.978 4.331 4.38s-1.956 4.38-4.331 4.38c-2.375 0-4.331-1.978-4.331-4.38s1.956-4.38 4.331-4.38z"></path>
<path d="M36.676 20.556c-0.419 0-0.699 0.353-0.699 0.706s0.349 0.706 0.699 0.706c1.048 0 1.816 0.848 1.816 1.837 0 0.424 0.349 0.706 0.699 0.706 0.419 0 0.699-0.353 0.699-0.706 0.070-1.766-1.397-3.25-3.214-3.25z"></path>
<path d="M36.676 18.013c-3.214 0-5.798 2.614-5.798 5.863s2.585 5.863 5.798 5.863c3.214 0 5.798-2.614 5.798-5.863s-2.585-5.863-5.798-5.863zM36.676 28.256c-2.375 0-4.331-1.978-4.331-4.38s1.956-4.38 4.331-4.38c2.375 0 4.331 1.978 4.331 4.38s-1.956 4.38-4.331 4.38z"></path>
<path d="M43.942 20.415l-7.335-16.53c-1.118-2.402-3.493-3.885-6.078-3.885-3.772 0-6.776 3.038-6.776 6.781 0 0.283 0 0.636 0.070 0.918h-2.934c0-0.283 0.070-0.636 0.070-0.918 0-3.744-3.004-6.781-6.707-6.781-2.585 0-4.96 1.554-6.078 3.885l-7.405 16.53c0 0 0 0 0 0.071-0.489 0.989-0.768 2.119-0.768 3.391 0 4.45 3.633 8.124 8.034 8.124 3.563 0 6.637-2.402 7.615-5.651v-0.071l2.725-9.536h7.894l2.725 9.536c1.048 3.249 4.052 5.651 7.615 5.651 4.401 0 8.034-3.673 8.034-8.124 0.070-1.201-0.21-2.331-0.699-3.391zM36.676 30.517c-2.934 0-5.449-1.978-6.287-4.662v-0.071c-0.21-0.636-0.279-1.272-0.279-1.907 0-3.673 2.934-6.64 6.567-6.64s6.567 2.967 6.567 6.64-2.934 6.64-6.567 6.64zM29.062 21.263l-1.257-4.521h0.559c1.397 0 2.515-1.13 2.515-2.543v-2.331c0-0.071 0-0.141-0.070-0.212 0 0 0 0 0-0.071l-1.607-3.461c-0.14-0.283-0.349-0.424-0.629-0.424h-3.214c-0.070-0.283-0.070-0.636-0.070-0.918 0-2.967 2.375-5.369 5.309-5.369 2.026 0 3.912 1.201 4.75 3.038l5.519 12.362c-1.188-0.706-2.585-1.201-4.122-1.201-3.563 0.141-6.567 2.402-7.685 5.651zM15.649 21.263c-1.048-3.179-4.052-5.51-7.615-5.51-1.537 0-2.934 0.424-4.122 1.201l5.519-12.362c0.838-1.837 2.725-3.038 4.75-3.038 2.934 0 5.309 2.402 5.309 5.369 0 0.283 0 0.636-0.070 0.918h-3.772c-0.279 0-0.559 0.212-0.699 0.494l-1.048 3.461c0 0.071 0 0.141 0 0.212v2.119c0 1.413 1.118 2.543 2.515 2.543h0.559l-1.327 4.592zM14.321 25.854c-0.838 2.684-3.353 4.662-6.287 4.662-3.633 0-6.567-2.967-6.567-6.64s2.934-6.64 6.567-6.64c3.633 0 6.567 2.967 6.567 6.64 0 0.636-0.070 1.272-0.279 1.978zM15.579 11.161l0.629-1.978h11.876l0.908 1.978h-13.413zM15.299 14.057v-1.413h14.112v1.413c0 0.636-0.559 1.201-1.188 1.201h-11.667c-0.699 0-1.257-0.565-1.257-1.201z"></path>
<path d="M11.387 4.874c-0.070-0.071-0.21-0.071-0.279-0.071-0.279 0-0.559 0.141-0.629 0.424l-3.633 8.124c-0.14 0.353 0 0.777 0.349 0.989 0.070 0.071 0.21 0.071 0.279 0.071 0.279 0 0.559-0.141 0.629-0.424l3.633-8.124c0.21-0.353 0-0.777-0.349-0.989z"></path>
<path d="M36.607 13.987c0.14 0.283 0.349 0.424 0.629 0.424 0.070 0 0.21 0 0.279-0.071 0.349-0.141 0.489-0.565 0.349-0.989l-3.633-8.124c-0.14-0.283-0.349-0.424-0.629-0.424-0.070 0-0.21 0-0.279 0.071-0.349 0.141-0.489 0.565-0.349 0.989l3.633 8.124z"></path>
</svg>
