<!-- Generated by IcoMoon.io -->
<svg version="1.1" xmlns="http://www.w3.org/2000/svg" width="32" height="32" viewBox="0 0 32 32">
<title>boat</title>
<path d="M31.46 25.328h-1.396c-0.787-0-1.545 0.295-2.124 0.826-0.185 0.162-0.422 0.252-0.668 0.252s-0.483-0.089-0.668-0.252c-0.26-0.233-0.558-0.418-0.883-0.548l3.143-3.74c0.428-0.062 0.82-0.275 1.104-0.6s0.442-0.743 0.445-1.175c0.011-0.432-0.168-0.848-0.49-1.137-0.266-0.214-0.598-0.332-0.94-0.334-0.008-0.033 0.005-0.066-0.012-0.097v0c-0.483-0.851-0.851-1.762-1.096-2.709-0.048-0.187-0.239-0.299-0.425-0.251s-0.299 0.239-0.251 0.425c0.243 0.923 0.598 1.812 1.055 2.65-2.704 0.318-5.438-0.258-7.785-1.639-1.274-0.772-2.394-1.774-3.301-2.956-0.237-0.358-0.638-0.574-1.068-0.574s-0.831 0.215-1.068 0.574c-0.908 1.182-2.027 2.184-3.302 2.956-2.345 1.38-5.077 1.956-7.779 1.64 0.692-1.27 1.141-2.657 1.325-4.091 0.061-0.489 0.091-0.98 0.089-1.473-0.001-0.264 0.105-0.517 0.292-0.703 0.2-0.198 0.47-0.31 0.751-0.31h19.382c0.282 0 0.552 0.112 0.752 0.311 0.188 0.185 0.293 0.438 0.293 0.702-0.002 0.492 0.028 0.985 0.089 1.473 0.029 0.187 0.201 0.317 0.388 0.294s0.323-0.192 0.305-0.38c-0.058-0.46-0.086-0.922-0.084-1.385 0.002-0.45-0.177-0.881-0.496-1.198-0.247-0.232-0.557-0.386-0.891-0.445l0.063-2.73c0.009-0.846-0.323-1.66-0.92-2.26l-1.143-1.143c-0.588-0.592-1.388-0.923-2.222-0.921h-2.753c-0.075-0.39-0.283-0.743-0.589-0.997s-0.689-0.396-1.087-0.399h-2.444v-2.444c0-0.193-0.156-0.349-0.349-0.349s-0.349 0.156-0.349 0.349v2.514c-0.327 0.067-0.627 0.228-0.862 0.464s-0.397 0.536-0.464 0.863h-2.754c-0.834-0.003-1.634 0.329-2.222 0.921l-1.143 1.143c-0.27 0.27-0.489 0.587-0.645 0.936-0.038 0.084-0.041 0.18-0.008 0.267s0.099 0.157 0.183 0.194c0.176 0.079 0.382 0.001 0.461-0.175 0.121-0.271 0.292-0.518 0.502-0.728l1.143-1.143c0.457-0.46 1.080-0.718 1.728-0.716h11.649c0.649-0.002 1.271 0.256 1.728 0.716l1.143 1.143c0.464 0.465 0.721 1.096 0.716 1.753l-0.062 2.672h-18.699l-0.057-2.452c-0.004-0.19-0.159-0.341-0.349-0.341h-0.008c-0.093 0.002-0.18 0.041-0.244 0.108s-0.099 0.157-0.097 0.249l0.058 2.506c-0.334 0.058-0.644 0.213-0.891 0.445-0.319 0.317-0.498 0.748-0.497 1.198 0.002 0.463-0.026 0.925-0.084 1.384-0.181 1.429-0.64 2.809-1.353 4.061-0.018 0.031-0.005 0.064-0.012 0.097v-0c-0.342 0.002-0.674 0.12-0.94 0.334-0.321 0.289-0.5 0.705-0.49 1.137 0.003 0.432 0.161 0.849 0.445 1.175s0.676 0.539 1.104 0.6l3.143 3.741c-0.324 0.13-0.623 0.315-0.882 0.547-0.185 0.162-0.422 0.252-0.668 0.252s-0.483-0.089-0.668-0.252c-0.58-0.532-1.338-0.827-2.124-0.827h-1.397c-0.193 0-0.349 0.156-0.349 0.349v4.189c0 0.463 0.184 0.907 0.512 1.234s0.771 0.511 1.234 0.512h27.927c0.463-0 0.906-0.184 1.234-0.512s0.511-0.771 0.512-1.234v-4.189c0-0.093-0.037-0.181-0.102-0.247s-0.154-0.102-0.247-0.102h0zM14.704 3.684h2.793c0.215 0.001 0.425 0.069 0.599 0.194s0.307 0.301 0.377 0.504h-4.746c0.071-0.203 0.202-0.379 0.377-0.504s0.384-0.193 0.599-0.194zM22.353 26.154c-0.185 0.162-0.422 0.252-0.668 0.252s-0.483-0.089-0.668-0.252c-0.588-0.515-1.343-0.8-2.124-0.8s-1.537 0.284-2.125 0.8c-0.093 0.084-0.201 0.148-0.319 0.19v-9.407c0.136 0.051 0.26 0.13 0.365 0.232 2.979 2.921 6.954 4.606 11.124 4.713l-2.956 3.516c-0.946-0.156-1.911 0.122-2.629 0.757l0-0zM20.109 17.598c2.6 1.527 5.642 2.124 8.627 1.695 0.258-0.044 0.522 0.023 0.726 0.186 0.17 0.158 0.263 0.382 0.252 0.614 0.004 0.286-0.103 0.562-0.299 0.77s-0.464 0.334-0.749 0.349c-2.356 0.022-4.689-0.469-6.837-1.437-1.678-0.766-3.211-1.816-4.53-3.106-0.237-0.222-0.532-0.372-0.852-0.431v-1.931c0.061 0.050 0.116 0.105 0.166 0.165 0.96 1.25 2.145 2.311 3.494 3.127h-0zM2.485 20.092c-0.010-0.232 0.082-0.457 0.252-0.614 0.204-0.164 0.469-0.231 0.726-0.186 2.984 0.429 6.026-0.168 8.627-1.695 1.349-0.816 2.534-1.876 3.494-3.127 0.050-0.060 0.106-0.115 0.166-0.165v1.931c-0.32 0.060-0.616 0.209-0.853 0.432-1.319 1.289-2.851 2.34-4.529 3.106-2.148 0.968-4.481 1.458-6.837 1.437-0.285-0.015-0.554-0.14-0.749-0.349s-0.302-0.485-0.299-0.77h-0zM4.255 21.875c2.21-0.063 4.387-0.561 6.404-1.465 1.751-0.799 3.35-1.895 4.726-3.241 0.105-0.101 0.229-0.18 0.366-0.232v9.407c-0.118-0.042-0.226-0.106-0.319-0.19-0.588-0.515-1.343-0.8-2.125-0.8s-1.537 0.284-2.124 0.8c-0.185 0.162-0.422 0.252-0.668 0.252s-0.483-0.089-0.668-0.252c-0.718-0.634-1.683-0.912-2.629-0.756l-2.962-3.523zM31.11 29.866c-0 0.278-0.111 0.544-0.307 0.74s-0.462 0.307-0.74 0.307h-27.927c-0.278-0-0.544-0.111-0.74-0.307s-0.307-0.462-0.307-0.74v-1.047h1.047c0.612 0 1.202 0.23 1.654 0.644 0.315 0.277 0.719 0.43 1.138 0.43s0.824-0.153 1.139-0.43c0.452-0.414 1.042-0.643 1.654-0.644 0.193 0 0.349-0.156 0.349-0.349s-0.156-0.349-0.349-0.349c-0.787-0-1.545 0.295-2.124 0.826-0.185 0.162-0.422 0.252-0.668 0.252s-0.483-0.090-0.668-0.252c-0.58-0.532-1.338-0.827-2.124-0.826h-1.047v-2.095h1.047c0.612 0 1.202 0.23 1.654 0.644 0.315 0.277 0.719 0.429 1.138 0.429s0.824-0.153 1.139-0.429c0.458-0.401 1.046-0.622 1.654-0.622s1.196 0.221 1.654 0.622c0.315 0.277 0.719 0.429 1.139 0.429s0.824-0.153 1.138-0.429c0.458-0.401 1.046-0.622 1.654-0.622s1.196 0.221 1.654 0.622c0.315 0.277 0.72 0.429 1.139 0.429s0.824-0.153 1.139-0.429c0.458-0.401 1.046-0.622 1.654-0.622s1.196 0.221 1.654 0.622c0.315 0.277 0.719 0.429 1.138 0.429s0.824-0.153 1.139-0.429c0.458-0.401 1.046-0.622 1.654-0.622s1.196 0.221 1.654 0.622c0.315 0.277 0.72 0.429 1.139 0.429s0.824-0.153 1.138-0.429c0.452-0.414 1.042-0.643 1.654-0.644h1.047v2.095h-1.047c-0.787-0-1.545 0.295-2.124 0.826-0.185 0.162-0.422 0.252-0.668 0.252s-0.483-0.090-0.668-0.252c-0.588-0.516-1.343-0.8-2.124-0.8s-1.537 0.284-2.125 0.8c-0.185 0.162-0.422 0.252-0.668 0.252s-0.483-0.090-0.668-0.252c-0.588-0.516-1.343-0.8-2.124-0.8s-1.537 0.284-2.125 0.8c-0.185 0.162-0.422 0.252-0.668 0.252s-0.483-0.090-0.668-0.252c-0.588-0.516-1.343-0.8-2.125-0.8s-1.537 0.284-2.124 0.8c-0.185 0.162-0.422 0.252-0.668 0.252s-0.483-0.090-0.668-0.252c-0.17-0.155-0.356-0.291-0.555-0.407-0.167-0.096-0.381-0.038-0.477 0.129s-0.038 0.381 0.129 0.476c0.155 0.090 0.299 0.196 0.432 0.316 0.315 0.277 0.719 0.43 1.139 0.43s0.824-0.153 1.138-0.43c0.458-0.401 1.046-0.622 1.654-0.622s1.196 0.221 1.654 0.622c0.315 0.277 0.72 0.43 1.139 0.43s0.824-0.153 1.139-0.43c0.458-0.401 1.046-0.622 1.654-0.622s1.196 0.221 1.654 0.622c0.315 0.277 0.719 0.43 1.138 0.43s0.824-0.153 1.139-0.43c0.458-0.401 1.046-0.622 1.654-0.622s1.196 0.221 1.654 0.622c0.315 0.277 0.72 0.43 1.139 0.43s0.824-0.153 1.138-0.43c0.452-0.413 1.042-0.643 1.654-0.644h1.047l-0 1.047z"></path>
<path d="M12.26 7.524c0-0.463-0.184-0.907-0.511-1.234s-0.771-0.511-1.234-0.511c-0.463 0-0.907 0.184-1.234 0.511s-0.511 0.771-0.511 1.234 0.184 0.907 0.511 1.234c0.327 0.327 0.771 0.511 1.234 0.511s0.906-0.184 1.234-0.512c0.327-0.327 0.511-0.771 0.512-1.234zM9.467 7.524c0-0.278 0.11-0.544 0.307-0.741s0.463-0.307 0.741-0.307c0.278 0 0.544 0.11 0.741 0.307s0.307 0.463 0.307 0.741-0.11 0.544-0.307 0.741c-0.197 0.196-0.463 0.307-0.741 0.307s-0.544-0.111-0.74-0.307c-0.196-0.196-0.307-0.462-0.307-0.74z"></path>
<path d="M17.845 7.524c0-0.463-0.184-0.907-0.511-1.234s-0.771-0.511-1.234-0.511-0.907 0.184-1.234 0.511c-0.327 0.327-0.511 0.771-0.511 1.234s0.184 0.907 0.511 1.234c0.328 0.327 0.771 0.511 1.234 0.511s0.907-0.184 1.234-0.512c0.327-0.327 0.511-0.771 0.512-1.234zM15.053 7.524c0-0.278 0.11-0.544 0.307-0.741s0.463-0.307 0.741-0.307c0.278 0 0.544 0.11 0.741 0.307s0.307 0.463 0.307 0.741c0 0.278-0.11 0.544-0.307 0.741s-0.463 0.307-0.741 0.307c-0.278-0-0.544-0.111-0.74-0.307s-0.307-0.462-0.307-0.74z"></path>
<path d="M23.431 7.524c0-0.463-0.184-0.907-0.511-1.234s-0.771-0.511-1.234-0.511c-0.463 0-0.907 0.184-1.234 0.511s-0.511 0.771-0.511 1.234 0.184 0.907 0.511 1.234c0.327 0.327 0.771 0.511 1.234 0.511s0.907-0.184 1.234-0.512c0.327-0.327 0.511-0.771 0.512-1.234zM20.638 7.524c0-0.278 0.11-0.544 0.307-0.741s0.463-0.307 0.741-0.307c0.278 0 0.544 0.11 0.741 0.307s0.307 0.463 0.307 0.741c0 0.278-0.11 0.544-0.307 0.741s-0.463 0.307-0.741 0.307c-0.277-0-0.544-0.111-0.74-0.307s-0.307-0.462-0.307-0.74z"></path>
</svg>
