<!-- Generated by IcoMoon.io -->
<svg version="1.1" xmlns="http://www.w3.org/2000/svg" width="36" height="32" viewBox="0 0 36 32">
<title>booking</title>
<path d="M4.516 21.104c-0.174 0.068-0.328 0.125-0.482 0.183-0.357 0.135-0.608 0.068-0.801-0.26-0.791-1.35-1.591-2.701-2.344-4.070-0.762-1.408-0.241-3.057 1.196-3.887 2.459-1.427 4.919-2.845 7.378-4.263 4.813-2.778 9.635-5.565 14.448-8.343 0.685-0.395 1.398-0.559 2.18-0.386 0.81 0.174 1.437 0.617 1.861 1.321 0.781 1.331 1.553 2.662 2.315 4.003 0.222 0.395 0.145 0.608-0.299 0.926-0.656 0.482-0.907 1.273-0.637 2.016 0.27 0.733 0.974 1.206 1.746 1.128 0.232-0.019 0.463-0.106 0.685-0.193 0.415-0.174 0.675-0.116 0.887 0.26 0.772 1.321 1.543 2.643 2.286 3.974 0.772 1.399 0.328 3.038-1.032 3.877-0.27 0.164-0.386 0.328-0.367 0.646 0.029 0.405 0.010 0.82 0.010 1.225-0.010 0.395-0.212 0.598-0.598 0.637-1.032 0.096-1.717 0.791-1.717 1.736s0.685 1.63 1.726 1.736c0.386 0.039 0.588 0.241 0.588 0.637 0 1.562 0.019 3.135-0.010 4.697-0.029 1.476-1.263 2.691-2.739 2.758-0.135 0.010-0.26 0-0.395 0-8.314 0-16.637 0-24.951 0-1.958 0-3.154-1.196-3.154-3.154 0-1.398 0-2.797 0-4.196 0-0.54 0.164-0.714 0.694-0.762 1.148-0.087 1.9-1.167 1.524-2.247zM3.985 20.024c0.048 0 0.077 0 0.096 0 1.389-0.328 2.614 0.145 3.299 1.254 0.694 1.128 0.54 2.431-0.386 3.54-0.068 0.077-0.077 0.27-0.019 0.357 0.637 1.119 1.273 2.238 1.929 3.347 0.366 0.617 0.926 0.916 1.64 0.839 0.299-0.029 0.608-0.154 0.878-0.309 4.35-2.498 8.7-5.015 13.050-7.523 0.772-0.444 1.534-0.887 2.324-1.341-0.193-0.434-0.685-0.897-0.068-1.273 0.666-0.405 0.81 0.328 1.109 0.675 1.813-1.051 3.607-2.083 5.401-3.115 0.955-0.559 1.215-1.543 0.666-2.508-0.617-1.080-1.235-2.151-1.861-3.221-0.048-0.077-0.106-0.154-0.145-0.222-0.048 0-0.077 0-0.096 0.010-1.36 0.328-2.604-0.154-3.289-1.273s-0.54-2.459 0.395-3.501c0.164-0.174 0.096-0.28 0.010-0.434-0.608-1.051-1.215-2.112-1.823-3.154-0.588-1.022-1.562-1.273-2.585-0.685-1.784 1.032-3.569 2.064-5.343 3.096-0.096 0.058-0.193 0.116-0.338 0.212 0.588 0.029 0.694 0.473 0.887 0.82 0.154 0.289 0.058 0.598-0.203 0.762-0.27 0.164-0.598 0.106-0.791-0.193-0.222-0.338-0.511-0.665-0.289-1.186-2.353 1.36-4.639 2.681-6.925 4.003-2.932 1.688-5.864 3.385-8.786 5.073-1.013 0.588-1.273 1.562-0.685 2.585 0.154 0.27 0.309 0.54 0.463 0.81 0.492 0.839 0.993 1.698 1.485 2.556zM32.399 18.297c-0.154 0.087-0.26 0.145-0.367 0.203-2.44 1.408-4.88 2.816-7.33 4.215-0.27 0.154-0.434 0.309-0.424 0.656 0 0.174-0.193 0.434-0.357 0.511-0.154 0.067-0.395-0.039-0.588-0.096-0.058-0.019-0.087-0.135-0.116-0.193-3.906 2.257-7.735 4.466-11.622 6.703 3.896 0 7.716 0 11.545 0 0.039-0.463-0.135-1.090 0.55-1.109 0.772-0.029 0.569 0.666 0.627 1.128 2.189 0 4.331 0.019 6.472-0.010 0.829-0.010 1.562-0.714 1.591-1.543 0.039-1.418 0.010-2.845 0.010-4.253-1.553-0.598-2.296-1.505-2.305-2.816-0.010-0.598 0.154-1.148 0.473-1.64 0.434-0.666 1.061-1.061 1.832-1.254 0.010-0.174 0.010-0.309 0.010-0.502zM9.117 30.315c-0.849-0.444-1.244-1.235-1.678-1.996-0.53-0.936-1.071-1.852-1.611-2.787-0.473-0.82-0.473-0.82 0.231-1.447 0.077-0.068 0.154-0.154 0.222-0.241 0.637-0.81 0.395-2.064-0.463-2.479-0.26 1.948-0.646 2.479-2.344 3.135 0 1.341-0.010 2.691 0 4.041 0.010 1.032 0.752 1.765 1.794 1.775 1.013 0.010 2.025 0 3.038 0 0.27 0 0.54 0 0.81 0z"></path>
<path d="M15.27 19.146c-0.521 0.26-1.013 0.492-1.485 0.752-0.096 0.048-0.164 0.222-0.164 0.338 0 0.386 0.058 0.772 0.058 1.157 0.010 0.801-0.569 1.562-1.341 1.784-0.309 0.087-0.54-0.029-0.704-0.299-0.26-0.444-0.53-0.887-0.772-1.35-0.097-0.183-0.193-0.26-0.424-0.193-0.338 0.096-0.685 0.135-1.022 0.212-0.328 0.077-0.569-0.029-0.733-0.318-0.174-0.299-0.347-0.608-0.521-0.907-0.164-0.28-0.125-0.53 0.087-0.762 0.241-0.27 0.473-0.55 0.723-0.81 0.145-0.145 0.164-0.26 0.048-0.434-0.27-0.424-0.511-0.868-0.762-1.312-0.241-0.424-0.164-0.675 0.232-0.945 0.81-0.54 1.582-0.511 2.373 0.058 0.82 0.588 0.829 0.579 1.669 0.019 0.232-0.154 0.463-0.309 0.714-0.482-0.068-0.097-0.135-0.174-0.203-0.251-0.964-1.109-1.939-2.209-2.903-3.318-0.405-0.463-0.309-0.752 0.183-1.109 1.119-0.829 2.151-0.781 3.25 0.087 0.955 0.752 2.016 1.36 3.019 2.045 0.174 0.116 0.309 0.125 0.521 0.058 0.424-0.125 0.858-0.232 1.302-0.241 0.791-0.029 1.591 0.019 2.382 0.039 0.637 0.010 0.887 0.424 0.579 0.993-0.395 0.714-0.772 1.447-1.206 2.141-0.222 0.357-0.559 0.646-0.839 0.984-0.087 0.106-0.193 0.251-0.183 0.376 0.077 1.427 0.154 2.865 0.27 4.292 0.067 0.878-0.232 1.524-1.013 1.948-0.183 0.096-0.357 0.203-0.53 0.309-0.588 0.338-0.887 0.222-1.109-0.434-0.453-1.341-0.916-2.691-1.37-4.032-0.019-0.135-0.068-0.241-0.125-0.395zM19.977 14.073c-0.502 0-0.945 0.019-1.389 0-0.55-0.029-1.032 0.116-1.495 0.424-1.62 1.090-3.25 2.16-4.871 3.241-0.53 0.347-1.051 0.704-1.601 1.061 0.212 0.367 0.415 0.704 0.617 1.061 2.199-1.090 4.331-2.238 6.539-3.221 1.167-0.53 1.63-1.495 2.199-2.566zM18.009 17.786c-0.579 0.289-1.128 0.559-1.678 0.839 0.473 1.389 0.936 2.749 1.398 4.109 0.521-0.28 0.588-0.405 0.54-0.907-0.019-0.193-0.029-0.386-0.039-0.579-0.068-1.138-0.145-2.276-0.222-3.463zM14.238 14.998c0.53-0.347 1.032-0.685 1.562-1.042-1.206-0.81-2.363-1.582-3.53-2.344-0.309-0.203-0.559-0.145-0.868 0.164 0.945 1.061 1.881 2.132 2.836 3.221zM12.377 21.817c0.26-0.444 0.116-0.849 0.096-1.283-0.241 0.125-0.434 0.222-0.646 0.338 0.174 0.309 0.338 0.579 0.55 0.945zM10.042 17.776c0.212-0.145 0.395-0.26 0.637-0.424-0.424-0.174-0.656-0.569-1.186-0.53 0.203 0.357 0.367 0.637 0.55 0.955zM9.695 19.503c-0.116 0.289-0.193 0.492-0.27 0.685 0.203 0.029 0.415 0.048 0.617 0.077 0.010-0.039 0.019-0.077 0.029-0.116-0.106-0.174-0.203-0.347-0.376-0.646z"></path>
<path d="M22.59 7.823c-0.145-0.116-0.347-0.203-0.453-0.367-0.395-0.637-0.762-1.283-1.128-1.929-0.193-0.338-0.116-0.637 0.222-0.829 1.321-0.772 2.643-1.534 3.964-2.286 0.318-0.183 0.617-0.096 0.81 0.222 0.386 0.646 0.772 1.302 1.138 1.968 0.183 0.338 0.096 0.637-0.241 0.829-1.302 0.762-2.604 1.505-3.906 2.257-0.106 0.048-0.222 0.068-0.405 0.135zM25.87 4.678c-0.203-0.357-0.386-0.665-0.579-1.003-1.022 0.588-2.006 1.157-3.009 1.736 0.203 0.347 0.386 0.665 0.579 1.003 1.013-0.579 1.987-1.148 3.009-1.736z"></path>
<path d="M27.866 17.082c0.067-0.077 0.164-0.27 0.328-0.357 1.302-0.772 2.614-1.524 3.925-2.276 0.318-0.183 0.646-0.096 0.81 0.183s0.087 0.617-0.231 0.801c-1.321 0.772-2.633 1.534-3.964 2.286-0.434 0.241-0.907-0.058-0.868-0.637z"></path>
<path d="M27.191 15.838c-0.125-0.106-0.357-0.212-0.415-0.376-0.068-0.164 0.019-0.395 0.068-0.598 0.019-0.068 0.116-0.116 0.183-0.164 1.312-0.762 2.623-1.514 3.935-2.267 0.309-0.174 0.627-0.096 0.801 0.154 0.183 0.27 0.116 0.637-0.193 0.81-1.341 0.781-2.681 1.553-4.022 2.324-0.077 0.058-0.183 0.068-0.357 0.116z"></path>
<path d="M24.51 13.87c-0.183 0.222-0.289 0.453-0.453 0.502-0.183 0.058-0.482 0.019-0.608-0.097-0.203-0.203-0.376-0.482-0.444-0.762-0.039-0.174 0.077-0.463 0.212-0.579 0.125-0.106 0.482-0.135 0.579-0.039 0.27 0.27 0.463 0.617 0.714 0.974z"></path>
<path d="M25.937 16.812c0.077 0.039 0.241 0.087 0.328 0.203 0.164 0.203 0.309 0.434 0.405 0.675 0.116 0.289 0.019 0.559-0.27 0.704-0.27 0.135-0.53 0.087-0.704-0.154-0.145-0.203-0.28-0.424-0.376-0.656-0.154-0.376 0.145-0.781 0.617-0.772z"></path>
<path d="M20.179 6.8c0.058 0.029 0.222 0.077 0.309 0.193 0.164 0.203 0.309 0.434 0.405 0.675 0.106 0.27 0.029 0.531-0.241 0.685-0.28 0.154-0.55 0.116-0.743-0.135-0.154-0.203-0.28-0.424-0.376-0.656-0.154-0.386 0.135-0.772 0.646-0.762z"></path>
<path d="M20.526 9.376c0.183-0.212 0.299-0.463 0.473-0.511 0.193-0.058 0.482 0.010 0.637 0.145 0.193 0.164 0.309 0.424 0.405 0.666s0.048 0.511-0.193 0.627c-0.183 0.087-0.511 0.135-0.617 0.029-0.27-0.241-0.444-0.588-0.704-0.955z"></path>
<path d="M23.352 11.864c-0.183 0.212-0.299 0.453-0.473 0.511s-0.473 0.010-0.608-0.116c-0.203-0.183-0.357-0.463-0.424-0.733-0.039-0.174 0.058-0.473 0.193-0.579 0.145-0.106 0.502-0.145 0.608-0.039 0.27 0.241 0.444 0.588 0.704 0.955z"></path>
<path d="M25.667 15.876c-0.193 0.222-0.309 0.453-0.482 0.511-0.183 0.058-0.473-0.010-0.608-0.135-0.193-0.193-0.347-0.473-0.415-0.733-0.039-0.164 0.048-0.463 0.183-0.559 0.145-0.106 0.502-0.154 0.608-0.058 0.27 0.26 0.453 0.608 0.714 0.974z"></path>
<path d="M28.647 26.842c-0.637 0-1.273 0-1.919 0-0.424 0-0.685-0.231-0.685-0.579 0-0.357 0.26-0.569 0.685-0.579 1.273 0 2.556 0 3.829 0 0.424 0 0.685 0.232 0.685 0.579s-0.26 0.569-0.685 0.579c-0.627 0-1.273 0-1.91 0z"></path>
<path d="M28.686 28c0.627 0 1.254 0 1.881 0 0.424 0 0.685 0.232 0.685 0.579s-0.26 0.579-0.685 0.579c-1.273 0-2.556 0-3.829 0-0.424 0-0.685-0.232-0.685-0.579 0-0.357 0.26-0.569 0.685-0.579 0.646 0 1.302 0 1.948 0z"></path>
<path d="M24.307 25.425c0 0.096 0.010 0.193 0 0.289-0.029 0.318-0.27 0.54-0.569 0.54s-0.55-0.222-0.579-0.54c-0.019-0.203-0.019-0.415 0-0.617 0.019-0.347 0.251-0.579 0.569-0.579s0.55 0.232 0.579 0.569c0.010 0.125 0 0.232 0 0.338z"></path>
<path d="M24.307 27.73c0 0.106 0.010 0.222 0 0.328-0.048 0.309-0.241 0.492-0.559 0.511-0.299 0.019-0.55-0.212-0.588-0.521-0.019-0.193-0.010-0.386-0.010-0.579 0.010-0.376 0.232-0.617 0.559-0.627 0.338-0.010 0.579 0.241 0.588 0.637 0.019 0.087 0.010 0.174 0.010 0.251z"></path>
</svg>
