<!-- Generated by IcoMoon.io -->
<svg version="1.1" xmlns="http://www.w3.org/2000/svg" width="29" height="32" viewBox="0 0 29 32">
<path d="M7.637 0.364c0.603 0 1.091 0.488 1.091 1.091v1.091h10.909v-1.091c0-0.603 0.488-1.091 1.091-1.091s1.091 0.488 1.091 1.091v1.289c3.745 0.83 6.545 4.171 6.545 8.165v11.636c0 4.619-3.744 8.364-8.364 8.364h-11.636c-4.619 0-8.364-3.744-8.364-8.364v-11.636c0-3.995 2.801-7.335 6.545-8.165v-1.289c0-0.603 0.488-1.091 1.091-1.091zM6.546 4.999c-2.189 0.673-3.86 2.527-4.268 4.819h23.808c-0.408-2.292-2.079-4.147-4.268-4.819v0.819c0 0.603-0.488 1.091-1.091 1.091s-1.091-0.488-1.091-1.091v-1.091h-10.909v1.091c0 0.603-0.488 1.091-1.091 1.091s-1.091-0.488-1.091-1.091v-0.819zM26.182 12h-24v10.545c0 3.414 2.768 6.182 6.182 6.182h11.636c3.414 0 6.182-2.768 6.182-6.182v-10.545zM5.091 16.727c0-0.602 0.488-1.091 1.091-1.091h1.455c0.603 0 1.091 0.488 1.091 1.091s-0.488 1.091-1.091 1.091h-1.455c-0.603 0-1.091-0.488-1.091-1.091zM12.364 16.727c0-0.602 0.488-1.091 1.091-1.091h1.455c0.602 0 1.091 0.488 1.091 1.091s-0.488 1.091-1.091 1.091h-1.455c-0.603 0-1.091-0.488-1.091-1.091zM19.637 16.727c0-0.602 0.488-1.091 1.091-1.091h1.455c0.602 0 1.091 0.488 1.091 1.091s-0.488 1.091-1.091 1.091h-1.455c-0.602 0-1.091-0.488-1.091-1.091zM5.091 22.545c0-0.602 0.488-1.091 1.091-1.091h1.455c0.603 0 1.091 0.488 1.091 1.091s-0.488 1.091-1.091 1.091h-1.455c-0.603 0-1.091-0.488-1.091-1.091zM12.364 22.545c0-0.602 0.488-1.091 1.091-1.091h1.455c0.602 0 1.091 0.488 1.091 1.091s-0.488 1.091-1.091 1.091h-1.455c-0.603 0-1.091-0.488-1.091-1.091zM19.637 22.545c0-0.602 0.488-1.091 1.091-1.091h1.455c0.602 0 1.091 0.488 1.091 1.091s-0.488 1.091-1.091 1.091h-1.455c-0.602 0-1.091-0.488-1.091-1.091z"></path>
</svg>
