<!-- Generated by IcoMoon.io -->
<svg version="1.1" xmlns="http://www.w3.org/2000/svg" width="52" height="32" viewBox="0 0 52 32">
<title>camp</title>
<path d="M17.676 26.817h2.595c1.378 0 2.514-1.152 2.514-2.55v-2.057c0-0.411-0.324-0.823-0.811-0.823s-0.811 0.329-0.811 0.823v2.057c0 0.494-0.405 0.905-0.892 0.905h-2.595c-0.486 0-0.892-0.411-0.892-0.905v-2.057c0-0.411-0.324-0.823-0.811-0.823-0.405 0-0.811 0.329-0.811 0.823v2.057c0 1.398 1.135 2.55 2.514 2.55z"></path>
<path d="M51.081 30.355h-0.405v-4.524c0-0.411-0.324-0.823-0.811-0.823-0.405 0-0.811 0.329-0.811 0.823v0.165l-13.703-12.668-8.757-12.997c0 0 0 0-0.081 0-0.081-0.165-0.324-0.329-0.568-0.329s-0.486 0.165-0.649 0.329c0 0 0 0-0.081 0l-8.676 12.997-13.703 12.668v-0.165c0-0.411-0.324-0.823-0.811-0.823-0.405 0-0.811 0.329-0.811 0.823v4.524h-0.405c-0.405 0-0.811 0.329-0.811 0.823 0 0.411 0.324 0.823 0.811 0.823h50.27c0.405 0 0.811-0.329 0.811-0.823s-0.324-0.823-0.811-0.823zM39.324 19.249l9.73 8.967v2.139h-2.189l-7.541-11.105zM33.324 25.337v5.018h-6.568v-13.656c1.135 3.702 3.162 7.239 6.568 8.637zM34.378 24.021c-7.459-2.468-7.622-17.686-7.622-17.769v-2.797l18.162 26.9h-9.973v-5.512c0-0.411-0.243-0.74-0.568-0.823zM25.135 30.355h-18.162l18.162-26.9v26.9zM5.027 30.355h-2.189v-2.139l9.73-8.967-7.54 11.105z"></path>
</svg>
