<svg xmlns="http://www.w3.org/2000/svg" width="32" height="32"><path d="M6.933 3.768c-1.269.119-2.082.311-2.8.661-1.395.682-2.115 1.776-2.463 3.745-.077.435-.09 1.31-.109 7.426-.023 7.243-.011 7.757.205 8.758.241 1.119.569 1.8 1.172 2.436.864.912 2.017 1.358 3.942 1.525.888.077 8.572.072 8.805-.006.394-.132.582-.437.58-.938-.001-.423-.145-.725-.409-.86-.198-.101-.364-.106-4.497-.13-4.659-.027-5.015-.047-5.891-.333-1.137-.371-1.58-.987-1.822-2.532-.074-.474-.091-1.218-.111-4.84l-.024-4.28h24.695l.017 1.25c.016 1.164.024 1.259.127 1.396.213.286.375.364.786.383.491.022.801-.119.968-.442.107-.21.109-.282.108-3.92-.001-2.669-.02-3.871-.07-4.294-.201-1.725-.609-2.758-1.4-3.544-.858-.853-1.999-1.282-3.835-1.441-.553-.049-17.473-.067-17.974-.02m18.353 2.059c1.372.208 2.038.58 2.413 1.345.367.749.462 1.422.499 3.535l.03 1.666H3.52V11.4c.001-1.326.085-2.61.215-3.259.335-1.689 1.14-2.233 3.518-2.38.367-.022 4.447-.036 9.067-.03 7.42.009 8.466.02 8.966.096m-2.219 11.941c-.624.07-1.307.278-1.981.606a6.243 6.243 0 0 0-3.539 5.653 6.288 6.288 0 0 0 6.32 6.329c1.869 0 3.538-.759 4.769-2.169a6.329 6.329 0 0 0 1.087-6.531c-.849-2.118-2.863-3.641-5.148-3.892a5.726 5.726 0 0 0-1.508.004m2.08 2.123a4.478 4.478 0 0 1 2.642 2.31c.352.752.479 1.832.319 2.706-.235 1.286-1.228 2.529-2.473 3.093-.605.275-.953.342-1.768.343-.621.001-.819-.02-1.174-.121-1.442-.413-2.643-1.637-3.018-3.075-.141-.543-.155-1.523-.029-2.105.332-1.536 1.678-2.87 3.261-3.233.5-.115 1.763-.069 2.24.082m-17.707.547c-.373.13-.56.442-.56.936 0 .418.165.741.453.89.208.107.29.109 3.2.109s2.992-.002 3.2-.109c.323-.167.465-.477.443-.968-.021-.455-.12-.623-.47-.803l-.235-.12-2.936.005c-1.899.002-2.991.023-3.095.06m14.757 1.271c-.388.156-.757.629-.757.972 0 .314.087.46.572.955l.461.471-.488.497c-.611.624-.706.854-.525 1.278.094.22.438.564.658.658.419.179.669.073 1.304-.553l.462-.455.449.453c.529.533.801.672 1.142.58.422-.114.872-.641.872-1.021 0-.262-.129-.474-.594-.975l-.432-.466.456-.473c.654-.678.706-.992.25-1.51-.35-.398-.764-.517-1.136-.326-.094.049-.357.268-.583.489l-.413.4-.457-.439c-.582-.558-.871-.683-1.241-.535" fill-rule="evenodd"/></svg>