<!-- Generated by IcoMoon.io -->
<svg version="1.1" xmlns="http://www.w3.org/2000/svg" width="33" height="32" viewBox="0 0 33 32">
<title>city</title>
<path d="M32.208 31.2h-2.127v-2.217c1.16-0.163 2.057-1.143 2.057-2.326 0-1.298-1.076-2.353-2.398-2.353s-2.398 1.055-2.398 2.353c0 1.138 0.828 2.090 1.924 2.306l-0 2.237h-2.718l-0-18.721c0-0.221-0.182-0.4-0.408-0.4h-9.346v-11.679c0-0.221-0.182-0.4-0.408-0.4h-9.548c-0.226 0-0.408 0.179-0.408 0.4v30.8h-3.015v-2.217c1.161-0.163 2.057-1.143 2.057-2.326 0-1.298-1.076-2.353-2.398-2.353s-2.398 1.055-2.398 2.353c0 1.138 0.828 2.090 1.924 2.306v2.237h-2.192c-0.226 0-0.408 0.179-0.408 0.4s0.182 0.4 0.408 0.4h31.8c0.226 0 0.408-0.179 0.408-0.4s-0.182-0.4-0.407-0.4l-0 0zM1.491 26.657c0-0.856 0.71-1.553 1.583-1.553s1.583 0.697 1.583 1.553c0 0.856-0.71 1.553-1.583 1.553s-1.583-0.697-1.583-1.553zM15.977 31.2h-8.733v-30.4h8.733v30.4zM19.204 31.2v-4.136c0-1.105 0.893-2.004 1.993-2.004s1.993 0.899 1.993 2.004l0 4.136h-3.986zM25.732 31.2h-1.727l0-4.136c0-1.546-1.26-2.804-2.808-2.804s-2.808 1.258-2.808 2.804v4.136h-1.596v-18.32h8.939l-0 18.32zM28.157 26.657c0-0.856 0.71-1.553 1.583-1.553s1.583 0.697 1.583 1.553-0.71 1.553-1.583 1.553c-0.873 0-1.583-0.697-1.583-1.553z"></path>
<path d="M9.126 5.764c0.226 0 0.408-0.179 0.408-0.4v-2.251c0-0.221-0.182-0.4-0.408-0.4s-0.408 0.179-0.408 0.4v2.251c0 0.221 0.183 0.4 0.408 0.4z"></path>
<path d="M11.641 5.764c0.226 0 0.408-0.179 0.408-0.4v-2.251c0-0.221-0.182-0.4-0.408-0.4s-0.408 0.179-0.408 0.4v2.251c0 0.221 0.183 0.4 0.408 0.4z"></path>
<path d="M14.096 5.764c0.225 0 0.408-0.179 0.408-0.4v-2.251c0-0.221-0.182-0.4-0.408-0.4s-0.408 0.179-0.408 0.4v2.251c0 0.221 0.183 0.4 0.408 0.4z"></path>
<path d="M9.126 10.642c0.226 0 0.408-0.179 0.408-0.4v-2.251c0-0.221-0.182-0.4-0.408-0.4s-0.408 0.179-0.408 0.4v2.251c0 0.222 0.183 0.4 0.408 0.4z"></path>
<path d="M11.641 10.642c0.226 0 0.408-0.179 0.408-0.4v-2.251c0-0.221-0.182-0.4-0.408-0.4s-0.408 0.179-0.408 0.4v2.251c0 0.222 0.183 0.4 0.408 0.4z"></path>
<path d="M14.096 10.642c0.225 0 0.408-0.179 0.408-0.4v-2.251c0-0.221-0.182-0.4-0.408-0.4s-0.408 0.179-0.408 0.4v2.251c0 0.222 0.183 0.4 0.408 0.4z"></path>
<path d="M9.126 15.519c0.226 0 0.408-0.179 0.408-0.4v-2.252c0-0.221-0.182-0.4-0.408-0.4s-0.408 0.179-0.408 0.4v2.252c0 0.221 0.183 0.4 0.408 0.4z"></path>
<path d="M11.641 15.519c0.226 0 0.408-0.179 0.408-0.4v-2.252c0-0.221-0.182-0.4-0.408-0.4s-0.408 0.179-0.408 0.4v2.252c0 0.221 0.183 0.4 0.408 0.4z"></path>
<path d="M14.096 15.519c0.225 0 0.408-0.179 0.408-0.4v-2.252c0-0.221-0.182-0.4-0.408-0.4s-0.408 0.179-0.408 0.4v2.252c0 0.221 0.183 0.4 0.408 0.4z"></path>
<path d="M9.126 20.396c0.226 0 0.408-0.179 0.408-0.4v-2.252c0-0.221-0.182-0.4-0.408-0.4s-0.408 0.179-0.408 0.4v2.252c0 0.221 0.183 0.4 0.408 0.4z"></path>
<path d="M11.641 20.396c0.226 0 0.408-0.179 0.408-0.4v-2.252c0-0.221-0.182-0.4-0.408-0.4s-0.408 0.179-0.408 0.4v2.252c0 0.221 0.183 0.4 0.408 0.4z"></path>
<path d="M14.096 20.396c0.225 0 0.408-0.179 0.408-0.4v-2.252c0-0.221-0.182-0.4-0.408-0.4s-0.408 0.179-0.408 0.4v2.252c0 0.221 0.183 0.4 0.408 0.4z"></path>
<path d="M9.126 25.274c0.226 0 0.408-0.179 0.408-0.4v-2.251c0-0.221-0.182-0.4-0.408-0.4s-0.408 0.179-0.408 0.4v2.251c0 0.221 0.183 0.4 0.408 0.4z"></path>
<path d="M11.641 25.274c0.226 0 0.408-0.179 0.408-0.4v-2.251c0-0.221-0.182-0.4-0.408-0.4s-0.408 0.179-0.408 0.4v2.251c0 0.221 0.183 0.4 0.408 0.4z"></path>
<path d="M14.096 25.274c0.225 0 0.408-0.179 0.408-0.4v-2.251c0-0.221-0.182-0.4-0.408-0.4s-0.408 0.179-0.408 0.4v2.251c0 0.221 0.183 0.4 0.408 0.4z"></path>
</svg>
