<!-- Generated by IcoMoon.io -->
<svg version="1.1" xmlns="http://www.w3.org/2000/svg" width="23" height="32" viewBox="0 0 23 32">
<title>clock</title>
<path d="M14.202 9.158v-0.213c0-0.639-0.263-1.171-0.736-1.544 1.157-0.692 1.894-1.97 1.894-3.408 0-2.183-1.788-3.993-3.945-3.993s-3.945 1.81-3.945 3.993c0 1.438 0.789 2.715 1.894 3.408-0.421 0.373-0.736 0.905-0.736 1.544v0.213c-4.892 1.225-8.626 5.804-8.626 11.235 0 6.389 5.155 11.607 11.467 11.607s11.467-5.218 11.467-11.607c0-5.431-3.735-10.010-8.732-11.235zM8.521 4.047c0-1.651 1.315-2.928 2.893-2.928 1.631 0 2.893 1.331 2.893 2.928 0 0.319-0.053 0.639-0.158 0.905-0.105-1.438-1.315-2.556-2.788-2.556s-2.63 1.118-2.788 2.556c0-0.266-0.053-0.586-0.053-0.905zM11.467 3.408c0.947 0 1.736 0.799 1.736 1.757s-0.789 1.757-1.736 1.757c-0.947 0-1.736-0.799-1.736-1.757-0.053-0.958 0.736-1.757 1.736-1.757zM10.678 7.987h1.631c0.526 0 0.947 0.426 0.947 0.905-0.263-0.053-0.526-0.053-0.789-0.107-0.053 0-0.105 0-0.158 0-0.263 0-0.526-0.053-0.789-0.053s-0.526 0-0.789 0.053c-0.053 0-0.105 0-0.158 0-0.263 0-0.526 0.053-0.789 0.107-0.053-0.479 0.368-0.905 0.894-0.905zM11.467 30.988c-5.733 0-10.415-4.739-10.415-10.542 0-5.058 3.577-9.318 8.311-10.329 0.684-0.16 1.42-0.213 2.157-0.213s1.42 0.053 2.157 0.213c4.734 1.012 8.311 5.271 8.311 10.329-0.105 5.804-4.787 10.542-10.52 10.542z"></path>
<path d="M13.308 18.795c-0.053-0.053-0.053-0.107-0.105-0.16s-0.105-0.107-0.158-0.107l-4.524-1.81c-0.053 0-0.105-0.053-0.21-0.053-0.158 0-0.263 0.053-0.368 0.16-0.158 0.16-0.21 0.373-0.105 0.532l1.788 4.579c0 0.053 0.053 0.107 0.105 0.16s0.105 0.106 0.158 0.106l4.524 1.81c0.053 0 0.105 0.053 0.21 0.053 0.158 0 0.263-0.053 0.368-0.16 0.158-0.16 0.21-0.373 0.105-0.532l-1.788-4.579zM11.94 19.168l-1.683 1.704-1.052-2.769 2.735 1.065zM12.676 19.913l1.052 2.769-2.735-1.065 1.683-1.704z"></path>
<path d="M19.409 15.814c0-0.053-0.053-0.053-0.053-0.107-0.789-1.384-1.894-2.502-3.261-3.301l-0.053-0.053h-0.053c-1.315-0.799-2.893-1.225-4.524-1.225s-3.209 0.426-4.524 1.225h-0.053l-0.053 0.053c-1.368 0.799-2.472 1.917-3.261 3.301l-0.053 0.053v0.053c-0.789 1.331-1.21 2.928-1.21 4.579s0.421 3.248 1.21 4.579v0.053c0 0.053 0.053 0.053 0.053 0.053 0.789 1.331 1.894 2.503 3.261 3.301l0.053 0.053h0.053c1.315 0.745 2.893 1.225 4.524 1.225s3.209-0.426 4.524-1.225h0.053l0.053-0.053c1.315-0.799 2.472-1.917 3.261-3.301l0.053-0.053v-0.053c0.789-1.331 1.21-2.928 1.21-4.579s-0.473-3.248-1.21-4.579zM17.989 23.587c-0.105-0.053-0.158-0.053-0.263-0.053-0.158 0-0.368 0.106-0.421 0.266-0.158 0.266-0.053 0.586 0.21 0.692l0.789 0.479c-0.579 0.905-1.368 1.704-2.262 2.29l-0.473-0.799c-0.105-0.16-0.263-0.266-0.421-0.266-0.105 0-0.158 0-0.263 0.053-0.263 0.16-0.316 0.479-0.21 0.692l0.421 0.799c-0.947 0.479-1.999 0.799-3.103 0.852v-0.852c0-0.266-0.21-0.532-0.526-0.532-0.263 0-0.526 0.213-0.526 0.532v0.905c-1.105-0.053-2.157-0.373-3.103-0.852l0.421-0.799c0.158-0.266 0.053-0.586-0.21-0.692-0.105-0.053-0.158-0.053-0.263-0.053-0.158 0-0.368 0.106-0.421 0.266l-0.473 0.799c-0.894-0.586-1.683-1.384-2.262-2.29l0.789-0.479c0.263-0.16 0.316-0.479 0.21-0.692-0.105-0.16-0.263-0.266-0.421-0.266-0.105 0-0.158 0-0.263 0.053l-0.789 0.426c-0.473-0.958-0.789-2.023-0.842-3.141h0.894c0.263 0 0.526-0.213 0.526-0.532 0-0.266-0.21-0.532-0.526-0.532h-0.842c0.053-1.118 0.368-2.183 0.842-3.141l0.789 0.426c0.105 0.053 0.158 0.053 0.263 0.053 0.158 0 0.368-0.107 0.421-0.266 0.158-0.266 0.053-0.586-0.21-0.692l-0.789-0.479c0.579-0.905 1.368-1.704 2.262-2.29l0.473 0.799c0.105 0.16 0.263 0.266 0.421 0.266 0.105 0 0.158 0 0.263-0.053 0.263-0.16 0.316-0.479 0.21-0.692l-0.421-0.799c0.947-0.479 1.999-0.799 3.103-0.852v0.905c0 0.266 0.21 0.532 0.526 0.532 0.263 0 0.526-0.213 0.526-0.532v-0.905c1.105 0.053 2.157 0.373 3.103 0.852l-0.421 0.799c-0.158 0.266-0.053 0.586 0.21 0.692 0.105 0.053 0.158 0.053 0.263 0.053 0.158 0 0.368-0.107 0.421-0.266l0.473-0.799c0.894 0.586 1.683 1.384 2.262 2.29l-0.789 0.479c-0.263 0.16-0.316 0.479-0.21 0.692 0.105 0.16 0.263 0.266 0.421 0.266 0.105 0 0.158 0 0.263-0.053l0.789-0.426c0.473 0.958 0.789 2.023 0.842 3.141h-0.894c-0.263 0-0.526 0.213-0.526 0.532 0 0.266 0.21 0.532 0.526 0.532h0.894c-0.053 1.118-0.368 2.183-0.842 3.141l-0.842-0.479z"></path>
</svg>
