<svg xmlns="http://www.w3.org/2000/svg" width="39" height="32"><path d="M9.295.553C7.226.837 5.28 1.746 3.805 3.117 1.956 4.836.875 6.908.549 9.359c-.133.998-.133 12.264 0 13.262.311 2.34 1.31 4.333 3.001 5.993a9.843 9.843 0 0 0 4.593 2.592c1.255.322 1.06.317 11.422.318 10.44.001 10.134.009 11.458-.329 3.26-.832 6.002-3.394 7.089-6.625.534-1.585.562-2.018.562-8.58s-.028-6.995-.562-8.58A10.217 10.217 0 0 0 29.561.524C28.571.416 10.098.443 9.295.553M29.638 3.22a7.564 7.564 0 0 1 6.253 6.272c.124.785.126 12.279.003 12.998-.561 3.257-2.997 5.708-6.235 6.273-.476.083-1.935.097-10.119.097-10.073 0-9.925.004-10.927-.284-2.874-.823-5.008-3.276-5.398-6.205-.135-1.014-.135-11.748 0-12.762.414-3.112 2.869-5.732 5.921-6.319l.647-.127c.071-.015 4.429-.031 9.685-.035 8.306-.007 9.635.006 10.17.092M8.563 9.311c-.294.075-.748.498-.925.862-.178.364-.168.784.026 1.096.211.34 9.12 7.033 9.789 7.353.714.343 1.193.447 2.08.45.873.003 1.327-.092 2.08-.435.326-.149 1.734-1.166 4.98-3.598 2.488-1.865 4.591-3.46 4.671-3.544.237-.246.396-.66.35-.909-.093-.509-.645-1.158-1.089-1.281-.267-.073-.598-.012-.902.167-.118.07-2.204 1.618-4.635 3.441-4.169 3.127-4.445 3.322-4.855 3.433a2.17 2.17 0 0 1-1.441-.087c-.147-.065-2.261-1.613-4.699-3.441-2.438-1.827-4.514-3.363-4.614-3.413a1.14 1.14 0 0 0-.816-.094" fill-rule="evenodd"/></svg>