<!-- Generated by IcoMoon.io -->
<svg version="1.1" xmlns="http://www.w3.org/2000/svg" width="25" height="32" viewBox="0 0 25 32">
<path d="M0 3.636c0-1.807 1.465-3.273 3.273-3.273h7.273c1.685 0 3.072 1.273 3.253 2.909h7.709c2.080 0 3.282 2.36 2.058 4.043l-2.894 3.979c-0.464 0.638-0.464 1.501 0 2.139l2.894 3.979c1.224 1.682 0.022 4.043-2.058 4.043h-7.325c-1.406 0-2.545-1.14-2.545-2.545v-0.55c-0.341 0.121-0.708 0.186-1.091 0.186h-8.364v12c0 0.602-0.488 1.091-1.091 1.091s-1.091-0.488-1.091-1.091v-13.090c0-0 0 0 0 0v-13.819zM2.182 16.364h8.364c0.602 0 1.091-0.488 1.091-1.091v-11.636c0-0.603-0.488-1.091-1.091-1.091h-7.273c-0.603 0-1.091 0.488-1.091 1.091v12.727zM13.818 18.909c0 0.201 0.163 0.364 0.364 0.364h7.325c0.297 0 0.469-0.337 0.294-0.577l-2.894-3.979c-1.020-1.403-1.020-3.303 0-4.705l2.894-3.979c0.175-0.24 0.003-0.577-0.294-0.577h-7.689v13.455z"></path>
</svg>
