<!-- Generated by IcoMoon.io -->
<svg version="1.1" xmlns="http://www.w3.org/2000/svg" width="34" height="32" viewBox="0 0 34 32">
<title>food</title>
<path d="M7.418 29.278v1.381c-0.004 0.329 0.122 0.646 0.35 0.882s0.541 0.372 0.87 0.379h16.566c0.329-0.006 0.641-0.143 0.87-0.379s0.354-0.553 0.35-0.882v-1.38c2.196-1.531 3.99-3.57 5.228-5.943s1.885-5.011 1.885-7.688v-1.017c0-0.231-0.187-0.418-0.418-0.418h-32.396c-0.231 0-0.418 0.187-0.418 0.418v1.017c-0.001 2.677 0.646 5.314 1.885 7.688s3.032 4.412 5.228 5.943h0zM8.651 31.084c-0.224-0.006-0.4-0.191-0.397-0.415v-1.268h17.335v1.268c0.004 0.224-0.173 0.409-0.397 0.415h-16.541zM1.141 15.047h31.56v0.6c-0.001 0.869-0.073 1.737-0.216 2.594h-23.036c-0.231 0-0.418 0.187-0.418 0.418s0.187 0.418 0.418 0.418h22.875c-0.856 3.844-3.119 7.228-6.343 9.49h-18.121c-3.224-2.261-5.486-5.646-6.343-9.49h5.307c0.23 0 0.418-0.187 0.418-0.418s-0.187-0.418-0.418-0.418h-5.468c-0.143-0.857-0.215-1.725-0.216-2.594l-0-0.6z"></path>
<path d="M15.248 3.815c0-0.68-0.287-1.039-0.518-1.327-0.194-0.243-0.335-0.419-0.335-0.806 0-0.23-0.187-0.418-0.418-0.418s-0.418 0.187-0.418 0.418c0 0.68 0.287 1.039 0.517 1.327 0.194 0.243 0.335 0.419 0.335 0.806s-0.14 0.562-0.335 0.806c-0.231 0.289-0.517 0.647-0.517 1.327s0.287 1.038 0.518 1.327c0.194 0.243 0.335 0.419 0.335 0.806s-0.14 0.563-0.335 0.806c-0.231 0.289-0.518 0.647-0.518 1.327v-0c0 0.231 0.187 0.418 0.418 0.418s0.418-0.187 0.418-0.418c0-0.387 0.14-0.563 0.335-0.806 0.231-0.289 0.518-0.647 0.518-1.327s-0.287-1.038-0.518-1.327c-0.194-0.243-0.335-0.419-0.335-0.806s0.14-0.563 0.335-0.806c0.231-0.289 0.518-0.647 0.518-1.327z"></path>
<path d="M24.541 3.213c0-0.72-0.281-1.104-0.507-1.413-0.201-0.275-0.346-0.473-0.346-0.92v-0c0-0.231-0.187-0.418-0.418-0.418s-0.418 0.187-0.418 0.418c0 0.72 0.281 1.104 0.507 1.413 0.201 0.275 0.346 0.473 0.346 0.92s-0.145 0.646-0.346 0.92c-0.226 0.309-0.507 0.693-0.507 1.413s0.281 1.104 0.507 1.413c0.201 0.275 0.346 0.473 0.346 0.92s-0.145 0.646-0.346 0.92c-0.226 0.309-0.507 0.693-0.507 1.413v0c0 0.231 0.187 0.418 0.418 0.418s0.418-0.187 0.418-0.418c0-0.447 0.145-0.646 0.346-0.92 0.226-0.309 0.507-0.693 0.507-1.413s-0.281-1.104-0.507-1.413c-0.201-0.275-0.346-0.473-0.346-0.92s0.145-0.646 0.346-0.92c0.226-0.308 0.507-0.693 0.507-1.413z"></path>
<path d="M11.028 3.815c0-0.68-0.287-1.039-0.518-1.327-0.194-0.243-0.335-0.419-0.335-0.806 0-0.23-0.187-0.418-0.418-0.418s-0.418 0.187-0.418 0.418c0 0.68 0.287 1.039 0.518 1.327 0.194 0.243 0.335 0.419 0.335 0.806s-0.14 0.562-0.335 0.806c-0.231 0.289-0.518 0.647-0.518 1.327s0.287 1.038 0.518 1.327c0.194 0.243 0.335 0.419 0.335 0.806s-0.14 0.563-0.335 0.806c-0.231 0.289-0.518 0.647-0.518 1.327v-0c0 0.231 0.187 0.418 0.418 0.418s0.418-0.187 0.418-0.418c0-0.387 0.14-0.563 0.335-0.806 0.231-0.289 0.518-0.647 0.518-1.327s-0.287-1.038-0.518-1.327c-0.194-0.243-0.335-0.419-0.335-0.806s0.14-0.563 0.335-0.806c0.231-0.289 0.518-0.647 0.518-1.327z"></path>
<path d="M20.321 3.213c0-0.72-0.281-1.104-0.507-1.413-0.201-0.275-0.346-0.473-0.346-0.92v-0c0-0.231-0.187-0.418-0.418-0.418s-0.418 0.187-0.418 0.418c0 0.72 0.281 1.104 0.507 1.413 0.201 0.275 0.346 0.473 0.346 0.92s-0.145 0.646-0.346 0.92c-0.226 0.309-0.507 0.693-0.507 1.413s0.281 1.104 0.507 1.413c0.201 0.275 0.346 0.473 0.346 0.92s-0.145 0.646-0.346 0.92c-0.226 0.309-0.507 0.693-0.507 1.413v0c0 0.231 0.187 0.418 0.418 0.418s0.418-0.187 0.418-0.418c0-0.447 0.145-0.646 0.346-0.92 0.226-0.309 0.507-0.693 0.507-1.413s-0.281-1.104-0.507-1.413c-0.201-0.275-0.346-0.473-0.346-0.92s0.145-0.646 0.346-0.92c0.226-0.308 0.507-0.693 0.507-1.413z"></path>
<path d="M26.69 26.346c0.112 0 0.219-0.044 0.297-0.124 1.126-1.14 2.080-2.437 2.834-3.851 0.054-0.098 0.066-0.213 0.035-0.32s-0.105-0.197-0.204-0.25c-0.098-0.052-0.214-0.063-0.321-0.030s-0.196 0.108-0.247 0.207c-0.716 1.343-1.623 2.575-2.692 3.658-0.118 0.12-0.153 0.299-0.088 0.454s0.217 0.256 0.385 0.256v-0z"></path>
</svg>
