<!-- Generated by IcoMoon.io -->
<svg version="1.1" xmlns="http://www.w3.org/2000/svg" width="33" height="32" viewBox="0 0 33 32">
<title>heritage</title>
<path d="M33.044 6.458l-16.103-6.431c-0.088-0.035-0.188-0.035-0.276-0.001l-16.427 6.431c-0.144 0.056-0.239 0.195-0.239 0.349v3.26c0 0.207 0.168 0.374 0.375 0.374h2.296v2.631c0 0.207 0.168 0.375 0.375 0.375h0.674v10.67h-0.674c-0.207 0-0.375 0.168-0.375 0.374v2.631l-2.296-0c-0.207-0-0.375 0.167-0.375 0.374v4.132c0 0.207 0.168 0.374 0.375 0.374h32.529c0.207 0 0.375-0.168 0.375-0.374v-4.132c0-0.207-0.168-0.374-0.375-0.374h-2.296v-2.631c0-0.207-0.168-0.374-0.375-0.374h-0.674v-10.67h0.674c0.207 0 0.375-0.168 0.375-0.375v-2.631h2.296c0.207 0 0.375-0.168 0.375-0.374v-3.26c0-0.152-0.093-0.29-0.236-0.347h0.001zM3.422 12.696v-2.256h5.246v2.256h-5.246zM13.642 13.445h0.674v10.67h-0.674c-0.207 0-0.375 0.168-0.375 0.374v2.631h-3.848v-2.631c0-0.207-0.168-0.374-0.375-0.374h-0.674l-0-10.67h0.674c0.207 0 0.375-0.168 0.375-0.375v-2.631h3.848v2.631c0 0.207 0.169 0.375 0.376 0.375zM24.237 13.445h0.674v10.67h-0.674c-0.207 0-0.375 0.168-0.375 0.374v2.631h-3.847v-2.631c0-0.207-0.168-0.374-0.375-0.374h-0.674v-10.67h0.674c0.207 0 0.375-0.168 0.375-0.375v-2.631h3.848v2.631c-0.001 0.207 0.168 0.375 0.375 0.375zM19.264 24.863v2.256l-5.246 0v-2.256l5.246-0zM15.067 24.115v-10.67h3.148v10.67h-3.148zM19.264 12.696h-5.246v-2.256h5.246l0 2.256zM7.619 13.445v10.67h-3.147v-10.67h3.147zM3.423 24.863h5.246v2.256l-5.246 0v-2.256zM32.531 27.869v3.383h-31.779v-3.383h31.779zM29.859 24.863v2.256l-5.246 0v-2.256l5.246-0zM25.662 24.115v-10.67h3.147v10.67h-3.147zM29.859 12.696h-5.246v-2.256h5.246v2.256zM32.531 9.691h-31.779v-2.631l16.050-6.283 15.729 6.282v2.632z"></path>
</svg>
