<!-- Generated by IcoMoon.io -->
<svg version="1.1" xmlns="http://www.w3.org/2000/svg" width="32" height="32" viewBox="0 0 32 32">
<title>honeymoon</title>
<path d="M7.458 29.931c-1.121 0-2.034-0.913-2.034-2.036s0.913-2.036 2.034-2.036 2.034 0.913 2.034 2.036c0 1.123-0.912 2.036-2.034 2.036zM7.458 26.538c-0.748 0-1.356 0.609-1.356 1.357s0.608 1.357 1.356 1.357 1.356-0.609 1.356-1.357c0-0.748-0.608-1.357-1.356-1.357z"></path>
<path d="M24.543 29.931c-1.121 0-2.034-0.913-2.034-2.036s0.913-2.036 2.034-2.036 2.034 0.913 2.034 2.036c0 1.123-0.913 2.036-2.034 2.036zM24.543 26.538c-0.748 0-1.356 0.609-1.356 1.357s0.608 1.357 1.356 1.357c0.748 0 1.356-0.609 1.356-1.357s-0.608-1.357-1.356-1.357z"></path>
<path d="M23.406 18.391c-0.247 0-0.414-0.27-0.302-0.492l1.596-3.171c0.084-0.167 0.288-0.235 0.455-0.15s0.234 0.288 0.15 0.456l-1.596 3.171c-0.060 0.118-0.179 0.187-0.303 0.187z"></path>
<path d="M21.495 16.945c-0.247 0-0.414-0.27-0.302-0.492l1.115-2.215c0.084-0.167 0.288-0.235 0.455-0.15s0.234 0.288 0.15 0.456l-1.115 2.215c-0.060 0.118-0.179 0.187-0.303 0.187z"></path>
<path d="M31.662 32h-0.58c-0.187 0-0.339-0.152-0.339-0.339s0.152-0.339 0.339-0.339h0.58c0.187 0 0.339 0.152 0.339 0.339s-0.152 0.339-0.339 0.339z"></path>
<path d="M6.504 18.772c-0.636 0-1.152-0.517-1.152-1.153s0.517-1.153 1.152-1.153c0.636 0 1.152 0.517 1.152 1.153s-0.517 1.153-1.152 1.153zM6.504 17.145c-0.262 0-0.475 0.213-0.475 0.474s0.213 0.474 0.475 0.474c0.262 0 0.475-0.213 0.475-0.474s-0.213-0.474-0.475-0.474z"></path>
<path d="M31.999 19.57c-0.007-0.224-0.027-0.448-0.042-0.671-0.002-0.035-0.010-0.069-0.022-0.101-1.061-2.739-3.216-4.861-5.89-6.034 0.429-1.031 0.809-1.574 0.974-1.782 1.683 0.020 4.267-0.291 4.877-2.213 0.291-0.916-0.051-1.952-0.812-2.464-0.481-0.323-1.032-0.373-1.551-0.158-0.073-0.46-0.29-0.848-0.627-1.119 0.782-1.644-0.661-4.185-2.64-3.275-0.251-1.91-2.63-2.292-3.833-0.992-0.556 0.6-1.617 2.383 0.341 6.097-0.162 0.204-0.426 0.576-0.737 1.167-0.197 0.375 0.392 0.712 0.6 0.316 0.314-0.598 0.57-0.942 0.697-1.098 0.728 0.010 1.459-0.029 2.177-0.151-0.050 0.841 0.161 1.986 0.949 3.504-0.214 0.277-0.61 0.87-1.043 1.912-1.97-0.741-4.22-1.040-6.507-0.864 0.357-0.488 0.451-1.047 0.197-1.488-0.425-0.738-1.466-0.664-2.136-0.363-0.096-0.957-0.668-1.671-1.382-1.671s-1.287 0.714-1.382 1.671c-0.67-0.301-1.711-0.375-2.136 0.363-0.357 0.619-0.026 1.472 0.754 2.034-0.572 0.412-0.902 0.98-0.897 1.498-0.816 0.432-1.603 0.927-2.345 1.476-0.502-0.263-1.2-0.165-1.696 0.058-0.096-0.957-0.668-1.671-1.382-1.671s-1.287 0.714-1.382 1.671c-0.67-0.301-1.711-0.375-2.136 0.363-0.357 0.619-0.026 1.472 0.754 2.033-0.78 0.561-1.111 1.415-0.754 2.034 0.11 0.191 0.279 0.341 0.488 0.441-0.745 0.427-1.412 0.991-1.954 1.667-0.98 1.219-1.519 2.751-1.519 4.315v0.735c0 0.771 0.654 1.424 1.424 1.424l1.981-0c0.108 1.296 0.826 2.421 1.865 3.087h-4.93c-0.187 0-0.339 0.152-0.339 0.339s0.152 0.339 0.339 0.339h29.386c0.187 0 0.339-0.152 0.339-0.339s-0.152-0.339-0.339-0.339h-2.993c1.039-0.666 1.757-1.792 1.863-3.089l1.425-0c1.092 0 1.98-0.893 1.98-1.991v-6.66c0-0.004-0.001-0.007-0.001-0.011l0-0zM23.386 6.567c-1.774-3.346-0.915-4.849-0.456-5.344 1.038-1.119 2.832-0.464 2.668 1.106-0.031 0.296 0.324 0.486 0.553 0.297 1.395-1.153 2.776 0.735 2.154 2.089-1.221-0.374-2.358 0.516-2.678 1.666-0.654 0.131-1.406 0.195-2.241 0.185zM26.228 6.786c0.168-0.905 1.032-1.82 2.025-1.368 0.457 0.208 0.683 0.677 0.62 1.287-0.031 0.297 0.325 0.487 0.554 0.296 1.068-0.891 2.171 0.466 1.823 1.563-0.504 1.589-2.841 1.75-4.179 1.74-0.538-1.034-1.064-2.327-0.843-3.518zM31.284 18.994l0.016 0.247h-12.881l-0.002-4.499c0.282-0.079 0.53-0.241 0.69-0.519 0.323-0.561 0.082-1.315-0.547-1.869 5.846-0.603 10.903 2.012 12.725 6.64l-0-0zM13.644 12.502c0.272-0.114 0.272-0.512 0-0.626-0.406-0.169-1.313-0.817-0.988-1.381s1.338-0.102 1.688 0.165c0.235 0.179 0.58-0.020 0.542-0.313-0.056-0.436 0.051-1.547 0.701-1.547s0.757 1.111 0.701 1.547c-0.038 0.293 0.307 0.492 0.542 0.313 0.351-0.268 1.363-0.73 1.688-0.165 0.452 0.784-0.841 1.079-1.13 1.497-0.070 0.093-0.092 0.219-0.044 0.334 0.203 0.488 1.664 0.708 1.174 1.557-0.325 0.564-1.337 0.103-1.688-0.165-0.235-0.179-0.58 0.020-0.542 0.313 0.056 0.436-0.051 1.547-0.701 1.547s-0.757-1.11-0.701-1.547c0.025-0.192-0.144-0.383-0.336-0.383-0.073 0-0.145 0.023-0.206 0.070-0.351 0.268-1.363 0.73-1.688 0.165-0.325-0.563 0.582-1.212 0.988-1.381zM4.56 17.931c0.272-0.114 0.272-0.513 0-0.626-0.406-0.169-1.313-0.817-0.987-1.381s1.337-0.102 1.688 0.165c0.235 0.179 0.58-0.020 0.542-0.313-0.056-0.436 0.051-1.547 0.701-1.547s0.757 1.111 0.701 1.547c-0.038 0.293 0.307 0.492 0.542 0.313 0.351-0.268 1.363-0.73 1.688-0.165s-0.582 1.212-0.988 1.381c-0.273 0.114-0.273 0.513 0 0.626 0.406 0.169 1.313 0.817 0.988 1.381s-1.337 0.103-1.688-0.165c-0.235-0.179-0.58 0.020-0.542 0.313 0.056 0.436-0.051 1.547-0.701 1.547s-0.757-1.111-0.701-1.547c0.025-0.192-0.144-0.383-0.336-0.383-0.073 0-0.145 0.023-0.206 0.070-0.351 0.268-1.363 0.73-1.688 0.165s0.582-1.212 0.988-1.381zM2.012 22.213h1.394c0.195 0 0.278 0.251 0.12 0.367l-2.655 1.944c0.217-0.853 0.608-1.638 1.141-2.311l-0 0zM4.068 27.895c0-1.869 1.521-3.389 3.39-3.389s3.39 1.52 3.39 3.389-1.521 3.389-3.39 3.389c-1.869 0-3.39-1.52-3.39-3.389zM24.543 31.283c-1.869 0-3.39-1.52-3.39-3.389s1.521-3.389 3.39-3.389c1.868 0 3.388 1.519 3.39 3.386v0.002c0 1.869-1.52 3.389-3.39 3.389zM31.322 24.89h-1.251c-0.187 0-0.339-0.152-0.339-0.338v-2c0-0.187 0.152-0.339 0.339-0.339l1.251 0v2.677zM31.322 21.534h-1.251c-0.561 0-1.017 0.456-1.017 1.017v2c0 0.561 0.456 1.017 1.017 1.017l1.251-0v0.672c0 0.724-0.584 1.312-1.302 1.312l-1.425 0c-0.174-2.083-1.925-3.725-4.052-3.725-2.243 0-4.068 1.825-4.068 4.067 0 1.437 0.75 2.702 1.88 3.426l-12.708-0c1.039-0.666 1.758-1.791 1.865-3.087l5.303-0.001c0.187 0 0.339-0.152 0.339-0.339s-0.152-0.339-0.339-0.339l-5.303 0.001c-0.174-2.084-1.924-3.727-4.052-3.727s-3.879 1.643-4.052 3.728l-1.981 0c-0.406 0-0.746-0.338-0.746-0.745v-0.735c0-0.199 0.010-0.395 0.028-0.59l3.22-2.358c0.672-0.492 0.304-1.593-0.521-1.593l-0.768 0c0.692-0.646 1.539-1.138 2.495-1.418 0.125 0.905 0.682 1.569 1.37 1.569 0.714 0 1.287-0.714 1.382-1.671 0.67 0.301 1.711 0.375 2.136-0.363 0.357-0.619 0.026-1.472-0.754-2.034 0.751-0.54 1.085-1.352 0.791-1.964 0.664-0.486 1.364-0.927 2.089-1.316 0.212 0.274 0.561 0.442 0.98 0.466 0.346 0.020 0.721-0.057 1.079-0.218 0.096 0.957 0.668 1.671 1.382 1.671s1.287-0.714 1.382-1.671c0.226 0.102 0.495 0.177 0.768 0.205l0.002 4.451h-4.217c-0.187 0-0.339 0.152-0.339 0.339s0.152 0.339 0.339 0.339h17.799l-0 1.615z"></path>
<path d="M15.588 13.343c-0.636 0-1.152-0.517-1.152-1.153s0.517-1.153 1.152-1.153 1.152 0.517 1.152 1.153c0 0.636-0.517 1.153-1.152 1.153zM15.588 11.716c-0.262 0-0.475 0.213-0.475 0.474s0.213 0.474 0.475 0.474c0.262 0 0.475-0.213 0.475-0.474s-0.213-0.474-0.475-0.474z"></path>
<path d="M7.867 11.985c-0.062 0-0.123-0.017-0.177-0.050-2.635-1.619-2.604-3.153-2.469-3.737 0.277-1.194 1.808-1.88 2.711-0.865 0.9-1.056 2.494-0.224 2.753 0.948 0.13 0.589 0.132 2.124-2.654 3.661-0.051 0.028-0.107 0.042-0.163 0.042h-0zM6.846 7.511c-0.471 0-0.862 0.4-0.965 0.84-0.205 0.885 0.538 1.961 1.995 2.9 2.214-1.276 2.242-2.394 2.146-2.823-0.187-0.844-1.398-1.31-1.76-0.329-0.103 0.28-0.507 0.293-0.628 0.020-0.174-0.395-0.453-0.608-0.79-0.608v0z"></path>
<path d="M14.875 6.685c-0.056 0-0.112-0.014-0.163-0.042-3.353-1.835-3.296-3.642-3.21-4.35 0.182-1.51 2.267-2.381 3.292-1.060 1.035-1.261 2.913-0.492 3.244 0.96 0.158 0.692 0.183 2.51-2.987 4.442-0.054 0.033-0.115 0.050-0.176 0.050zM13.511 1.284c-0.648 0-1.213 0.54-1.347 1.155-0.117 0.536-0.079 1.938 2.701 3.514 1.829-1.158 2.765-2.498 2.512-3.607-0.27-1.184-1.769-1.467-2.289-0.302-0.121 0.272-0.523 0.259-0.627-0.020-0.233-0.627-0.668-0.74-0.95-0.74z"></path>
<path d="M12.17 19.581c0 0.244-0.197 0.441-0.441 0.441s-0.441-0.198-0.441-0.441 0.197-0.441 0.441-0.441c0.243 0 0.441 0.198 0.441 0.441z"></path>
<path d="M19.178 27.893c0 0.244-0.197 0.441-0.441 0.441s-0.441-0.197-0.441-0.441c0-0.244 0.197-0.441 0.441-0.441s0.441 0.198 0.441 0.441z"></path>
<path d="M21.935 9.858c0 0.243-0.197 0.441-0.441 0.441s-0.441-0.198-0.441-0.441c0-0.244 0.197-0.441 0.441-0.441s0.441 0.197 0.441 0.441z"></path>
</svg>
