<svg version="1.1" xmlns="http://www.w3.org/2000/svg" width="32" height="32" viewBox="0 0 32 32">
<path d="M15.392 3.044c-2.592 0.229-4.823 2.119-5.503 4.661-0.136 0.489-0.214 1.049-0.214 1.629 0 1.29 0.387 2.49 1.051 3.489l-0.015-0.023c0.381 0.588 1.233 1.44 1.821 1.821 0.976 0.651 2.176 1.038 3.467 1.038s2.49-0.388 3.49-1.053l-0.023 0.014c0.588-0.381 1.44-1.233 1.821-1.821 1.615-2.495 1.32-5.7-0.721-7.828-1.025-1.091-2.438-1.808-4.018-1.929l-0.021-0.001c-0.167-0.018-0.387-0.035-0.608-0.046l-0.027-0.001c-0.015 0.004-0.24 0.025-0.501 0.049zM17.219 5.171c0.677 0.195 1.191 0.496 1.761 1.040 0.595 0.567 0.977 1.187 1.192 1.933 0.172 0.6 0.172 1.779 0 2.379-0.223 0.776-0.611 1.389-1.255 1.989-0.844 0.784-1.759 1.141-2.917 1.141s-2.073-0.357-2.917-1.141c-0.644-0.6-1.032-1.213-1.255-1.989-0.172-0.6-0.172-1.779 0-2.379 0.203-0.707 0.5-1.213 1.049-1.791 0.608-0.662 1.423-1.125 2.342-1.286l0.025-0.004c0.428-0.077 1.536-0.017 1.975 0.107zM15.2 17.74c-2.325 0.090-4.523 0.494-6.597 1.172l0.171-0.048c-1.147 0.367-1.836 0.801-2.343 1.48-0.656 0.879-0.804 1.541-0.763 3.437 0.028 1.281 0.069 1.511 0.4 2.192 0.273 0.564 0.995 1.284 1.559 1.559 0.891 0.432 1.373 0.475 2.933 0.26 1.176-0.187 2.587-0.325 4.019-0.383l0.074-0.002c2.101-0.096 4.148 0.020 6.787 0.385 1.56 0.215 2.043 0.172 2.933-0.26 0.564-0.275 1.285-0.995 1.559-1.559 0.331-0.681 0.372-0.911 0.4-2.192 0.027-1.205-0.024-1.869-0.175-2.316-0.323-0.975-1.008-1.756-1.893-2.196l-0.022-0.010c-1.283-0.623-4.081-1.268-6.243-1.441-0.683-0.053-1.478-0.083-2.281-0.083-0.183 0-0.365 0.002-0.547 0.005l0.027-0zM18.667 19.892c1.899 0.251 4.308 0.879 4.913 1.28 0.287 0.188 0.535 0.521 0.653 0.869 0.124 0.367 0.127 2.464 0.003 2.827-0.104 0.305-0.435 0.688-0.761 0.88-0.227 0.133-0.293 0.145-0.781 0.143-0.293-0.003-0.977-0.067-1.52-0.144-2.024-0.288-2.677-0.329-5.173-0.329s-3.149 0.041-5.173 0.329c-0.543 0.077-1.227 0.141-1.52 0.144-0.488 0.003-0.555-0.009-0.781-0.143-0.176-0.114-0.328-0.243-0.461-0.389l-0.002-0.002c-0.348-0.395-0.383-0.568-0.383-1.899 0-1.284 0.035-1.479 0.337-1.9 0.241-0.337 0.557-0.519 1.365-0.781 1.441-0.485 3.118-0.836 4.853-0.985l0.081-0.006c0.933-0.079 3.413-0.019 4.349 0.105z"></path>
</svg>