<!-- Generated by IcoMoon.io -->
<svg version="1.1" xmlns="http://www.w3.org/2000/svg" width="29" height="32" viewBox="0 0 29 32">
<title>map</title>
<path d="M0.778 22.003c1.379-1.862 3.396-1.58 5.354-1.568 0-6.071 0-12.118 0-18.234-1.101 0.079-2.237-0.181-3.326 0.214-1.31 0.463-2.086 1.614-2.098 3.069-0.012 1.365 0 2.731 0 4.107 0 0.124 0.023 0.271-0.023 0.372-0.058 0.113-0.197 0.26-0.29 0.26-0.127-0.011-0.278-0.124-0.348-0.237-0.058-0.090-0.035-0.248-0.035-0.372 0-1.343 0-2.674 0-4.017 0.012-2.449 1.669-4.051 4.172-4.051 0.568 0 1.124 0 1.692 0 0.742 0 0.973 0.226 0.973 0.97 0 1.817 0 3.633 0 5.461 0 0.158 0 0.305 0 0.508 0.185 0.011 0.336 0.023 0.487 0.023 3.5 0 7.011 0 10.511 0 0.267 0 0.44-0.056 0.626-0.271 1.228-1.456 3.419-1.456 4.659-0.011 0.174 0.203 0.348 0.282 0.626 0.282 1.344-0.011 2.689-0.011 4.045 0 0.742 0 0.997 0.248 0.997 0.959 0 5.89 0 11.791 0 17.681 0 0.7-0.267 0.948-0.973 0.948-7.869 0-15.726 0.011-23.595 0-2.028-0.023-3.674-1.241-4.114-3.024-0.070-0.293-0.104-0.609-0.104-0.925-0.012-4.197-0.012-8.406 0-12.604 0-0.271-0.116-0.688 0.336-0.688 0.464-0.011 0.348 0.406 0.348 0.677 0.012 3.317 0 6.623 0 9.941 0 0.147 0 0.305 0 0.451 0.035 0.023 0.058 0.056 0.081 0.079zM6.851 9.185c0 0.192 0 0.35 0 0.519 0 3.498 0 6.996 0 10.494 0 0.688-0.232 0.903-0.927 0.914-0.823 0.011-1.657-0.023-2.468 0.056-1.854 0.192-3.141 2.11-2.631 3.859 0.417 1.433 1.761 2.37 3.465 2.37 7.788 0 15.587 0 23.375 0.011 0.359 0 0.464-0.102 0.464-0.451-0.012-5.777-0.012-11.566-0.012-17.343 0-0.147-0.023-0.293-0.035-0.44-1.483 0-2.909 0-4.369 0 0.359 1.298-0.070 2.324-0.985 3.25-0.521 0.53-0.927 1.185-1.379 1.772 0.058 0.011 0.116 0.023 0.174 0.034 0.035 0.203 0.151 0.451 0.070 0.609-0.139 0.282-0.985 0.203-1.113-0.102-0.452-1.027-1.124-1.896-1.901-2.708-0.684-0.711-0.904-1.58-0.73-2.55 0.023-0.102 0.023-0.203 0.035-0.316-3.685 0.023-7.336 0.023-11.033 0.023zM20.827 13.687c0.545-0.666 1.113-1.388 1.715-2.087 0.834-0.959 0.8-2.302-0.104-3.159-0.892-0.846-2.306-0.858-3.21-0.023-0.916 0.835-0.973 2.212-0.151 3.159 0.603 0.711 1.182 1.444 1.75 2.11z"></path>
<path d="M14.43 3.735c-1.078 0.011-1.935-0.812-1.935-1.862-0.012-1.038 0.834-1.873 1.912-1.873 1.055 0 1.901 0.812 1.912 1.839 0.012 1.049-0.823 1.884-1.889 1.896zM15.623 1.862c0-0.654-0.545-1.173-1.205-1.173-0.684 0-1.24 0.53-1.228 1.196 0 0.654 0.545 1.173 1.205 1.173 0.684 0 1.24-0.53 1.228-1.196z"></path>
<path d="M4.301 32c-0.672 0-1.205-0.53-1.205-1.185s0.556-1.185 1.217-1.185c0.661 0 1.217 0.553 1.217 1.196s-0.556 1.173-1.228 1.173zM4.324 31.323c0.324-0.045 0.522-0.226 0.498-0.53s-0.232-0.496-0.556-0.474c-0.29 0.023-0.475 0.203-0.475 0.508 0.012 0.316 0.22 0.474 0.533 0.496z"></path>
<path d="M13.028 24.203c0.058 0.169 0.209 0.406 0.139 0.496-0.104 0.135-0.348 0.192-0.533 0.237-0.267 0.068-0.498 0-0.649-0.282-0.313-0.632-0.591-1.298-0.997-1.873-0.626-0.88-1.298-1.726-2.040-2.516-1.738-1.873-1.959-4.333-0.475-6.251 1.646-2.144 4.786-2.516 6.942-0.835 2.132 1.67 2.434 4.795 0.603 6.781-1.147 1.241-2.237 2.505-2.978 4.028-0.035 0.068-0.058 0.124-0.093 0.192 0.012 0.011 0.046 0.011 0.081 0.023zM12.332 23.549c0.765-1.027 1.565-2.133 2.399-3.205 0.29-0.372 0.661-0.677 0.95-1.049 1.333-1.704 1.055-4.096-0.637-5.518-1.634-1.377-4.149-1.264-5.667 0.248-1.541 1.546-1.599 3.972-0.116 5.551 0.394 0.429 0.834 0.835 1.182 1.298 0.672 0.903 1.31 1.839 1.889 2.674z"></path>
<path d="M25.092 14.996c-0.232 0-0.406 0.045-0.545-0.011-0.151-0.056-0.267-0.203-0.394-0.305 0.116-0.124 0.22-0.327 0.359-0.339 0.336-0.034 0.695-0.023 1.031 0.034 0.127 0.023 0.232 0.226 0.348 0.35-0.139 0.102-0.278 0.237-0.44 0.293-0.139 0.034-0.29-0.011-0.359-0.023z"></path>
<path d="M22.368 18.347c-0.174 0-0.371 0.045-0.51-0.011s-0.232-0.226-0.336-0.35c0.116-0.102 0.22-0.271 0.348-0.282 0.324-0.045 0.661-0.045 0.985 0 0.139 0.023 0.255 0.192 0.382 0.305-0.116 0.113-0.22 0.282-0.371 0.338-0.127 0.045-0.324 0-0.498 0z"></path>
<path d="M21.858 21.642c-0.185 0-0.382 0.045-0.556-0.011-0.116-0.034-0.278-0.214-0.267-0.305 0.023-0.124 0.185-0.305 0.301-0.316 0.359-0.045 0.718-0.045 1.078 0 0.127 0.011 0.313 0.203 0.313 0.305 0 0.113-0.174 0.282-0.301 0.327-0.185 0.056-0.382 0.011-0.568 0 0 0.011 0 0.011 0 0z"></path>
<path d="M24.269 22.386c-0.116-0.056-0.209-0.102-0.278-0.158-0.232-0.169-0.475-0.316-0.661-0.519-0.104-0.113-0.139-0.293-0.197-0.451 0.162-0.056 0.371-0.192 0.464-0.147 0.324 0.181 0.626 0.429 0.904 0.677 0.070 0.068 0.070 0.26 0.035 0.384-0.035 0.102-0.162 0.147-0.267 0.214z"></path>
<path d="M22.867 14.996c-0.162 0-0.336 0.045-0.475-0.011s-0.324-0.192-0.324-0.305 0.174-0.327 0.278-0.339c0.371-0.045 0.753-0.045 1.113 0 0.116 0.011 0.29 0.226 0.29 0.339-0.012 0.113-0.197 0.26-0.336 0.293-0.151 0.056-0.348 0.023-0.545 0.023z"></path>
<path d="M20.676 17.602c0.139 0.113 0.417 0.237 0.44 0.384 0.046 0.339-0.255 0.361-0.533 0.372-0.197 0.011-0.394 0.113-0.591 0.113-0.174 0-0.429-0.023-0.498-0.135-0.151-0.214 0.012-0.395 0.243-0.474 0.267-0.090 0.545-0.158 0.939-0.26z"></path>
<path d="M20.236 21.721c-0.394-0.237-0.765-0.429-1.078-0.666-0.081-0.056-0.093-0.338-0.023-0.429 0.070-0.079 0.313-0.102 0.44-0.056 0.29 0.102 0.568 0.248 0.823 0.418 0.104 0.068 0.22 0.26 0.197 0.361-0.012 0.124-0.185 0.214-0.359 0.372z"></path>
<path d="M24.987 23.041c-0.174 0.384-0.29 0.733-0.475 1.038-0.058 0.102-0.301 0.090-0.464 0.135-0.035-0.158-0.116-0.327-0.093-0.474 0.046-0.26 0.139-0.508 0.267-0.745 0.081-0.135 0.255-0.293 0.394-0.316 0.104 0 0.232 0.226 0.371 0.361z"></path>
<path d="M18.66 24.271c0.174 0 0.359-0.045 0.51 0.011 0.139 0.045 0.29 0.181 0.324 0.305 0.023 0.079-0.151 0.305-0.255 0.316-0.394 0.034-0.8 0.034-1.194 0-0.093-0.011-0.243-0.214-0.232-0.327 0.012-0.102 0.174-0.248 0.29-0.282 0.174-0.056 0.371-0.023 0.556-0.023z"></path>
<path d="M20.769 24.271c0.174 0 0.359-0.045 0.51 0.011 0.127 0.045 0.29 0.192 0.313 0.316 0.023 0.090-0.151 0.293-0.255 0.305-0.382 0.034-0.776 0.045-1.159 0-0.104-0.011-0.29-0.214-0.267-0.305 0.023-0.124 0.174-0.282 0.301-0.316 0.174-0.056 0.371-0.011 0.556-0.011z"></path>
<path d="M24.501 17.681c0.174 0 0.359-0.045 0.51 0.011 0.127 0.045 0.29 0.192 0.313 0.316 0.012 0.090-0.162 0.305-0.267 0.305-0.382 0.034-0.776 0.034-1.159 0-0.104-0.011-0.278-0.214-0.267-0.305 0.023-0.124 0.174-0.271 0.313-0.316 0.174-0.056 0.371-0.011 0.556-0.011z"></path>
<path d="M19.112 18.505c0.116 0.169 0.29 0.293 0.278 0.406-0.012 0.361-0.070 0.722-0.151 1.072-0.023 0.102-0.197 0.237-0.301 0.237-0.127-0.011-0.336-0.158-0.336-0.237 0.023-0.395 0.081-0.801 0.162-1.196 0.023-0.079 0.174-0.147 0.348-0.282z"></path>
<path d="M22.681 24.937c-0.081 0-0.197 0.034-0.255-0.011-0.162-0.102-0.301-0.237-0.44-0.361 0.151-0.102 0.278-0.26 0.44-0.305 0.278-0.068 0.568-0.090 0.858-0.068 0.151 0.011 0.278 0.158 0.429 0.248-0.093 0.135-0.174 0.327-0.301 0.384-0.22 0.090-0.475 0.079-0.719 0.113 0 0.011-0.012 0.011-0.012 0z"></path>
<path d="M16.574 24.271c0.174 0 0.359-0.045 0.51 0.011 0.139 0.045 0.29 0.192 0.313 0.316 0.023 0.090-0.162 0.293-0.267 0.305-0.382 0.034-0.776 0.034-1.159 0-0.104-0.011-0.278-0.214-0.267-0.305 0.023-0.124 0.174-0.282 0.301-0.316 0.185-0.056 0.382-0.011 0.568-0.011z"></path>
<path d="M27.085 17.016c0 0.384-0.695 1.106-1.031 1.106-0.104 0-0.278-0.079-0.313-0.158-0.046-0.102-0.023-0.293 0.046-0.372 0.209-0.26 0.452-0.496 0.707-0.711 0.093-0.079 0.267-0.102 0.382-0.079 0.104 0.023 0.162 0.169 0.209 0.214z"></path>
<path d="M27.433 16.214c-0.174 0.079-0.313 0.181-0.464 0.181-0.127 0-0.313-0.079-0.382-0.192-0.174-0.271-0.324-0.553-0.429-0.858-0.046-0.113-0.012-0.35 0.070-0.395 0.116-0.068 0.382-0.068 0.44 0.011 0.255 0.339 0.452 0.711 0.765 1.252z"></path>
<path d="M14.476 24.271c0.174 0 0.359-0.034 0.521 0.011 0.127 0.034 0.29 0.181 0.301 0.282 0.012 0.113-0.139 0.316-0.243 0.327-0.394 0.034-0.811 0.034-1.205 0-0.093-0.011-0.243-0.226-0.232-0.327s0.174-0.248 0.301-0.282c0.174-0.045 0.371-0.011 0.556-0.011z"></path>
<path d="M20.804 8.891c0.672 0 1.228 0.53 1.228 1.173s-0.545 1.185-1.217 1.196c-0.672 0-1.217-0.519-1.217-1.173 0-0.666 0.533-1.196 1.205-1.196zM20.804 10.584c0.301-0.034 0.522-0.192 0.522-0.496 0.012-0.305-0.174-0.508-0.498-0.519s-0.51 0.169-0.533 0.485c0 0.327 0.197 0.485 0.51 0.53z"></path>
<path d="M12.332 18.629c-1.008-0.011-1.819-0.824-1.808-1.794 0.023-0.959 0.834-1.749 1.819-1.749 0.997 0 1.819 0.801 1.819 1.783-0.012 0.982-0.823 1.771-1.831 1.76zM13.456 16.869c0-0.609-0.51-1.117-1.124-1.106-0.603 0.011-1.101 0.508-1.113 1.083 0 0.609 0.51 1.106 1.136 1.094 0.614 0 1.101-0.474 1.101-1.072z"></path>
</svg>
