<!-- Generated by IcoMoon.io -->
<svg version="1.1" xmlns="http://www.w3.org/2000/svg" width="18" height="32" viewBox="0 0 18 32">
<title>package</title>
<path d="M16.28 6.271h-1.329v-3.2c0-1.698-1.395-3.069-3.123-3.069h-5.316c-1.728 0-3.123 1.371-3.123 3.069v3.2h-1.329c-1.13 0-2.060 0.914-2.060 2.025v19.788c0 1.11 0.93 2.025 2.060 2.025h0.731v1.241h2.193v-1.175h8.306v1.175h2.193v-1.175h0.731c1.13 0 2.060-0.914 2.060-2.025v-19.853c0.133-1.11-0.797-2.025-1.993-2.025l0-0zM5.515 3.071c0-0.588 0.465-1.045 1.063-1.045l5.25 0c0.598 0 1.063 0.457 1.063 1.045v3.2l-7.376-0-0-3.2zM5.648 16.654c-0.797 0-1.395 0.588-1.395 1.371v7.902c0 0.392-0.332 0.653-0.665 0.653s-0.665-0.326-0.665-0.653v-7.902c0-1.502 1.263-2.743 2.791-2.743h7.044c1.528 0 2.791 1.241 2.791 2.743v7.902c0 0.392-0.332 0.653-0.665 0.653-0.399 0-0.665-0.326-0.665-0.653l0-7.902c0-0.784-0.598-1.371-1.395-1.371h-7.177zM3.455 12.997c-0.399 0-0.665-0.326-0.665-0.653s0.332-0.653 0.665-0.653h11.495c0.399 0 0.665 0.326 0.665 0.653s-0.332 0.653-0.731 0.653h-11.429z"></path>
</svg>
