<!-- Generated by IcoMoon.io -->
<svg version="1.1" xmlns="http://www.w3.org/2000/svg" width="41" height="32" viewBox="0 0 41 32">
<path d="M12.816 8.29c0-4.319 3.501-7.82 7.82-7.82s7.82 3.501 7.82 7.82-3.501 7.82-7.82 7.82c-4.319 0-7.82-3.501-7.82-7.82zM20.636 3.294c-2.759 0-4.996 2.237-4.996 4.996s2.237 4.996 4.996 4.996c2.759 0 4.996-2.237 4.996-4.996s-2.237-4.996-4.996-4.996zM10.223 6.218c-2.001 0-3.623 1.622-3.623 3.623s1.622 3.623 3.623 3.623c0.78 0 1.412 0.632 1.412 1.412s-0.632 1.412-1.412 1.412c-3.56 0-6.447-2.886-6.447-6.447s2.886-6.447 6.447-6.447c0.78 0 1.412 0.632 1.412 1.412s-0.632 1.412-1.412 1.412zM28.836 4.806c0-0.78 0.632-1.412 1.412-1.412 3.56 0 6.447 2.886 6.447 6.447s-2.886 6.447-6.447 6.447c-0.78 0-1.412-0.632-1.412-1.412s0.632-1.412 1.412-1.412c2.001 0 3.623-1.622 3.623-3.623s-1.622-3.623-3.623-3.623c-0.78 0-1.412-0.632-1.412-1.412zM7.604 18.816c0.148 0.766-0.353 1.506-1.119 1.654-0.98 0.189-1.949 0.453-2.898 0.792-0.458 0.164-0.764 0.597-0.764 1.084v1.656c0 0.635 0.563 1.124 1.192 1.034l0.493-0.070c0.772-0.11 1.487 0.426 1.597 1.198s-0.426 1.487-1.198 1.597l-0.493 0.070c-2.33 0.333-4.415-1.475-4.415-3.829v-1.656c0-1.679 1.056-3.178 2.638-3.743 1.085-0.388 2.193-0.689 3.313-0.905 0.766-0.148 1.506 0.353 1.654 1.119zM32.867 18.816c0.148-0.766 0.888-1.266 1.654-1.119 1.12 0.216 2.228 0.518 3.313 0.905 1.582 0.565 2.638 2.063 2.638 3.743v1.656c0 2.354-2.085 4.162-4.415 3.829l-0.493-0.070c-0.772-0.11-1.308-0.825-1.198-1.597s0.825-1.308 1.597-1.198l0.493 0.070c0.629 0.090 1.192-0.398 1.192-1.034v-1.656c0-0.486-0.306-0.92-0.764-1.084-0.949-0.339-1.918-0.603-2.898-0.792-0.766-0.148-1.266-0.888-1.119-1.654zM29.211 22.464c-5.545-1.98-11.604-1.98-17.149 0-0.736 0.263-1.228 0.96-1.228 1.742v2.107c0 1.043 0.924 1.845 1.957 1.697l0.628-0.090c4.788-0.684 9.648-0.684 14.436 0l0.628 0.090c1.033 0.148 1.957-0.654 1.957-1.697v-2.107c0-0.782-0.491-1.479-1.227-1.742zM11.112 19.805c6.159-2.2 12.89-2.2 19.049 0 1.86 0.664 3.101 2.426 3.101 4.401v2.107c0 2.761-2.446 4.883-5.179 4.492l-0.628-0.090c-4.523-0.646-9.114-0.646-13.637 0l-0.628 0.090c-2.734 0.391-5.179-1.731-5.179-4.492v-2.107c0-1.975 1.242-3.737 3.101-4.401z"></path>
</svg>
