<svg version="1.1" xmlns="http://www.w3.org/2000/svg" width="32" height="32" viewBox="0 0 32 32">
<path d="M15.267 1.784c-0.737 0.168-0.944 0.317-2.337 1.693-0.812 0.801-1.361 1.301-1.493 1.361-0.181 0.080-0.457 0.097-2.076 0.125-1.713 0.031-1.895 0.043-2.213 0.147-0.934 0.315-1.665 1.015-2.015 1.906l-0.008 0.022c-0.131 0.341-0.133 0.383-0.163 2.241-0.027 1.827-0.032 1.903-0.149 2.157-0.091 0.197-0.435 0.579-1.367 1.52-1.32 1.332-1.451 1.505-1.665 2.219-0.139 0.465-0.131 1.273 0.020 1.76 0.191 0.616 0.465 0.972 1.749 2.264 0.775 0.78 1.225 1.275 1.288 1.413 0.083 0.187 0.099 0.452 0.125 2.107 0.023 1.321 0.053 1.957 0.101 2.107 0.347 0.994 1.116 1.762 2.086 2.102l0.024 0.007c0.148 0.047 0.797 0.077 2.107 0.1 1.853 0.031 1.899 0.033 2.133 0.156 0.145 0.076 0.705 0.585 1.413 1.285 0.645 0.639 1.289 1.239 1.431 1.333 0.489 0.324 1.089 0.518 1.734 0.518 0.314 0 0.618-0.046 0.905-0.131l-0.022 0.006c0.633-0.185 0.857-0.356 2.169-1.652 0.937-0.925 1.324-1.272 1.52-1.363 0.255-0.117 0.331-0.123 2.157-0.149 1.859-0.029 1.9-0.032 2.241-0.163 1.004-0.396 1.751-1.248 1.994-2.294l0.004-0.022c0.059-0.281 0.079-0.781 0.079-2.036 0.001-1.559 0.008-1.677 0.111-1.919 0.085-0.197 0.397-0.545 1.352-1.511 0.839-0.848 1.296-1.352 1.411-1.556 0.331-0.587 0.465-1.497 0.323-2.189-0.076-0.283-0.17-0.527-0.284-0.759l0.011 0.024c-0.204-0.428-0.284-0.521-1.456-1.707-0.681-0.691-1.284-1.339-1.339-1.441-0.091-0.169-0.103-0.364-0.129-2.053-0.028-1.819-0.033-1.877-0.165-2.272-0.321-0.959-1.119-1.728-2.125-2.049-0.247-0.079-0.589-0.099-2.16-0.127-1.685-0.029-1.885-0.041-2.053-0.132-0.103-0.055-0.739-0.643-1.413-1.307-1.26-1.239-1.536-1.455-2.137-1.667-0.411-0.145-1.249-0.183-1.716-0.076zM16.461 3.813c0.119 0.049 0.676 0.559 1.46 1.335 1.215 1.203 1.285 1.263 1.727 1.469 0.721 0.337 0.948 0.367 2.832 0.369 1.823 0.003 1.908 0.016 2.224 0.353 0.296 0.316 0.309 0.405 0.311 2.192 0 1.871 0.031 2.099 0.368 2.82 0.207 0.441 0.267 0.512 1.469 1.727 0.776 0.784 1.285 1.341 1.335 1.46 0.105 0.252 0.103 0.741-0.005 0.957-0.048 0.093-0.609 0.699-1.248 1.344-1.26 1.272-1.496 1.581-1.736 2.275l-0.155 0.445-0.028 1.876-0.028 1.875-0.16 0.232c-0.117 0.16-0.268 0.287-0.442 0.374l-0.007 0.003-0.289 0.147h-1.689c-2.635 0-2.672 0.016-4.535 1.852-1.289 1.271-1.461 1.401-1.849 1.401-0.488-0.001-0.548-0.044-1.913-1.393-1.268-1.252-1.301-1.28-1.789-1.509-0.219-0.108-0.479-0.208-0.748-0.284l-0.033-0.008c-0.169-0.035-0.939-0.059-1.92-0.059-0.989 0-1.717-0.023-1.841-0.057-0.161-0.059-0.299-0.143-0.417-0.25l0.001 0.001c-0.4-0.361-0.391-0.301-0.421-2.413-0.027-1.805-0.033-1.909-0.151-2.24-0.243-0.681-0.363-0.839-1.611-2.107-0.664-0.675-1.26-1.305-1.327-1.4-0.149-0.219-0.201-0.671-0.109-0.952 0.051-0.159 0.368-0.513 1.327-1.488 1.313-1.335 1.451-1.512 1.724-2.252 0.107-0.287 0.117-0.44 0.144-2.201l0.031-1.893 0.133-0.237c0.073-0.131 0.237-0.311 0.364-0.4l0.232-0.163 3.751-0.056 0.445-0.155c0.693-0.24 1.003-0.476 2.275-1.736 0.645-0.639 1.245-1.199 1.333-1.245 0.205-0.108 0.72-0.112 0.968-0.008zM19.653 11.036c-0.135 0.068-1.767 1.664-4.409 4.309-4.605 4.612-4.408 4.387-4.261 4.875 0.087 0.291 0.507 0.711 0.797 0.797 0.488 0.147 0.263 0.344 4.875-4.261 2.98-2.976 4.233-4.263 4.313-4.427 0.139-0.285 0.108-0.535-0.101-0.833-0.335-0.476-0.82-0.66-1.213-0.46zM12.080 11.424c-0.491 0.172-0.736 0.573-0.741 1.216-0.008 0.88 0.393 1.317 1.235 1.347 0.96 0.032 1.416-0.396 1.416-1.325 0-0.672-0.243-1.068-0.757-1.24-0.223-0.075-0.935-0.073-1.152 0.003zM18.747 18.091c-0.491 0.172-0.736 0.573-0.741 1.216-0.008 0.88 0.393 1.317 1.235 1.347 0.96 0.032 1.416-0.396 1.416-1.325 0-0.672-0.243-1.068-0.757-1.24-0.223-0.075-0.935-0.073-1.152 0.003z"></path>
</svg>