<!-- Generated by IcoMoon.io -->
<svg version="1.1" xmlns="http://www.w3.org/2000/svg" width="30" height="32" viewBox="0 0 30 32">
<title>phone</title>
<path d="M18.735 2.145c0.215-0.593 0.87-0.9 1.464-0.685 2.188 0.793 4.24 2.066 5.991 3.817 1.795 1.795 3.088 3.906 3.876 6.156 0.209 0.596-0.105 1.248-0.701 1.456s-1.248-0.105-1.456-0.701c-0.677-1.933-1.787-3.748-3.335-5.295-1.51-1.51-3.274-2.604-5.154-3.284-0.594-0.215-0.9-0.87-0.685-1.464zM3.868 2.852c1.824-1.824 4.779-1.74 6.598 0.080l3.037 3.037c1.819 1.819 1.904 4.774 0.080 6.598l-0.421 0.421c-0.317 0.317-0.351 0.832-0.050 1.197 0.636 0.77 1.317 1.533 2.054 2.269s1.499 1.418 2.269 2.053c0.366 0.302 0.88 0.267 1.197-0.050l0.421-0.421c1.824-1.824 4.779-1.74 6.598 0.080l3.037 3.037c1.82 1.819 1.904 4.774 0.080 6.598l-1.961 1.961c-1.993 1.993-5.253 1.831-8.425 0.668-3.271-1.2-6.921-3.613-10.226-6.918s-5.718-6.955-6.918-10.226c-1.164-3.172-1.325-6.432 0.668-8.425l1.961-1.961zM8.85 4.548c-0.976-0.976-2.483-0.963-3.366-0.080l-1.961 1.961c0 0 0 0 0 0-0.985 0.985-1.236 3.028-0.138 6.021 1.062 2.894 3.263 6.272 6.388 9.397s6.503 5.326 9.397 6.388c2.993 1.098 5.036 0.847 6.021-0.138l1.961-1.961c0.883-0.883 0.896-2.39-0.080-3.366l-3.037-3.037c-0.976-0.976-2.483-0.963-3.366-0.080l-0.421 0.421c-1.144 1.144-2.988 1.253-4.268 0.197-0.817-0.674-1.636-1.405-2.431-2.2s-1.526-1.614-2.2-2.431c-1.057-1.28-0.948-3.124 0.197-4.268l0.421-0.421c0.883-0.883 0.896-2.39-0.080-3.366l-3.037-3.037zM18.762 7.263c0.252-0.579 0.926-0.843 1.504-0.591 0.978 0.426 1.894 1.040 2.692 1.837 0.845 0.845 1.483 1.823 1.912 2.868 0.239 0.584-0.040 1.252-0.624 1.491s-1.252-0.040-1.491-0.624c-0.315-0.769-0.786-1.491-1.413-2.118-0.592-0.592-1.268-1.044-1.988-1.358-0.579-0.252-0.843-0.926-0.591-1.504z"></path>
</svg>
