<!-- Generated by IcoMoon.io -->
<svg version="1.1" xmlns="http://www.w3.org/2000/svg" width="32" height="32" viewBox="0 0 32 32">
<path d="M26.405 0.563c2.439-0.813 4.76 1.507 3.947 3.946l-8.091 24.272c-0.854 2.562-4.337 2.903-5.672 0.556l-4.952-8.709c-0.32-0.563-0.787-1.030-1.35-1.35l-8.709-4.952c-2.347-1.335-2.006-4.818 0.556-5.672l24.272-8.091zM28.075 3.751c0.188-0.563-0.348-1.098-0.911-0.911l-24.272 8.091c-0.591 0.197-0.67 1.001-0.128 1.309l8.709 4.952c0.117 0.066 0.231 0.136 0.343 0.21l3.020-3.020c0.469-0.469 1.228-0.469 1.697 0s0.469 1.228 0 1.697l-3.020 3.020c0.074 0.112 0.144 0.226 0.21 0.343l4.952 8.709c0.308 0.542 1.112 0.463 1.309-0.128l8.091-24.272z"></path>
</svg>
