<!-- Generated by IcoMoon.io -->
<svg version="1.1" xmlns="http://www.w3.org/2000/svg" width="32" height="32" viewBox="0 0 32 32">
<title>rating</title>
<path d="M31.445 10.192l-1.959 1.871c0 0 0.235 1.352 0.451 2.635h-0c0.048 0.276-0.010 0.56-0.162 0.796s-0.387 0.405-0.658 0.476c-0.271 0.070-0.559 0.036-0.806-0.096l-2.361-1.244c-0.032-0.005-0.065-0.005-0.098 0l-0.362 0.186-0.235 0.127-0.803 0.421-0.715 0.382c0.147-0.482 0.177-0.993 0.088-1.489l-0.549-3.204 2.332-2.263c0.448-0.439 0.765-0.994 0.914-1.604s0.124-1.248-0.071-1.844c-0.056-0.17-0.128-0.334-0.215-0.49 0.321 0.082 0.59 0.3 0.735 0.598l1.176 2.4 2.645 0.392c0.276 0.039 0.527 0.181 0.705 0.396s0.267 0.489 0.253 0.767c-0.014 0.278-0.132 0.542-0.331 0.737l0.030 0.049z"></path>
<path d="M8.353 14.306c-0.087 0.493-0.060 0.999 0.078 1.479l-2.214-1.166-2.361 1.244c-0.247 0.138-0.537 0.175-0.811 0.106s-0.511-0.241-0.663-0.479c-0.152-0.238-0.206-0.526-0.153-0.803 0.216-1.274 0.451-2.635 0.451-2.635l-1.96-1.871c-0.201-0.201-0.317-0.471-0.326-0.755s0.091-0.56 0.279-0.773c0.188-0.213 0.45-0.346 0.732-0.373l2.645-0.392 1.156-2.39c0.145-0.298 0.414-0.516 0.735-0.598-0.088 0.156-0.16 0.32-0.215 0.49-0.195 0.596-0.22 1.235-0.071 1.844s0.465 1.165 0.914 1.604l2.332 2.263-0.549 3.204z"></path>
<path d="M27.761 22.037c-0.419-0.416-0.986-0.648-1.577-0.647h-20.162c-0.592 0-1.16 0.235-1.579 0.654s-0.654 0.987-0.654 1.579v5.594c0 0.592 0.236 1.16 0.657 1.577 0.417 0.422 0.984 0.661 1.577 0.666h20.162c0.592-0.002 1.159-0.238 1.577-0.657 0.42-0.417 0.656-0.985 0.657-1.577v-5.604c0-0.595-0.236-1.166-0.657-1.587v0zM21.697 27.543h-10.992v-2.253h10.992v2.253z"></path>
<path d="M24.332 6.802c-0.013 0.039-0.033 0.076-0.059 0.108 0 0.059-0.059 0.127-0.088 0.176h-0c-0.026 0.056-0.062 0.106-0.108 0.147l-3.165 3.086c0 0 0.284 1.626 0.558 3.272 0.069 0.372 0.127 0.735 0.186 1.087 0.034 0.209 0.009 0.424-0.072 0.619s-0.216 0.365-0.388 0.488c-0.169 0.121-0.369 0.193-0.577 0.207s-0.415-0.031-0.599-0.128l-0.147-0.079-3.772-1.959-3.919 2.038c-0.184 0.098-0.391 0.142-0.599 0.128s-0.407-0.086-0.577-0.207c-0.169-0.124-0.3-0.292-0.38-0.485s-0.104-0.405-0.071-0.612c0.059-0.304 0.108-0.617 0.157-0.931l0.598-3.429-3.174-3.086c-0.094-0.094-0.17-0.203-0.225-0.323v-0.069c-0.085-0.247-0.085-0.517 0-0.764 0.066-0.199 0.187-0.376 0.348-0.511s0.356-0.223 0.563-0.253l0.872-0.137 3.468-0.48c0 0 1.107-2.224 1.959-3.978h0c0.128-0.248 0.343-0.44 0.604-0.539s0.549-0.099 0.81 0 0.476 0.291 0.604 0.539c0.852 1.744 1.959 3.978 1.959 3.978l4.379 0.627c0.208 0.031 0.403 0.118 0.564 0.253s0.281 0.312 0.348 0.511c0.063 0.235 0.042 0.484-0.059 0.705l0-0z"></path>
</svg>
