<svg version="1.1" xmlns="http://www.w3.org/2000/svg" width="32" height="32" viewBox="0 0 32 32">
<title>Search</title>
<path d="M13.787 3.041c-2.894 0.219-5.459 1.472-7.361 3.385l-0.001 0.001c-1.792 1.791-2.923 4.036-3.313 6.587-0.128 0.84-0.128 2.467 0 3.307 0.531 3.459 2.493 6.452 5.427 8.273 2.024 1.257 4.608 1.893 6.941 1.709 2.321-0.183 4.185-0.887 6.311-2.383 0.060-0.041 0.777 0.647 3.236 3.101 1.739 1.736 3.237 3.193 3.331 3.24 0.089 0.051 0.196 0.081 0.309 0.081s0.22-0.030 0.312-0.083l-0.003 0.002c0.216-0.109 0.556-0.431 0.655-0.619 0.101-0.192 0.096-0.541-0.011-0.752-0.047-0.093-1.488-1.576-3.201-3.293l-3.115-3.123 0.139-0.131c0.204-0.192 0.837-1.044 1.153-1.553 0.673-1.102 1.195-2.384 1.493-3.748l0.015-0.082c0.836-4.132-0.691-8.513-3.899-11.188-2.393-1.993-5.352-2.953-8.419-2.731zM16.309 5.141c2.917 0.534 5.338 2.303 6.74 4.734l0.025 0.047c1.249 2.185 1.572 4.815 0.9 7.343-0.396 1.485-1.311 3.041-2.481 4.217-1.383 1.389-3.041 2.277-5.013 2.684-0.539 0.112-0.759 0.127-1.813 0.127s-1.275-0.015-1.813-0.127c-1.948-0.401-3.627-1.293-4.975-2.641-1.496-1.496-2.387-3.224-2.767-5.365-0.095-0.533-0.095-2.453 0-2.987 0.133-0.737 0.31-1.382 0.538-2.003l-0.026 0.082c1.023-2.592 3.036-4.605 5.561-5.605l0.067-0.023c0.696-0.268 1.372-0.427 2.481-0.58 0.355-0.049 2.153 0.019 2.576 0.097z"></path>
</svg>
