<!-- Generated by IcoMoon.io -->
<svg version="1.1" xmlns="http://www.w3.org/2000/svg" width="14" height="32" viewBox="0 0 14 32">
<title>staff</title>
<path d="M13.404 13.761c-0.264-2.046-1.782-3.663-3.696-4.125l-1.914 4.818-0.429-3.465h0.264c0.165 0 0.297-0.132 0.297-0.297l0-0.957c0-0.165-0.132-0.297-0.297-0.297h-1.518c-0.165 0-0.297 0.132-0.297 0.297v0.924c0 0.165 0.132 0.297 0.297 0.297h0.264l-0.429 3.465-1.914-4.818c-1.914 0.495-3.432 2.112-3.696 4.158l-0.297 5.28c-0.033 0.759 0.561 1.419 1.32 1.419h1.32l0.99 9.701c0.066 0.693 0.627 1.188 1.32 1.188h3.696c0.693 0 1.254-0.528 1.32-1.188l0.99-9.701h1.32c0.759 0 1.386-0.627 1.32-1.419l-0.231-5.28z"></path>
<path d="M11.161 4.291c0 2.369-1.921 4.29-4.29 4.29s-4.29-1.921-4.29-4.29c0-2.369 1.921-4.29 4.29-4.29s4.29 1.921 4.29 4.29z"></path>
</svg>
