<!-- Generated by IcoMoon.io -->
<svg version="1.1" xmlns="http://www.w3.org/2000/svg" width="34" height="32" viewBox="0 0 34 32">
<title>star-normal</title>
<path d="M25.315 18.817l7.223-5.766c1.111-0.911 0.556-2.428-0.833-2.428l-9.168-0.607c-0.556 0-1.111-0.303-1.111-0.911l-3.611-8.194c-0.556-1.214-2.222-1.214-2.778 0l-3.056 8.194c-0.278 0.607-0.833 0.911-1.389 0.911l-9.167 0.607c-1.389 0-1.945 1.517-0.833 2.428l7.223 5.766c0.278 0.303 0.556 0.607 0.278 1.214l-2.222 8.801c-0.278 0.91 1.111 2.124 2.222 1.214l7.778-4.856c0.556-0.303 1.111-0.303 1.667 0l7.501 4.856c1.111 0.607 2.5-0.303 2.223-1.517l-2.223-8.498c-0.278-0.303 0-0.91 0.278-1.214z"></path>
</svg>
