<svg xmlns="http://www.w3.org/2000/svg" width="32" height="32"><path d="M6.993 1.789c-.762.166-1.492.5-2.08.953-.979.753-1.702 2.009-1.87 3.249-.037.277-.056 2.946-.056 7.953 0 8.105-.004 7.972.272 8.795.526 1.56 1.772 2.744 3.381 3.213.426.124.618.145 1.707.183 1.398.049 1.692.111 2.258.477.192.124.939.813 1.783 1.642 1.578 1.553 1.741 1.674 2.599 1.94.589.183 1.507.173 2.106-.024.776-.255.997-.425 2.612-2.01 2.008-1.97 1.977-1.954 3.948-2.024 1.086-.039 1.28-.06 1.688-.181.933-.279 1.548-.639 2.198-1.289a5.106 5.106 0 0 0 1.325-2.325l.12-.448.017-7.706c.012-5.36-.001-7.845-.041-8.16-.119-.925-.593-1.974-1.199-2.654-.595-.667-1.446-1.207-2.35-1.49l-.478-.15-8.8-.009c-7.354-.008-8.856.002-9.14.065m17.662 1.97a2.786 2.786 0 0 1 1.452.8c.209.21.449.517.546.7.353.669.337.219.321 8.806l-.014 7.775-.12.318c-.246.652-.815 1.314-1.393 1.62-.56.296-.788.337-2.114.382-1.086.037-1.278.057-1.68.177-1.176.352-1.512.591-3.283 2.334-1.298 1.277-1.474 1.432-1.749 1.535a1.781 1.781 0 0 1-1.244-.001c-.275-.103-.447-.253-1.695-1.481-1.479-1.455-1.828-1.741-2.539-2.081-.76-.364-1.136-.436-2.503-.483-1.304-.045-1.527-.086-2.102-.39-.412-.218-.927-.731-1.168-1.162-.374-.67-.355-.195-.355-8.688 0-6.64.011-7.699.08-7.995.244-1.032 1.172-1.935 2.225-2.164.511-.111 16.812-.113 17.335-.002M10.88 9.04c-.899.203-1.805.915-2.206 1.733-.239.488-.373 1.09-.337 1.507.055.637.361.92.996.92.659 0 .926-.264 1.008-.996.053-.467.139-.653.422-.908.27-.244.527-.326.94-.3a1.18 1.18 0 0 1 1.111 1.213c-.006.617-.308 1.014-1.311 1.721-1.938 1.364-2.428 1.861-2.864 2.906-.359.862-.157 1.627.577 2.187.421.321.554.337 2.812.337 1.381 0 2.094-.02 2.217-.061.394-.132.582-.436.58-.937-.001-.43-.144-.725-.419-.866-.204-.104-.303-.109-2.004-.109-1.039 0-1.789-.021-1.789-.049 0-.105.432-.586.754-.839.187-.146.71-.529 1.162-.849 1.663-1.178 2.225-1.984 2.284-3.277.031-.659-.049-1.053-.33-1.626-.352-.717-1.139-1.397-1.885-1.628-.474-.147-1.259-.183-1.718-.079m9.242-.006c-.352.115-.686.333-.887.58-.189.232-2.795 4.552-3.094 5.13-.153.295-.168.366-.168.829 0 .436.02.548.139.8.242.51.711.879 1.286 1.012.126.029.844.053 1.596.054l1.368.001.019.627c.016.503.041.668.129.836.154.293.433.43.877.43.443 0 .723-.137.876-.43.088-.168.114-.333.129-.836l.019-.627h.195c.714-.001 1.16-.505 1.051-1.187-.083-.523-.339-.75-.921-.815l-.331-.038-.016-2.54-.016-2.54-.141-.301a1.79 1.79 0 0 0-1.534-1.04 1.833 1.833 0 0 0-.576.055m.251 4.459v1.92H18.076l.062-.12c.104-.2 2.204-3.72 2.22-3.72.009 0 .015.864.015 1.92" fill-rule="evenodd"/></svg>