<!-- Generated by IcoMoon.io -->
<svg version="1.1" xmlns="http://www.w3.org/2000/svg" width="47" height="32" viewBox="0 0 47 32">
<title>quote-3</title>
<path d="M0 20.745c0-6.244 9.577-16.267 12.796-19.717 1.238-1.315 3.302-1.315 4.541-0.082l0.082 0.082c1.156 1.15 1.156 3.040 0.082 4.272-1.403 1.397-2.642 2.958-3.798 4.436 4.954 1.15 8.834 5.668 8.834 11.009 0 6.162-5.036 11.255-11.31 11.255s-11.227-5.011-11.227-11.255zM35.275 0c-6.192 0-11.31 5.011-11.31 11.255 0 5.422 3.88 9.941 8.998 11.009-1.238 1.561-2.477 3.040-3.798 4.436-1.156 1.232-1.073 3.040 0.082 4.272l0.082 0.082c1.238 1.315 3.302 1.232 4.541-0.082 3.22-3.369 12.796-13.473 12.796-19.717-0.082-6.244-5.118-11.255-11.392-11.255z"></path>
</svg>
