<!-- Generated by IcoMoon.io -->
<svg version="1.1" xmlns="http://www.w3.org/2000/svg" width="37" height="32" viewBox="0 0 37 32">
<title>ticket</title>
<path d="M0 15.989c0.252-0.526 0.639-0.759 1.2-0.688 0.474 0.061 0.881-0.091 1.306-0.324 2.448-1.396 4.916-2.771 7.374-4.147 0.087-0.051 0.174-0.131 0.261-0.131 0.126 0.010 0.31 0.051 0.358 0.142s-0.010 0.283-0.087 0.394c-0.058 0.091-0.194 0.132-0.3 0.192-2.158 1.214-4.316 2.427-6.484 3.641-0.097 0.051-0.184 0.111-0.271 0.243 0.126 0 0.242 0 0.368 0 2.661 0 5.323 0 7.984 0 0.116 0 0.261-0.030 0.358 0.020s0.213 0.192 0.213 0.293c0 0.101-0.116 0.243-0.213 0.293-0.116 0.051-0.261 0.030-0.397 0.030-3.484 0-6.968 0-10.452 0-0.571 0-0.61 0.051-0.61 0.657 0 0.728 0 1.467 0 2.195 0 0.445 0.087 0.536 0.513 0.526 0.561-0.020 1.084 0.081 1.539 0.435 0.581 0.455 0.871 1.082 0.871 1.831 0.010 1.365 0.010 2.731 0 4.096-0.010 1.325-0.948 2.286-2.216 2.296-0.106 0-0.223 0-0.329 0-0.261-0.010-0.387 0.121-0.387 0.384 0 0.86 0 1.719 0 2.579 0 0.253 0.116 0.405 0.377 0.394 0.087 0 0.165 0 0.252 0 6.281 0 12.552 0 18.832 0.010 0.3 0 0.523-0.071 0.735-0.314 0.348-0.405 0.736-0.769 1.094-1.163 0.223-0.243 0.416-0.243 0.639 0 0.368 0.405 0.755 0.779 1.123 1.194 0.184 0.202 0.368 0.283 0.639 0.273 3.242-0.010 6.484-0.010 9.726 0 0.261 0 0.648-0.091 0.639 0.334-0.010 0.394-0.368 0.314-0.629 0.314-3.232 0-6.455 0-9.687 0.010-0.455 0-0.823-0.121-1.123-0.485-0.31-0.354-0.648-0.678-0.997-1.052-0.339 0.354-0.697 0.698-1.016 1.062-0.3 0.344-0.648 0.475-1.094 0.475-6.3-0.010-12.6-0.010-18.9 0-0.571 0-0.987-0.172-1.21-0.748 0-1.062 0-2.124 0-3.186 0.223-0.566 0.648-0.738 1.219-0.738 1.103 0.010 1.703-0.627 1.703-1.78 0-1.274 0-2.549 0-3.823 0-1.123-0.619-1.79-1.684-1.76-0.571 0.010-0.987-0.162-1.239-0.698 0-1.102 0-2.195 0-3.277z"></path>
<path d="M37.161 31.231c-0.319 0.627-0.658 0.84-1.277 0.728-0.126-0.020-0.223-0.202-0.339-0.314 0.106-0.111 0.213-0.233 0.329-0.324 0.058-0.040 0.164-0.010 0.252-0.010 0.3 0.020 0.416-0.131 0.416-0.425 0-0.829 0-1.669 0-2.498 0-0.303-0.135-0.425-0.426-0.435-0.348-0.010-0.706-0.020-1.035-0.131-0.871-0.273-1.452-1.102-1.471-2.084-0.019-1.406-0.019-2.802 0-4.208 0.019-1.274 0.939-2.205 2.158-2.225 0.774-0.010 0.774-0.010 0.774-0.829 0-0.678-0.010-1.365 0-2.043 0.010-0.354-0.126-0.506-0.474-0.506-3.958 0.010-7.906 0-11.865 0.010-0.155 0-0.348 0.091-0.474 0.212-0.406 0.394-0.794 0.819-1.181 1.234-0.232 0.253-0.435 0.263-0.668 0-0.368-0.405-0.735-0.809-1.132-1.173-0.165-0.152-0.416-0.273-0.629-0.273-2.177-0.020-4.355-0.010-6.532-0.010-0.116 0-0.261 0.030-0.358-0.030-0.097-0.051-0.223-0.192-0.213-0.293 0-0.101 0.145-0.293 0.213-0.283 1.171 0.081 1.984-0.779 2.932-1.264 0.639-0.324 1.229-0.587 1.965-0.435 0.474 0.101 0.958 0.111 1.442 0.152 0.271 0.020 0.465 0.142 0.523 0.425 0.068 0.303-0.068 0.506-0.319 0.647-0.213 0.121-0.426 0.243-0.629 0.445 0.223 0 0.455 0.030 0.677 0 0.677-0.091 1.2 0.152 1.616 0.708 0.223 0.293 0.484 0.556 0.745 0.839 0.397-0.415 0.755-0.769 1.094-1.143 0.261-0.283 0.552-0.405 0.939-0.405 2.003 0.010 4.016 0.010 6.019 0 0.203 0 0.435-0.061 0.619-0.162 0.977-0.536 1.935-1.092 2.903-1.628 0.116-0.071 0.281-0.111 0.406-0.091 0.087 0.010 0.213 0.182 0.203 0.263-0.019 0.132-0.116 0.273-0.232 0.344-0.59 0.354-1.19 0.678-1.781 1.011-0.116 0.061-0.223 0.132-0.329 0.273 0.116 0 0.223 0 0.339 0 1.181 0 2.371 0.020 3.552-0.010 0.571-0.020 0.987 0.152 1.239 0.698 0 1.092 0 2.175 0 3.267-0.252 0.536-0.668 0.718-1.239 0.698-1.065-0.030-1.684 0.637-1.684 1.76 0 1.264 0 2.529 0 3.793 0 1.204 0.581 1.831 1.742 1.81 0.561-0.010 0.958 0.192 1.181 0.738 0.010 1.052 0.010 2.114 0.010 3.176zM19.161 14.37c-0.436-0.040-0.861-0.091-1.297-0.121-0.213-0.020-0.465-0.081-0.639 0-0.61 0.293-1.19 0.637-1.781 0.961 1.335 0.142 2.652 0.263 3.716-0.84z"></path>
<path d="M18.668 7.402c0.135-0.475 0.223-0.92 0.397-1.335 0.106-0.263 0.29-0.546 0.523-0.678 3.097-1.76 6.203-3.5 9.319-5.239 0.523-0.293 0.968-0.152 1.258 0.394 0.339 0.627 0.658 1.264 0.977 1.902 0.329 0.647 0.203 1.102-0.426 1.436-0.581 0.314-0.948 0.748-0.881 1.457 0.019 0.202 0.087 0.425 0.184 0.607 0.523 1.042 1.055 2.073 1.587 3.105 0.406 0.779 1.123 1.001 1.877 0.597 0.106-0.061 0.213-0.121 0.319-0.172 0.445-0.212 0.881-0.091 1.123 0.364 0.377 0.698 0.755 1.416 1.094 2.134 0.358 0.738-0.232 1.244-0.755 1.386-0.087 0.020-0.252-0.091-0.31-0.182-0.039-0.071 0-0.243 0.068-0.334 0.058-0.081 0.174-0.132 0.271-0.182 0.194-0.101 0.261-0.253 0.155-0.465-0.339-0.657-0.677-1.315-1.006-1.972-0.116-0.233-0.271-0.212-0.484-0.121-0.319 0.142-0.648 0.314-0.977 0.354-0.794 0.101-1.442-0.233-1.829-0.961-0.61-1.123-1.19-2.256-1.752-3.398-0.465-0.961-0.116-2.074 0.765-2.63 0.116-0.071 0.232-0.131 0.348-0.202 0.184-0.101 0.232-0.243 0.126-0.435-0.339-0.657-0.677-1.315-1.006-1.972-0.145-0.293-0.339-0.202-0.542-0.081-1.713 0.961-3.426 1.922-5.139 2.883-1.297 0.728-2.594 1.467-3.9 2.185-0.252 0.142-0.406 0.314-0.474 0.617-0.097 0.425-0.232 0.85-0.358 1.274-0.116 0.405-0.223 0.455-0.61 0.334-0.426-0.131-0.852-0.293-1.287-0.394-0.194-0.040-0.435-0.030-0.6 0.061-1.703 0.931-3.387 1.891-5.081 2.832-0.097 0.051-0.194 0.142-0.29 0.132-0.116 0-0.271-0.061-0.319-0.152s0-0.253 0.039-0.364c0.029-0.071 0.135-0.101 0.203-0.142 1.723-0.971 3.455-1.932 5.168-2.903 0.348-0.192 0.668-0.233 1.045-0.101 0.377 0.121 0.755 0.233 1.181 0.364z"></path>
<path d="M7.606 20.631c0 0.435-0.010 0.87 0 1.315 0.010 0.405-0.135 0.698-0.445 0.941-0.561 0.415-1.103 0.85-1.645 1.365 0.116 0.010 0.242 0.020 0.358 0.020 1.306 0 2.613 0 3.919 0 0.745 0 1.026 0.293 1.026 1.082 0 0.435 0 0.87 0 1.406 0.184-0.152 0.3-0.243 0.406-0.334 0.987-0.86 1.964-1.719 2.952-2.579 0.068-0.061 0.126-0.152 0.194-0.162 0.155-0.020 0.368-0.071 0.465 0.010 0.174 0.142 0.077 0.344-0.077 0.475-0.755 0.657-1.5 1.315-2.255 1.962-0.368 0.324-0.745 0.637-1.113 0.971-0.242 0.223-0.494 0.314-0.794 0.162-0.281-0.142-0.387-0.394-0.377-0.718 0.010-0.394-0.010-0.789 0.010-1.173 0.019-0.344-0.087-0.465-0.435-0.465-1.355 0.020-2.71 0.010-4.065 0.010-0.135 0-0.3 0.020-0.387-0.040-0.184-0.142-0.426-0.314-0.455-0.516-0.039-0.212 0.077-0.536 0.242-0.688 0.435-0.405 0.9-0.769 1.394-1.082 0.377-0.243 0.513-0.546 0.465-1.001-0.029-0.303-0.010-0.607 0-0.91 0-0.334 0.126-0.597 0.435-0.718s0.561-0.010 0.784 0.243c0.532 0.627 1.065 1.244 1.597 1.871 0.145 0.162 0.242 0.344 0.048 0.526-0.203 0.192-0.368 0.071-0.523-0.111-0.532-0.627-1.074-1.264-1.616-1.891-0.039 0.010-0.068 0.020-0.106 0.030z"></path>
<path d="M19.297 24.030c-0.581-0.405-1.161-0.819-1.761-1.194-0.184-0.111-0.436-0.131-0.658-0.142-1.974-0.010-3.939-0.010-5.913-0.010-0.116 0-0.261 0.030-0.358-0.020s-0.232-0.182-0.232-0.273c0.010-0.121 0.126-0.253 0.223-0.324 0.068-0.051 0.184-0.020 0.281-0.020 2.032 0 4.065-0.010 6.097 0.010 0.339 0 0.716 0.131 1.016 0.314 0.619 0.364 1.2 0.809 1.79 1.214 0.252 0.172 0.436 0.374 0.348 0.718-0.097 0.354-0.348 0.455-0.668 0.455-1.219 0-2.439 0-3.668 0-0.223 0-0.435-0.040-0.435-0.334 0-0.283 0.213-0.324 0.435-0.324 1.035 0 2.081 0 3.116 0 0.116 0 0.232 0 0.358 0 0.019-0.010 0.029-0.040 0.029-0.071z"></path>
<path d="M27.871 27.317c1.026 0 2.052-0.010 3.077 0.010 0.145 0 0.358 0.111 0.435 0.233 0.126 0.212-0.077 0.405-0.397 0.405-1.035 0-2.081 0-3.116 0-1.016 0-2.032 0-3.048 0-0.213 0-0.436-0.010-0.445-0.314-0.010-0.334 0.223-0.344 0.455-0.344 1.006 0.010 2.023 0.010 3.039 0.010z"></path>
<path d="M27.91 21.977c1.016 0 2.032 0 3.048 0 0.223 0 0.445 0.010 0.455 0.303 0.010 0.324-0.223 0.334-0.455 0.334-2.042 0-4.084 0-6.126 0-0.213 0-0.436 0.010-0.445-0.303-0.010-0.334 0.223-0.334 0.455-0.334 1.016 0 2.042 0 3.068 0z"></path>
<path d="M28.132 7.877c-0.077 0.081-0.135 0.212-0.242 0.273-1.635 0.92-3.271 1.841-4.906 2.761-0.194 0.111-0.368 0.091-0.455-0.121-0.106-0.233 0.039-0.374 0.232-0.475 1.481-0.829 2.952-1.659 4.432-2.488 0.174-0.091 0.339-0.202 0.513-0.273 0.242-0.111 0.339 0.051 0.426 0.324z"></path>
<path d="M30.252 12.054c-0.048 0.061-0.106 0.182-0.203 0.233-1.645 0.931-3.29 1.861-4.945 2.781-0.194 0.101-0.358 0.081-0.455-0.132-0.106-0.253 0.058-0.364 0.242-0.465 1.471-0.819 2.932-1.649 4.403-2.468 0.174-0.091 0.339-0.202 0.513-0.273 0.213-0.111 0.436 0.040 0.445 0.324z"></path>
<path d="M26.855 24.637c0.687 0 1.374 0 2.071 0 0.213 0 0.407 0.040 0.416 0.303 0.010 0.303-0.194 0.344-0.416 0.344-1.374 0-2.758 0-4.132 0-0.223 0-0.426-0.051-0.416-0.344 0.010-0.273 0.203-0.303 0.416-0.303 0.687 0 1.374 0 2.061 0z"></path>
<path d="M23.845 13.076c-0.087-0.071-0.213-0.131-0.252-0.223-0.039-0.101 0-0.243 0.048-0.344 0.029-0.071 0.135-0.101 0.203-0.142 1.035-0.587 2.081-1.163 3.116-1.75 0.068-0.040 0.135-0.101 0.194-0.091 0.126 0.030 0.3 0.061 0.348 0.152s-0.019 0.263-0.077 0.384c-0.029 0.071-0.135 0.101-0.213 0.142-1.016 0.566-2.042 1.143-3.058 1.709-0.077 0.051-0.184 0.091-0.31 0.162z"></path>
<path d="M29.129 19.933c-0.619 0-1.229 0-1.848 0-0.213 0-0.406-0.040-0.416-0.303-0.010-0.293 0.194-0.334 0.426-0.334 1.229 0 2.468 0 3.697 0 0.213 0 0.406 0.040 0.416 0.303 0.010 0.283-0.194 0.334-0.426 0.334-0.61 0-1.229 0-1.848 0z"></path>
<path d="M27.029 5.814c-0.039 0.051-0.097 0.172-0.184 0.233-0.997 0.566-1.994 1.133-3 1.669-0.106 0.061-0.348 0-0.426-0.091-0.145-0.172-0.039-0.354 0.145-0.455 0.997-0.556 1.994-1.123 2.99-1.679 0.242-0.131 0.465 0.010 0.474 0.324z"></path>
<path d="M25.374 19.933c-0.242 0-0.484 0.030-0.716-0.010-0.106-0.020-0.271-0.192-0.271-0.303 0-0.101 0.165-0.283 0.271-0.293 0.455-0.030 0.91-0.030 1.364 0 0.106 0.010 0.203 0.182 0.31 0.283-0.106 0.111-0.194 0.283-0.319 0.314-0.194 0.051-0.416 0.010-0.639 0.010z"></path>
<path d="M21.416 8.484c0.039-0.051 0.106-0.162 0.203-0.223 0.319-0.192 0.648-0.394 0.987-0.546 0.116-0.051 0.348-0.010 0.426 0.091 0.145 0.172 0.048 0.354-0.135 0.455-0.329 0.182-0.648 0.384-0.987 0.556-0.271 0.142-0.513 0-0.494-0.334z"></path>
<path d="M22.723 14.573c-0.106 0.121-0.165 0.263-0.252 0.283-0.106 0.020-0.29-0.010-0.339-0.091-0.194-0.314-0.368-0.647-0.503-0.991-0.039-0.091 0.029-0.273 0.106-0.354 0.058-0.061 0.281-0.071 0.31-0.010 0.232 0.364 0.445 0.759 0.677 1.163z"></path>
<path d="M21.319 11.832c-0.106 0.111-0.165 0.253-0.261 0.273-0.106 0.020-0.29-0.010-0.339-0.091-0.194-0.314-0.368-0.647-0.513-0.991-0.039-0.091 0.029-0.273 0.106-0.354 0.058-0.061 0.281-0.061 0.319-0.010 0.242 0.374 0.445 0.759 0.687 1.173z"></path>
<path d="M30.619 25.284c-0.155 0-0.329 0.040-0.465-0.010-0.106-0.040-0.261-0.202-0.252-0.293 0.019-0.121 0.155-0.303 0.261-0.314 0.31-0.040 0.629-0.040 0.939 0 0.116 0.010 0.281 0.192 0.29 0.293 0 0.111-0.155 0.273-0.271 0.314-0.155 0.051-0.339 0.010-0.503 0.010z"></path>
<path d="M21.919 26.235c0-0.152-0.039-0.314 0.010-0.445 0.048-0.121 0.194-0.293 0.29-0.293s0.271 0.172 0.29 0.283c0.039 0.293 0.039 0.607 0 0.9-0.019 0.111-0.194 0.253-0.31 0.273-0.087 0.010-0.232-0.152-0.271-0.273-0.039-0.131 0-0.293-0.010-0.445 0.010 0 0.010 0 0 0z"></path>
<path d="M21.929 23.635c0-0.152-0.039-0.314 0.010-0.445 0.048-0.121 0.194-0.283 0.29-0.283s0.271 0.172 0.29 0.283c0.039 0.293 0.039 0.607 0 0.9-0.010 0.101-0.184 0.273-0.271 0.263-0.116-0.020-0.261-0.152-0.31-0.273-0.058-0.131-0.010-0.293-0.010-0.445z"></path>
<path d="M22.529 21.036c0 0.152 0.039 0.324-0.010 0.445-0.039 0.111-0.184 0.253-0.281 0.253s-0.281-0.152-0.29-0.243c-0.039-0.314-0.039-0.637 0-0.941 0.010-0.101 0.184-0.253 0.29-0.253 0.097 0 0.252 0.142 0.29 0.253 0.039 0.152 0 0.324 0 0.485z"></path>
<path d="M27.997 10.79c-0.048-0.132-0.116-0.253-0.126-0.374-0.010-0.111 0.019-0.283 0.087-0.334 0.261-0.182 0.532-0.334 0.823-0.465 0.077-0.040 0.252 0.020 0.31 0.101 0.058 0.071 0.087 0.293 0.039 0.334-0.31 0.233-0.639 0.425-1.132 0.738z"></path>
<path d="M21.823 18.598c0.126-0.212 0.194-0.394 0.319-0.506 0.048-0.040 0.319 0.051 0.319 0.111 0.029 0.273 0.019 0.566-0.010 0.839-0.010 0.051-0.261 0.142-0.29 0.111-0.126-0.152-0.213-0.344-0.339-0.556z"></path>
<path d="M21.861 28.632c0.068-0.182 0.087-0.374 0.194-0.475 0.068-0.061 0.368 0 0.368 0.020 0.029 0.303 0.039 0.607 0.010 0.9 0 0.030-0.31 0.111-0.368 0.051-0.097-0.121-0.126-0.314-0.203-0.496z"></path>
<path d="M19.974 9.081c-0.213 0.152-0.319 0.273-0.445 0.303-0.174 0.040-0.552-0.485-0.503-0.728 0.029-0.121 0.184-0.212 0.29-0.314 0.203 0.223 0.397 0.445 0.658 0.738z"></path>
</svg>
