<!-- Generated by IcoMoon.io -->
<svg version="1.1" xmlns="http://www.w3.org/2000/svg" width="34" height="32" viewBox="0 0 34 32">
<title>tour</title>
<path d="M0 15.804c0.104-0.658 0.156-1.334 0.321-1.984 1.403-5.743 4.955-9.441 10.715-10.793 7.804-1.828 15.496 3.421 16.856 11.347 0.182 1.083 0.217 2.174 0.173 3.266 0 0.052 0.009 0.095 0.009 0.199 0.121-0.095 0.217-0.165 0.303-0.243 0.832-0.667 1.784-1.048 2.85-1.135 1.005-0.087 1.559 0.303 2.044 1.421 0 0.26 0 0.52 0 0.78-0.017 0.061-0.043 0.121-0.052 0.182-0.199 1.299-0.806 2.356-1.793 3.214-0.243 0.217-0.476 0.442-0.728 0.641-0.156 0.121-0.191 0.251-0.156 0.45 0.251 1.55 0.485 3.092 0.745 4.643 0.225 1.369 0.225 1.369-0.771 2.356-0.676 0.667-1.395 0.606-1.923-0.182-0.528-0.797-1.048-1.585-1.576-2.382-0.208-0.312-0.416-0.624-0.641-0.961-0.407 0.364-0.762 0.762-1.178 1.048-0.606 0.424-0.831 0.97-0.754 1.689 0.095 0.91-0.243 1.611-0.944 2.209-0.78 0.676-1.568 0.563-2.001-0.381-0.303-0.667-0.606-1.334-0.91-1.992-0.043 0.009-0.069 0.009-0.087 0.017-0.052 0.017-0.095 0.043-0.147 0.069-2.763 1.369-5.665 1.784-8.705 1.273-5.587-0.918-10.178-5.327-11.33-10.853-0.139-0.667-0.217-1.343-0.321-2.010 0-0.632 0-1.256 0-1.888zM4.885 7.42c0.667 0 1.23-0.009 1.802 0.009 0.139 0 0.346 0.026 0.416 0.121 0.104 0.139 0.173 0.355 0.147 0.52-0.043 0.234-0.26 0.329-0.502 0.329-0.814 0-1.628 0.009-2.434-0.009-0.243-0.009-0.398 0.069-0.546 0.26-2.087 2.729-3.032 5.803-2.728 9.234 0.312 3.543 1.862 6.462 4.539 8.792 0.087 0.078 0.225 0.147 0.338 0.147 1.507 0.009 3.006 0.017 4.513 0 0.823-0.017 1.412-0.641 1.386-1.412-0.017-0.771-0.632-1.343-1.455-1.351-0.58 0-1.169 0.017-1.75-0.009-0.857-0.035-1.533-0.762-1.533-1.628s0.667-1.585 1.533-1.628c0.251-0.009 0.494-0.009 0.745-0.009 1.871 0 3.742 0.009 5.622 0 1.299-0.009 2.165-1.152 1.784-2.339-0.243-0.771-0.91-1.221-1.784-1.239-0.953-0.009-1.906 0.026-2.858-0.061-1.325-0.121-2.347-1.334-2.373-2.703-0.035-1.481 0.832-2.59 2.235-2.824 0.234-0.043 0.476-0.026 0.71-0.069 0.84-0.156 1.369-0.892 1.291-1.758-0.069-0.78-0.745-1.395-1.568-1.403-1.083-0.009-2.165 0-3.248-0.009-0.346 0-0.572-0.199-0.572-0.494 0-0.286 0.225-0.485 0.572-0.485 1.117 0 2.235-0.017 3.344 0.009 1.282 0.026 2.382 1.1 2.443 2.373 0.078 1.533-1.005 2.703-2.555 2.754-0.832 0.035-1.49 0.563-1.654 1.343-0.26 1.239 0.598 2.321 1.862 2.339 0.857 0.009 1.715-0.017 2.564 0.009 1.888 0.061 3.136 1.966 2.469 3.725-0.424 1.117-1.438 1.784-2.754 1.784-2.036 0.009-4.071 0-6.107 0-0.45 0-0.728 0.26-0.719 0.658 0 0.39 0.286 0.65 0.728 0.658 0.554 0.009 1.109-0.043 1.654 0.017 0.416 0.043 0.866 0.147 1.23 0.355 0.91 0.511 1.317 1.594 1.048 2.599-0.277 1.022-1.169 1.715-2.278 1.732-0.953 0.017-1.906 0-2.858 0.009-0.104 0-0.217 0.009-0.39 0.026 3.924 2.529 8.982 2.417 12.179 0.797-0.355-0.165-0.702-0.312-1.039-0.485-0.667-0.346-0.814-1.178-0.312-1.732 0.225-0.251 0.45-0.511 0.719-0.702 0.225-0.165 0.502-0.312 0.771-0.346 0.554-0.078 1.126-0.069 1.68-0.104 0.095-0.009 0.217-0.017 0.269-0.078 0.554-0.589 1.091-1.187 1.646-1.802-0.13-0.087-0.225-0.156-0.32-0.225-1.048-0.693-2.096-1.377-3.136-2.079-0.589-0.398-0.728-1.135-0.26-1.628 1.178-1.239 1.013-1.256 2.616-0.97 0.009 0 0.017 0 0.035 0 0.312 0.069 0.494 0.303 0.442 0.572-0.061 0.277-0.303 0.424-0.624 0.381-0.26-0.035-0.511-0.087-0.771-0.113-0.078-0.009-0.191-0.009-0.243 0.043-0.269 0.243-0.52 0.511-0.814 0.806 1.282 0.849 2.503 1.654 3.742 2.477 0.754-0.831 1.507-1.654 2.287-2.521-0.156-0.035-0.269-0.052-0.381-0.078-0.502-0.087-1.005-0.156-1.507-0.251-0.286-0.061-0.424-0.277-0.381-0.546 0.035-0.26 0.251-0.416 0.546-0.39 0.139 0.009 0.277 0.043 0.416 0.061 0.702 0.113 1.403 0.217 2.122 0.329 0.026-0.087 0.043-0.13 0.043-0.182 0.061-1.031 0.121-2.070 0.191-3.101 0.017-0.277-0.087-0.364-0.372-0.364-2.477 0.009-4.955 0.009-7.441 0.009-0.165 0-0.329 0-0.485-0.017-1.143-0.095-1.992-1.013-1.949-2.114 0.043-1.135 0.935-2.001 2.087-2.010 0.624-0.009 1.256 0.009 1.88 0 0.65-0.009 1.135-0.485 1.135-1.091s-0.485-1.083-1.126-1.1c-0.294-0.009-0.58 0-0.875 0-1.091-0.017-2.001-0.849-2.079-1.888-0.087-1.126 0.632-2.070 1.732-2.278 0.061-0.009 0.113-0.035 0.243-0.069-2.737-1.317-5.535-1.672-8.437-1.083-2.495 0.52-4.643 1.672-6.531 3.499zM31.313 17.433c-1.065 0.078-2.044 0.537-2.815 1.395-2.131 2.356-4.262 4.721-6.401 7.077-0.13 0.139-0.329 0.26-0.511 0.286-0.407 0.061-0.823 0.095-1.23 0.061-0.624-0.052-1.1 0.156-1.49 0.65-0.225 0.286-0.243 0.303 0.078 0.45 0.676 0.312 1.369 0.598 2.036 0.936 0.182 0.095 0.364 0.277 0.459 0.459 0.294 0.58 0.546 1.178 0.814 1.767 0.294 0.641 0.216 0.641 0.762 0.147 0.329-0.294 0.459-0.624 0.45-1.048-0.009-0.407 0.061-0.823 0.043-1.23-0.009-0.372 0.139-0.624 0.407-0.866 2.321-2.079 4.625-4.175 6.947-6.262 0.866-0.78 1.36-1.758 1.429-2.919 0.026-0.563-0.32-0.91-0.979-0.901zM26.921 14.592c-0.017-0.139-0.017-0.234-0.043-0.32-0.684-3.37-2.408-6.081-5.171-8.125-0.087-0.069-0.208-0.121-0.32-0.13-0.476-0.017-0.953-0.026-1.429 0.009-0.234 0.017-0.494 0.113-0.684 0.243-0.39 0.26-0.528 0.771-0.39 1.213 0.147 0.468 0.546 0.771 1.031 0.797 0.502 0.026 1.031-0.009 1.516 0.104 0.97 0.234 1.611 1.239 1.481 2.2-0.139 1.057-0.961 1.81-2.027 1.845-0.684 0.017-1.36-0.009-2.044 0.009-0.528 0.017-0.944 0.424-1.022 0.961-0.069 0.485 0.243 0.987 0.719 1.143 0.173 0.052 0.364 0.069 0.546 0.069 2.503 0.009 4.998 0 7.501 0 0.095 0 0.191-0.009 0.338-0.017zM27.094 25.956c0.823 1.247 1.637 2.469 2.529 3.82 0.191-0.243 0.312-0.459 0.476-0.598 0.303-0.242 0.338-0.52 0.269-0.883-0.182-0.996-0.329-2.001-0.485-3.006-0.087-0.528-0.173-1.048-0.269-1.628-0.866 0.797-1.689 1.542-2.521 2.295z"></path>
<path d="M17.861 0.681c0.009 0.424-0.251 0.658-0.563 0.615-0.329-0.043-0.658-0.104-0.987-0.173-0.269-0.061-0.433-0.303-0.39-0.546 0.043-0.251 0.269-0.442 0.537-0.407 0.338 0.043 0.693 0.087 1.013 0.191 0.182 0.061 0.303 0.251 0.39 0.321z"></path>
<path d="M25.267 5.341c-0.381 0.009-1.334-0.806-1.325-1.083 0.009-0.147 0.095-0.355 0.208-0.433 0.13-0.078 0.381-0.095 0.502-0.017 0.32 0.217 0.615 0.476 0.866 0.762 0.095 0.104 0.104 0.355 0.052 0.502-0.052 0.139-0.243 0.217-0.303 0.269z"></path>
<path d="M21.992 1.954c0.442 0.303 0.866 0.563 1.239 0.875 0.078 0.069 0.043 0.407-0.052 0.511-0.113 0.121-0.39 0.199-0.528 0.139-0.346-0.139-0.676-0.338-0.961-0.58-0.121-0.095-0.173-0.372-0.13-0.537 0.026-0.147 0.243-0.243 0.433-0.407z"></path>
<path d="M6.436 2.725c-0.043 0.061-0.121 0.225-0.251 0.321-0.251 0.182-0.52 0.338-0.797 0.494-0.26 0.147-0.537 0.095-0.684-0.13-0.156-0.234-0.104-0.502 0.156-0.676 0.277-0.191 0.554-0.364 0.849-0.52 0.355-0.182 0.719 0.043 0.728 0.511z"></path>
<path d="M30.239 12.4c-0.139 0.13-0.251 0.32-0.424 0.398-0.217 0.095-0.45 0-0.537-0.225-0.139-0.355-0.26-0.728-0.355-1.1-0.061-0.234 0.078-0.424 0.303-0.511s0.468-0.043 0.563 0.182c0.173 0.372 0.286 0.78 0.45 1.256z"></path>
<path d="M27.623 7.134c-0.087 0.104-0.173 0.295-0.312 0.346s-0.398 0.035-0.494-0.061c-0.277-0.269-0.511-0.58-0.728-0.901-0.13-0.199-0.087-0.416 0.095-0.58s0.424-0.208 0.589-0.035c0.294 0.312 0.537 0.667 0.797 1.005 0.017 0.043 0.017 0.104 0.052 0.225z"></path>
<path d="M13.928 0.975c-0.165 0-0.329 0.009-0.485 0-0.286-0.026-0.468-0.217-0.459-0.485 0-0.269 0.173-0.459 0.468-0.468 0.32-0.026 0.65-0.026 0.97-0.017 0.303 0.009 0.511 0.217 0.502 0.485 0 0.26-0.208 0.459-0.511 0.476-0.156 0.009-0.32 0-0.485 0.009 0-0.009 0-0.009 0 0z"></path>
<path d="M20.676 1.573c0 0.433-0.294 0.676-0.615 0.572-0.329-0.104-0.65-0.225-0.962-0.364-0.243-0.104-0.355-0.303-0.277-0.58 0.078-0.26 0.312-0.407 0.58-0.321 0.346 0.104 0.693 0.234 1.022 0.39 0.13 0.061 0.199 0.243 0.251 0.303z"></path>
<path d="M9.112 1.504c-0.043 0.061-0.121 0.243-0.251 0.303-0.321 0.165-0.667 0.294-1.013 0.407-0.251 0.078-0.468-0.026-0.572-0.286s-0.017-0.485 0.225-0.598c0.321-0.147 0.65-0.286 0.987-0.39s0.624 0.121 0.624 0.563z"></path>
<path d="M11.356 0.196c0.355-0.009 0.546 0.104 0.606 0.381 0.052 0.268-0.078 0.494-0.364 0.563-0.32 0.078-0.658 0.139-0.987 0.182-0.294 0.043-0.511-0.113-0.554-0.372-0.043-0.286 0.078-0.494 0.364-0.563 0.338-0.078 0.684-0.139 0.935-0.191z"></path>
<path d="M28.55 10.070c-0.069-0.052-0.234-0.13-0.32-0.26-0.173-0.269-0.32-0.563-0.459-0.858-0.121-0.26-0.043-0.52 0.173-0.65 0.234-0.139 0.52-0.069 0.667 0.191 0.173 0.286 0.338 0.58 0.468 0.892 0.147 0.338-0.087 0.693-0.528 0.684z"></path>
<path d="M4.019 4.336c-0.009 0.321-0.598 0.832-0.901 0.797-0.364-0.043-0.563-0.468-0.338-0.754 0.147-0.182 0.329-0.346 0.528-0.468 0.321-0.191 0.719 0.061 0.71 0.424z"></path>
<path d="M30.654 14.687c0.009 0.312-0.165 0.52-0.416 0.546-0.269 0.035-0.485-0.121-0.537-0.398-0.035-0.182-0.069-0.364-0.069-0.546 0-0.277 0.147-0.45 0.416-0.494 0.277-0.035 0.459 0.104 0.528 0.364 0.052 0.182 0.061 0.372 0.078 0.528z"></path>
<path d="M5.136 13.344c-0.165 0-0.329 0.009-0.485 0-0.26-0.026-0.416-0.173-0.442-0.433-0.026-0.277 0.121-0.485 0.39-0.511 0.364-0.035 0.736-0.035 1.1 0 0.268 0.026 0.424 0.234 0.398 0.502s-0.191 0.424-0.468 0.442c-0.165 0.009-0.329 0-0.494 0z"></path>
<path d="M14.491 6.008c-0.147 0-0.303 0.009-0.45 0-0.277-0.017-0.442-0.165-0.468-0.442-0.017-0.277 0.121-0.476 0.398-0.502 0.364-0.035 0.736-0.026 1.1 0 0.26 0.026 0.398 0.217 0.39 0.476-0.009 0.268-0.173 0.442-0.45 0.459-0.173 0.017-0.346 0.009-0.52 0.009z"></path>
<path d="M15.176 26.077c-0.147 0-0.303 0.009-0.45 0-0.277-0.017-0.485-0.217-0.476-0.468 0.009-0.277 0.165-0.459 0.433-0.485 0.346-0.026 0.693-0.026 1.039 0 0.269 0.026 0.424 0.208 0.424 0.485 0 0.26-0.191 0.45-0.476 0.468-0.165 0.009-0.329 0-0.494 0z"></path>
<path d="M4.495 19.962c-0.165 0-0.329 0.009-0.485 0-0.277-0.026-0.459-0.234-0.442-0.502 0.017-0.277 0.182-0.442 0.45-0.459 0.321-0.017 0.65-0.017 0.97 0 0.277 0.009 0.468 0.225 0.468 0.485s-0.191 0.459-0.476 0.476c-0.156 0.009-0.321 0-0.485 0z"></path>
<path d="M17.246 24.267c-0.173 0-0.346 0.009-0.52 0-0.26-0.026-0.416-0.182-0.424-0.442-0.017-0.277 0.13-0.476 0.407-0.494 0.355-0.026 0.71-0.026 1.065 0 0.277 0.017 0.424 0.217 0.416 0.485-0.009 0.277-0.173 0.433-0.459 0.45-0.165 0.009-0.329 0-0.485 0z"></path>
<path d="M6.765 14.626c0.173 0 0.346-0.017 0.52 0 0.243 0.035 0.381 0.191 0.398 0.442 0.009 0.26-0.113 0.468-0.372 0.485-0.372 0.035-0.754 0.035-1.126 0-0.26-0.017-0.398-0.225-0.381-0.476 0.009-0.26 0.165-0.424 0.424-0.45 0.165-0.017 0.355-0.009 0.537 0z"></path>
</svg>
