<!-- Generated by IcoMoon.io -->
<svg version="1.1" xmlns="http://www.w3.org/2000/svg" width="32" height="32" viewBox="0 0 32 32">
<title>travel</title>
<path fill="#fff" d="M22.883 16.452c-0.32-0.166-0.564-0.581-0.847-1.061-0.235-0.4-0.502-0.854-0.871-1.241-0.165-0.173-0.393-0.282-0.661-0.317-0.288-0.037-0.527-0.152-0.759-0.265-0.419-0.202-0.992-0.481-1.639 0.005-0.025 0.018-0.153 0.108-0.243 0.032-0.020-0.020-0.055-0.109-0.078-0.167-0.066-0.166-0.158-0.394-0.372-0.578-0.13-0.111-0.271-0.171-0.374-0.214-0.012-0.005-0.024-0.010-0.036-0.014v-0.013c0-0.186-0.001-0.573-0.376-0.823-0.215-0.143-0.45-0.147-0.55-0.149-0.035 0-0.067-0.001-0.099 0-0.174-0.201-0.463-0.276-0.645-0.323-0.043-0.011-0.084-0.021-0.079-0.014l-0.037-0.073c0-0.010 0.001-0.019 0.002-0.027 0.098-0.015 0.238-0.031 0.374-0.046l0.165-0.018c0.057-0.007 0.113-0.022 0.165-0.046 0.9-0.418 1.399-0.416 1.481-0.356 0.001 0 0.023 0.038 0.019 0.153-0.007 0.27 0.189 0.503 0.456 0.542 0.525 0.077 1.273-0.043 1.666-0.494 0.237-0.271 0.31-0.616 0.207-0.968-0.003-0.009 0-0.034 0.014-0.051 0.349-0.454 0.534-0.765 0.67-0.992 0.244-0.41 0.253-0.426 1.236-0.763 0.486-0.166 0.778-0.643 0.712-1.158l-1.059 0.149c-1.255 0.43-1.424 0.58-1.809 1.227-0.128 0.216-0.288 0.484-0.599 0.887-0.22 0.286-0.291 0.659-0.178 0.967-0.034 0.046-0.165 0.104-0.332 0.133-0.097-0.26-0.264-0.421-0.413-0.52-0.64-0.419-1.666-0.112-2.443 0.239l-0.077 0.009c-0.744 0.083-1.281 0.144-1.325 1.083-0.021 0.457 0.185 0.831 0.581 1.053 0.090 0.050 0.189 0.079 0.293 0.106 0.013 0.047 0.032 0.092 0.058 0.134 0.098 0.16 0.298 0.265 0.461 0.256 0.091-0.001 0.181-0.007 0.272-0.013 0.038-0.003 0.076-0.005 0.12-0.007 0.005 0.135 0.026 0.308 0.129 0.48 0.16 0.264 0.41 0.37 0.559 0.433 0.035 0.014 0.070 0.026 0.093 0.040 0.019 0.021 0.053 0.107 0.076 0.164 0.067 0.168 0.158 0.396 0.374 0.581 0.444 0.382 1.079 0.387 1.58 0.012 0.106-0.079 0.122-0.095 0.532 0.103 0.279 0.135 0.627 0.303 1.111 0.356 0.284 0.298 0.508 0.678 0.724 1.046 0.335 0.57 0.683 1.16 1.275 1.467 0.197 0.103 0.076 0.735-0.362 1.882-0.040 0.105-0.077 0.204-0.111 0.294-0.555 0.437-0.895 0.924-1.226 1.396-0.302 0.433-0.588 0.842-1.046 1.234-0.708 0.609-1.279 0.957-2.006 1.169 0.752-1.344 1.615-3.244 0.437-4.218-0.321-0.265-0.688-0.512-1.043-0.751-1.021-0.687-1.675-1.174-1.473-1.669 0.214-0.523-0.002-1.106-0.515-1.413-0.020-0.071-0.038-0.207-0.051-0.303-0.043-0.326-0.097-0.732-0.35-1.101-0.113-0.165-0.307-0.308-0.448-0.377-0.471-0.231-0.913-0.295-1.341-0.357-0.321-0.047-0.624-0.091-0.925-0.206-0.679-0.26-0.801-1.511-0.918-2.719-0.084-0.873-0.172-1.774-0.49-2.483 0.011-0.211 0.018-0.407 0.020-0.594l-1.068-0.019c-0.003 0.177-0.009 0.36-0.019 0.557-0.010 0.187 0.026 0.374 0.104 0.54 0.236 0.509 0.315 1.318 0.391 2.102 0.142 1.46 0.302 3.115 1.598 3.612 0.412 0.158 0.806 0.215 1.154 0.265 0.378 0.055 0.705 0.102 1.023 0.258 0.013 0.008 0.044 0.031 0.039 0.023 0.108 0.158 0.141 0.403 0.173 0.639 0.050 0.374 0.112 0.839 0.546 1.069 0.061 0.032 0.098 0.081 0.089 0.103-0.545 1.335 0.791 2.234 1.865 2.956 0.334 0.225 0.679 0.457 0.96 0.689 0.234 0.194 0.458 0.826-0.689 2.876-0.222 0.399-0.176 0.882 0.12 1.233 0.214 0.253 0.52 0.391 0.836 0.391 0.123 0 0.249-0.021 0.371-0.065 0.813-0.288 1.503-0.706 2.308-1.398 0.559-0.481 0.913-0.986 1.225-1.433 0.33-0.472 0.615-0.879 1.093-1.23 0.090-0.065 0.184-0.189 0.22-0.294 0.039-0.114 0.090-0.248 0.147-0.396 0.374-0.978 0.999-2.615-0.144-3.208z"></path>
<path fill="#fff" d="M16.007 5.866c-5.596 0-10.149 4.546-10.149 10.134s4.552 10.133 10.149 10.133c5.596 0 10.149-4.546 10.149-10.133s-4.553-10.134-10.149-10.134zM16.007 27.2c-6.185 0-11.217-5.024-11.217-11.2s5.032-11.2 11.217-11.2c6.185 0 11.217 5.024 11.217 11.2s-5.032 11.2-11.217 11.2z"></path>
<path fill="#fff" d="M16.541 1.076h-0.019c-0.171-0.006-0.343-0.009-0.516-0.009-0.295 0-0.534-0.239-0.534-0.533s0.239-0.533 0.534-0.533c0.185 0 0.369 0.003 0.552 0.009 0.295 0.010 0.526 0.257 0.515 0.551-0.010 0.288-0.247 0.515-0.533 0.515z"></path>
<path fill="#fff" d="M19.766 1.525c-0.043 0-0.086-0.005-0.129-0.016-0.34-0.084-0.685-0.157-1.027-0.217-0.291-0.051-0.484-0.327-0.434-0.617s0.325-0.486 0.619-0.433c0.365 0.064 0.736 0.142 1.099 0.233 0.286 0.071 0.461 0.361 0.39 0.646-0.061 0.242-0.279 0.404-0.518 0.404l0 0zM22.823 2.641c-0.079 0-0.159-0.017-0.235-0.054-0.316-0.155-0.638-0.299-0.958-0.428-0.273-0.111-0.405-0.422-0.294-0.695s0.423-0.403 0.696-0.294c0.343 0.139 0.688 0.293 1.027 0.459 0.265 0.13 0.374 0.449 0.244 0.714-0.092 0.189-0.282 0.299-0.48 0.299zM25.579 4.372c-0.115 0-0.232-0.037-0.329-0.114-0.275-0.215-0.559-0.423-0.848-0.619-0.244-0.165-0.307-0.497-0.142-0.741 0.166-0.243 0.498-0.306 0.742-0.141 0.308 0.21 0.613 0.433 0.907 0.663 0.232 0.182 0.273 0.517 0.090 0.749-0.105 0.134-0.262 0.204-0.42 0.204l-0-0zM27.912 6.637c-0.153 0-0.305-0.066-0.411-0.192-0.224-0.269-0.461-0.532-0.7-0.782-0.204-0.212-0.197-0.55 0.015-0.754s0.551-0.197 0.755 0.015c0.257 0.267 0.509 0.548 0.75 0.836 0.189 0.227 0.158 0.563-0.068 0.751-0.1 0.083-0.221 0.124-0.342 0.124v0zM2.506 8.942c-0.089 0-0.178-0.022-0.262-0.069-0.257-0.144-0.348-0.47-0.203-0.726 0.183-0.323 0.38-0.645 0.587-0.958 0.163-0.246 0.495-0.313 0.74-0.151 0.246 0.162 0.314 0.494 0.152 0.739-0.193 0.291-0.377 0.592-0.547 0.894-0.098 0.174-0.28 0.271-0.466 0.271zM29.722 9.336c-0.192 0-0.378-0.103-0.473-0.285-0.162-0.307-0.337-0.612-0.521-0.908-0.156-0.251-0.078-0.579 0.173-0.734s0.579-0.078 0.735 0.172c0.197 0.317 0.385 0.645 0.558 0.974 0.138 0.26 0.037 0.583-0.223 0.72-0.080 0.042-0.165 0.061-0.248 0.061zM1.216 11.925c-0.052 0-0.106-0.008-0.158-0.024-0.282-0.087-0.44-0.387-0.352-0.668 0.111-0.355 0.236-0.711 0.372-1.060 0.107-0.274 0.416-0.409 0.692-0.303 0.274 0.108 0.41 0.417 0.303 0.691-0.127 0.324-0.243 0.657-0.347 0.988-0.072 0.229-0.283 0.375-0.511 0.375zM30.925 12.354c-0.234 0-0.448-0.154-0.514-0.39-0.094-0.335-0.201-0.671-0.318-0.998-0.099-0.277 0.045-0.583 0.323-0.681 0.279-0.099 0.583 0.045 0.683 0.322 0.126 0.351 0.24 0.711 0.341 1.069 0.080 0.284-0.087 0.578-0.371 0.658-0.048 0.013-0.097 0.020-0.144 0.020zM0.581 15.113c-0.016 0-0.033-0-0.049-0.002-0.294-0.027-0.511-0.286-0.484-0.579 0.034-0.374 0.081-0.749 0.141-1.115 0.047-0.29 0.317-0.489 0.613-0.44 0.291 0.047 0.489 0.321 0.441 0.612-0.056 0.34-0.1 0.69-0.131 1.039-0.025 0.277-0.258 0.485-0.531 0.485zM31.465 15.557c-0.28 0-0.516-0.219-0.533-0.501-0.021-0.342-0.055-0.692-0.101-1.042-0.039-0.292 0.166-0.56 0.459-0.599s0.561 0.166 0.6 0.459c0.050 0.374 0.087 0.75 0.108 1.118 0.018 0.294-0.206 0.546-0.501 0.564-0.011 0.001-0.022 0.001-0.033 0.001zM0.623 18.363c-0.267 0-0.498-0.2-0.53-0.471-0.043-0.367-0.075-0.744-0.092-1.118-0.014-0.294 0.214-0.544 0.509-0.558 0.287-0.005 0.545 0.214 0.559 0.508 0.017 0.35 0.045 0.701 0.086 1.044 0.035 0.292-0.175 0.557-0.468 0.592-0.021 0.002-0.042 0.004-0.063 0.004zM31.332 18.803c-0.026 0-0.051-0.002-0.078-0.005-0.292-0.043-0.494-0.314-0.451-0.605 0.051-0.344 0.089-0.694 0.116-1.041 0.022-0.294 0.272-0.516 0.573-0.492 0.294 0.023 0.514 0.279 0.492 0.572-0.028 0.371-0.070 0.747-0.124 1.115-0.039 0.265-0.267 0.456-0.528 0.456zM1.343 21.531c-0.222 0-0.43-0.14-0.506-0.362-0.12-0.353-0.229-0.714-0.325-1.074-0.075-0.285 0.095-0.576 0.38-0.652 0.281-0.074 0.577 0.094 0.653 0.379 0.089 0.336 0.191 0.673 0.303 1.002 0.095 0.279-0.054 0.582-0.333 0.677-0.057 0.019-0.115 0.029-0.172 0.029zM30.52 21.949c-0.062 0-0.126-0.011-0.188-0.034-0.276-0.104-0.416-0.411-0.312-0.687 0.122-0.324 0.234-0.658 0.332-0.992 0.083-0.282 0.38-0.444 0.663-0.36 0.283 0.083 0.445 0.38 0.361 0.662-0.106 0.36-0.226 0.718-0.356 1.065-0.080 0.214-0.284 0.347-0.5 0.347v-0zM2.713 24.477c-0.182 0-0.358-0.092-0.458-0.259-0.192-0.319-0.374-0.649-0.544-0.981-0.134-0.262-0.028-0.584 0.234-0.717s0.584-0.029 0.718 0.234c0.158 0.31 0.329 0.618 0.507 0.916 0.152 0.253 0.070 0.58-0.184 0.732-0.086 0.051-0.181 0.076-0.274 0.076zM29.064 24.857c-0.098 0-0.198-0.027-0.287-0.084-0.248-0.159-0.321-0.489-0.162-0.737 0.188-0.292 0.368-0.596 0.534-0.901 0.141-0.259 0.465-0.355 0.725-0.214 0.258 0.141 0.355 0.465 0.213 0.724-0.179 0.328-0.371 0.653-0.573 0.967-0.102 0.159-0.275 0.246-0.451 0.246zM4.669 27.072c-0.143 0-0.286-0.057-0.39-0.169-0.253-0.272-0.501-0.556-0.737-0.847-0.186-0.229-0.15-0.565 0.079-0.75s0.566-0.149 0.752 0.079c0.22 0.272 0.451 0.538 0.687 0.791 0.201 0.215 0.189 0.553-0.027 0.754-0.103 0.096-0.234 0.143-0.364 0.143zM27.033 27.396c-0.135 0-0.271-0.051-0.376-0.154-0.209-0.207-0.212-0.545-0.004-0.754 0.245-0.248 0.484-0.508 0.71-0.771 0.193-0.223 0.53-0.248 0.753-0.058s0.25 0.529 0.058 0.752c-0.243 0.282-0.498 0.56-0.762 0.826-0.104 0.106-0.242 0.158-0.38 0.158zM7.123 29.206c-0.106 0-0.213-0.031-0.306-0.096-0.307-0.216-0.609-0.443-0.897-0.676-0.229-0.186-0.264-0.522-0.078-0.75 0.185-0.228 0.522-0.264 0.751-0.078 0.269 0.218 0.551 0.43 0.838 0.631 0.241 0.169 0.3 0.502 0.13 0.743-0.104 0.148-0.269 0.227-0.438 0.227zM24.519 29.457c-0.174 0-0.344-0.084-0.446-0.24-0.163-0.246-0.094-0.577 0.152-0.739 0.29-0.191 0.578-0.395 0.854-0.606 0.236-0.179 0.57-0.134 0.75 0.1 0.179 0.233 0.134 0.569-0.101 0.747-0.297 0.227-0.605 0.445-0.917 0.649-0.090 0.060-0.192 0.088-0.293 0.088zM9.973 30.782c-0.070 0-0.141-0.013-0.208-0.042-0.346-0.147-0.69-0.306-1.020-0.475-0.262-0.134-0.366-0.455-0.232-0.718s0.455-0.365 0.718-0.233c0.309 0.157 0.628 0.306 0.951 0.443 0.272 0.115 0.399 0.428 0.284 0.699-0.086 0.203-0.284 0.325-0.492 0.325zM21.632 30.949c-0.214 0-0.415-0.129-0.497-0.34-0.107-0.275 0.028-0.584 0.304-0.691 0.323-0.126 0.646-0.265 0.962-0.414 0.265-0.127 0.584-0.012 0.711 0.254s0.012 0.585-0.254 0.71c-0.338 0.16-0.685 0.309-1.031 0.444-0.064 0.024-0.129 0.037-0.194 0.037zM13.088 31.725c-0.033 0-0.067-0.003-0.1-0.010-0.365-0.069-0.733-0.153-1.096-0.248-0.285-0.076-0.455-0.367-0.38-0.652s0.369-0.453 0.653-0.379c0.338 0.089 0.682 0.167 1.023 0.233 0.29 0.055 0.48 0.334 0.425 0.623-0.049 0.255-0.273 0.433-0.524 0.433zM18.492 31.802c-0.257 0-0.484-0.187-0.526-0.448-0.047-0.291 0.151-0.565 0.442-0.612 0.343-0.055 0.689-0.123 1.028-0.203 0.29-0.068 0.575 0.111 0.642 0.397s-0.111 0.574-0.398 0.641c-0.365 0.085-0.735 0.159-1.102 0.218-0.028 0.005-0.057 0.007-0.086 0.007zM16.007 32c-0.265 0-0.528-0.007-0.79-0.019-0.294-0.015-0.522-0.264-0.508-0.558 0.015-0.294 0.284-0.515 0.559-0.507 0.348 0.017 0.702 0.021 1.051 0.015h0.010c0.291 0 0.529 0.232 0.534 0.523 0.006 0.294-0.228 0.538-0.523 0.544-0.111 0.002-0.221 0.003-0.333 0.003z"></path>
<path fill="#fff" d="M4.428 6.259c-0.126 0-0.253-0.044-0.354-0.134-0.221-0.196-0.241-0.533-0.045-0.753 0.122-0.137 0.247-0.274 0.375-0.407 0.204-0.213 0.542-0.221 0.755-0.017 0.214 0.203 0.221 0.541 0.017 0.754-0.118 0.124-0.234 0.249-0.348 0.377-0.105 0.119-0.253 0.18-0.4 0.18z"></path>
<path fill="#fff" d="M4.32 4.11l1.694 1.692 0.282-1.973-1.976 0.281zM6.392 7.466c-0.139 0-0.276-0.054-0.378-0.156l-3.205-3.2c-0.143-0.143-0.193-0.354-0.129-0.546s0.23-0.331 0.431-0.359l3.739-0.533c0.169-0.024 0.334 0.032 0.453 0.151s0.175 0.286 0.151 0.453l-0.534 3.733c-0.029 0.2-0.168 0.367-0.36 0.431-0.055 0.018-0.113 0.027-0.169 0.027z"></path>
</svg>
