<!-- Generated by IcoMoon.io -->
<svg version="1.1" xmlns="http://www.w3.org/2000/svg" width="34" height="32" viewBox="0 0 34 32">
<title>trip</title>
<path d="M17.752 28.16c1.299 0 2.586 0 3.873 0 0.935 0 1.882-0.012 2.817 0.012 0.146 0 0.279 0.159 0.425 0.244-0.146 0.098-0.279 0.28-0.425 0.28-1.044 0.024-2.088 0.012-3.181 0.012 0 0.914 0 1.792 0 2.67 0 0.61-0.012 0.61-0.607 0.61-3.339 0-6.678 0-10.017 0-1.105 0-1.663-0.573-1.663-1.695 0-5.181 0-10.362 0-15.543 0-1.109 0.571-1.682 1.688-1.682 1.991 0 3.97 0 5.962 0 0.17 0 0.328 0 0.546 0 0-0.573 0-1.121 0-1.658 0-1.024 0.595-1.621 1.603-1.621 1.275 0 2.55 0.012 3.825-0.012 0.194 0 0.413-0.085 0.559-0.207 2.125-1.682 4.456-2.048 6.909-0.926 2.441 1.109 3.703 3.133 3.813 5.815 0.121 2.987-1.955 5.681-4.918 6.449-0.316 0.085-0.425 0.207-0.401 0.524 0.036 0.439-0.109 0.902 0.376 1.219 0.109 0.073 0.134 0.329 0.134 0.512 0.012 2.341 0.012 4.693 0 7.034 0 1.036-0.753 1.804-1.724 1.804-0.947-0.012-1.688-0.756-1.7-1.78-0.012-2.365-0.012-4.718 0-7.083 0-0.171 0.036-0.427 0.146-0.5 0.571-0.366 0.304-0.926 0.34-1.402 0.012-0.085-0.182-0.244-0.316-0.28-2.683-0.78-4.359-2.511-4.881-5.279-0.34-1.792 0.085-3.45 1.141-4.937 0.073-0.11 0.158-0.219 0.267-0.378-0.158-0.012-0.267-0.024-0.389-0.024-1.093 0-2.186-0.012-3.278 0-0.607 0-0.983 0.354-0.983 0.951 0 5.571 0 11.154 0 16.725 0.024 0.024 0.036 0.061 0.061 0.146zM17.17 13.617c-0.182 0-0.316 0-0.449 0-2.016 0-4.031 0-6.047 0-0.85 0-1.153 0.305-1.153 1.158 0 5.181 0 10.35 0 15.531 0 0.817 0.316 1.146 1.117 1.146 3.084 0 6.156 0 9.24 0 0.109 0 0.219-0.024 0.401-0.037-0.959-0.89-1.858-1.731-2.768-2.548-0.255-0.219-0.34-0.451-0.34-0.792 0.012-4.62 0.012-9.228 0.012-13.848-0.012-0.183-0.012-0.354-0.012-0.61zM27.369 8.582c-3.315 0-5.998 2.694-5.986 6.010 0.012 3.304 2.696 5.986 5.974 5.986 3.303 0 5.998-2.706 5.986-6.022 0-3.304-2.683-5.973-5.974-5.973zM28.51 29.611c0-2.267 0-4.474 0-6.741-0.619 0-1.214 0.024-1.797-0.012-0.389-0.024-0.522 0.085-0.522 0.5 0.024 1.938 0.012 3.864 0.012 5.803 0 0.146 0 0.293 0 0.439 0.801 0.012 1.542 0.012 2.307 0.012zM18.153 28.721c0.886 0.817 1.688 1.56 2.526 2.341 0-0.841 0-1.585 0-2.341-0.826 0-1.615 0-2.526 0zM26.216 30.196c0.049 0.792 0.522 1.28 1.19 1.256 0.656-0.024 1.117-0.536 1.105-1.256-0.753 0-1.506 0-2.295 0zM28.025 21.126c-0.461 0-0.874 0-1.287 0 0 0.414 0 0.792 0 1.17 0.449 0 0.862 0 1.287 0 0-0.402 0-0.756 0-1.17z"></path>
<path d="M5.222 4.389c0-0.573 0-1.085 0-1.597-0.935-0.317-1.372-1.438-0.826-2.28 0.158-0.244 0.559-0.488 0.85-0.488 2.453-0.037 4.905-0.024 7.37-0.012 0.619 0 0.984 0.39 1.008 1 0.012 0.171 0 0.329 0 0.5 0 0.792-0.194 1.048-0.984 1.256 0 0.512 0 1.024 0 1.597 0.146 0.012 0.291 0.024 0.437 0.024 0.911 0 1.821 0 2.732 0 1.202 0.012 2.064 0.866 2.088 2.072 0.012 0.695 0.012 1.402-0.012 2.097-0.012 0.159-0.17 0.305-0.255 0.451-0.085-0.146-0.255-0.293-0.255-0.439-0.024-0.683-0.012-1.365-0.012-2.060-0.012-0.963-0.607-1.585-1.566-1.585-4.565 0-9.131 0-13.696 0-0.984 0-1.566 0.634-1.566 1.67 0 3.986 0 7.985 0 11.971 0 2.487 0 4.962 0 7.448 0 0.171 0 0.329 0 0.512 3.145 0.098 4.784 1.694 4.869 4.901 0.777 0 1.542-0.012 2.319 0.012 0.17 0 0.474 0.146 0.486 0.244 0.024 0.329-0.279 0.28-0.498 0.28-1.87 0-3.728 0-5.598 0-1.214 0-2.052-0.829-2.113-2.048 0-0.122 0-0.244 0-0.366 0-7.582 0-15.177 0-22.76-0.024-1.634 0.741-2.402 2.404-2.402 0.923 0 1.846 0 2.817 0zM4.772 31.439c0.304-2.999-2.38-4.669-4.262-4.206 0 0.939-0.024 1.877 0.012 2.816 0.024 0.731 0.571 1.341 1.275 1.378 0.984 0.049 1.967 0.012 2.975 0.012zM8.961 0.549c-1.178 0-2.368 0-3.546 0-0.522 0-0.631 0.122-0.644 0.646 0 0.085 0 0.183 0 0.268 0 0.646 0.085 0.731 0.741 0.731 2.186 0 4.359 0 6.545 0 1.044 0 1.044 0 1.020-1.036-0.012-0.512-0.109-0.61-0.619-0.61-1.166 0-2.331 0-3.497 0zM12.058 2.767c-2.113 0-4.189 0-6.241 0 0 0.549 0 1.073 0 1.585 2.101 0 4.165 0 6.241 0 0-0.536 0-1.048 0-1.585z"></path>
<path d="M5.343 15.982c0 2.755 0 5.51 0 8.265 0 0.122 0.024 0.256-0.012 0.366-0.049 0.122-0.146 0.232-0.231 0.341-0.097-0.11-0.219-0.207-0.279-0.341-0.049-0.098-0.012-0.244-0.012-0.366 0-5.522 0-11.045 0-16.579 0-0.244-0.134-0.646 0.267-0.646 0.425 0 0.255 0.415 0.255 0.646 0.012 2.779 0.012 5.547 0.012 8.314z"></path>
<path d="M13.053 9.655c0 0.731 0.012 1.463-0.012 2.194-0.012 0.159-0.182 0.317-0.279 0.475-0.085-0.158-0.231-0.317-0.231-0.463-0.024-1.463-0.012-2.926-0.012-4.376 0-0.207-0.024-0.488 0.279-0.439 0.109 0.012 0.243 0.28 0.243 0.439 0.036 0.707 0.012 1.439 0.012 2.17z"></path>
<path d="M21.687 23.54c-0.219-0.122-0.595-0.244-0.595-0.354 0-0.415 0.389-0.232 0.631-0.28 0.255-0.061 0.51-0.146 0.777-0.195 0.121-0.024 0.267 0.037 0.401 0.061-0.049 0.134-0.049 0.341-0.134 0.378-0.328 0.146-0.668 0.244-1.081 0.39z"></path>
<path d="M22.913 20.943c0.073-0.195-0.194-0.658 0.279-0.646 0.425 0.012 0.206 0.451 0.243 0.707 0.024 0.195 0.036 0.402-0.012 0.585-0.024 0.098-0.158 0.244-0.243 0.244s-0.231-0.134-0.255-0.232c-0.036-0.195-0.012-0.402-0.012-0.658z"></path>
<path d="M19.307 23.43c-0.146 0-0.316 0.037-0.449-0.012-0.121-0.037-0.219-0.159-0.328-0.244 0.097-0.098 0.194-0.256 0.291-0.268 0.328-0.037 0.668-0.024 0.996 0 0.097 0.012 0.182 0.159 0.279 0.244-0.097 0.085-0.182 0.232-0.291 0.268-0.158 0.049-0.328 0.012-0.498 0.012z"></path>
<path d="M12.191 28.258c-0.34 0.354-0.595 0.671-0.899 0.939-0.121 0.098-0.401 0.195-0.474 0.134-0.255-0.195-0.024-0.366 0.121-0.512 0.291-0.293 0.595-0.561 0.971-0.914-0.376-0.341-0.716-0.622-1.020-0.939-0.097-0.098-0.073-0.305-0.097-0.463 0.158 0.024 0.364 0 0.461 0.098 0.316 0.293 0.607 0.634 0.959 1.024 0.34-0.378 0.619-0.707 0.935-0.987 0.109-0.098 0.328-0.085 0.498-0.122-0.049 0.171-0.036 0.378-0.134 0.5-0.267 0.305-0.571 0.585-0.935 0.926 0.34 0.317 0.668 0.61 0.947 0.927 0.097 0.11 0.073 0.329 0.097 0.488-0.158-0.037-0.352-0.024-0.461-0.122-0.328-0.28-0.619-0.61-0.971-0.975z"></path>
<path d="M13.478 19.176c0.838 0.024 1.506 0.622 1.566 1.329 0.012 0.146-0.134 0.317-0.206 0.475-0.109-0.122-0.267-0.232-0.304-0.366-0.134-0.536-0.437-0.829-0.984-0.914-0.134-0.024-0.243-0.195-0.364-0.293 0.121-0.098 0.243-0.195 0.291-0.232z"></path>
<path d="M12.471 21.943c0 0.305 0.024 0.61-0.012 0.914-0.012 0.134-0.158 0.244-0.243 0.366-0.085-0.122-0.255-0.232-0.255-0.354-0.024-0.634-0.024-1.28 0-1.914 0-0.122 0.17-0.232 0.267-0.341 0.085 0.122 0.219 0.244 0.243 0.378 0.024 0.305 0 0.622 0 0.951z"></path>
<path d="M15.98 23.515c-0.34-0.183-0.656-0.329-0.947-0.536-0.085-0.049-0.061-0.256-0.085-0.39 0.146 0 0.304-0.037 0.425 0 0.243 0.073 0.474 0.171 0.692 0.305 0.121 0.073 0.194 0.219 0.279 0.329-0.097 0.085-0.206 0.171-0.364 0.293z"></path>
<path d="M11.948 25.612c0-0.171-0.036-0.341 0.012-0.5 0.036-0.11 0.17-0.195 0.255-0.293 0.085 0.098 0.219 0.183 0.231 0.28 0.024 0.341 0.024 0.695 0 1.036-0.012 0.098-0.158 0.183-0.243 0.28-0.085-0.098-0.219-0.195-0.255-0.305-0.036-0.159 0-0.341 0-0.5z"></path>
<path d="M27.151 18.030c-1.166-1.219-1.991-2.499-2.477-3.974-0.255-0.78-0.376-1.573-0.146-2.377 0.437-1.499 1.943-2.389 3.485-2.060 1.445 0.305 2.477 1.719 2.307 3.218-0.219 1.914-1.19 3.45-2.404 4.864-0.146 0.171-0.279 0.354-0.376 0.549-0.291 0.585-1.372 0.951-1.906 0.622-0.073-0.049-0.17-0.183-0.146-0.244 0.024-0.098 0.146-0.207 0.231-0.232 0.243-0.037 0.498 0.024 0.729-0.024 0.219-0.073 0.437-0.219 0.704-0.341zM27.333 17.432c1.178-0.963 2.392-3.352 2.477-4.779 0.085-1.402-1.081-2.621-2.465-2.584-1.384 0.024-2.513 1.243-2.38 2.621 0.17 1.877 1.166 3.34 2.368 4.742z"></path>
<path d="M27.381 11.045c0.826 0 1.457 0.646 1.457 1.487 0 0.829-0.656 1.463-1.481 1.463-0.814 0-1.469-0.658-1.457-1.487 0-0.817 0.656-1.463 1.481-1.463zM27.369 11.593c-0.522 0-0.923 0.39-0.935 0.914s0.376 0.939 0.899 0.951c0.546 0.012 0.959-0.39 0.947-0.939 0.012-0.536-0.376-0.927-0.911-0.927z"></path>
</svg>
