<!-- Generated by IcoMoon.io -->
<svg version="1.1" xmlns="http://www.w3.org/2000/svg" width="32" height="32" viewBox="0 0 32 32">
<title>trips</title>
<path d="M19.606 19.012c0.637 0.12 1.239 0.164 1.782 0.344 1.377 0.473 2.307 1.79 2.341 3.245 0.017 0.706 0 1.42 0 2.169 2.746 0 5.483 0 8.245 0 0 0.361 0 0.689 0 1.041-2.728 0-5.457 0-8.237 0 0 0.138 0 0.25 0 0.361 0 0.551 0.009 1.093 0 1.644-0.009 0.387-0.198 0.577-0.577 0.585-0.034 0-0.069 0-0.095 0-0.568-0.069-0.973 0-1.282 0.637-0.336 0.706-1.076 0.973-1.868 0.895-0.783-0.077-1.36-0.499-1.687-1.231-0.043-0.086-0.069-0.181-0.12-0.301-0.138 0-0.284 0-0.43 0-1.179 0-2.367 0.009-3.546-0.009-0.207 0-0.293 0.052-0.37 0.25-0.31 0.8-1.059 1.3-1.902 1.3-0.835 0-1.592-0.499-1.902-1.3-0.077-0.198-0.164-0.267-0.37-0.25-0.224 0.017-0.448 0.009-0.68 0-0.491 0-0.663-0.172-0.663-0.654 0-0.628 0-1.265 0-1.919-2.763 0-5.491 0-8.237 0 0-0.353 0-0.68 0-1.024 2.728 0 5.457 0 8.237 0 0-0.146 0-0.267 0-0.396 0.017-0.912-0.043-1.833 0.069-2.737 0.181-1.446 1.472-2.522 2.926-2.556 0.361-0.009 0.732 0 1.136 0 0-0.465 0-0.895 0-1.334 0-0.577 0.155-0.732 0.723-0.732 0.439 0 0.878 0 1.3 0 0.198-0.534-0.275-1.239 0.499-1.575-0.783-1.231-1.558-2.444-2.367-3.718-0.172 0.413-0.327 0.783-0.473 1.162-0.095 0.241-0.198 0.465-0.482 0.508-0.31 0.052-0.465-0.164-0.628-0.37-0.344-0.465-0.697-0.93-1.059-1.412-0.671 0.671-1.325 1.325-1.98 1.98-0.473 0.473-0.706 0.456-1.11-0.077-0.336-0.448-0.671-0.895-1.033-1.377-0.93 1.455-1.833 2.883-2.771 4.355 2.806 0 5.56 0 8.331 0 0 0.353 0 0.671 0 1.016-3.761 0-7.531 0-11.326 0 0-0.318 0-0.646 0-1.007 0.499 0 0.99-0.009 1.48 0.009 0.215 0.009 0.327-0.069 0.439-0.241 2.238-3.52 4.476-7.040 6.713-10.56 0.043-0.069 0.095-0.146 0.138-0.215 0.293-0.439 0.714-0.448 1.007-0.009 0.336 0.516 0.663 1.033 0.99 1.549 1.308 2.057 2.617 4.114 3.933 6.171 0.060 0.086 0.12 0.172 0.198 0.293 0.077-0.12 0.138-0.215 0.198-0.31 2.057-3.503 4.114-7.006 6.18-10.509 0.043-0.077 0.086-0.146 0.129-0.224 0.336-0.559 0.74-0.559 1.067-0.017 0.473 0.783 0.938 1.566 1.403 2.358 0.241 0.405 0.482 0.809 0.706 1.188 0.43-0.138 0.843-0.267 1.3-0.413 0.318-0.887 0.964-1.463 1.988-1.463s1.67 0.577 2.014 1.532c0.637 0.034 1.196 0.25 1.609 0.766 0.525 0.654 0.628 1.386 0.293 2.152-0.344 0.775-0.973 1.196-1.825 1.222-0.912 0.026-1.825 0.009-2.746 0.009-0.103 0-0.207 0-0.361 0 0.069 0.129 0.112 0.224 0.164 0.31 1.214 2.048 2.436 4.105 3.649 6.154 0.103 0.181 0.207 0.267 0.43 0.25 0.284-0.026 0.577-0.009 0.887-0.009 0 0.353 0 0.68 0 1.016-3.598 0-7.187 0-10.802 0 0-0.327 0-0.654 0-1.007 2.797 0 5.586 0 8.443 0-1.317-2.221-2.599-4.381-3.907-6.584-0.405 0.542-0.792 1.050-1.179 1.566-0.361 0.473-0.62 0.491-1.050 0.060-0.663-0.663-1.317-1.317-2.005-2.014-0.37 0.499-0.732 0.964-1.076 1.437-0.155 0.207-0.318 0.396-0.602 0.344-0.267-0.043-0.379-0.25-0.473-0.482-0.207-0.542-0.43-1.076-0.663-1.652-0.069 0.103-0.129 0.172-0.172 0.258-0.947 1.601-1.885 3.21-2.832 4.803-0.112 0.181-0.086 0.301 0 0.491 0.267 0.602 0.68 0.809 1.334 0.74 0.646-0.069 1.308-0.017 1.971-0.017 0.465 0 0.646 0.181 0.646 0.646-0.009 0.998-0.009 1.971-0.009 2.892zM9.855 27.361c0.026-0.077 0.052-0.129 0.069-0.172 0.318-0.826 1.050-1.351 1.893-1.368 0.869-0.017 1.627 0.482 1.954 1.317 0.077 0.189 0.164 0.232 0.344 0.232 1.239-0.009 2.47-0.009 3.71 0 0.215 0 0.31-0.052 0.396-0.258 0.301-0.749 0.878-1.188 1.678-1.274 0.775-0.086 1.412 0.207 1.876 0.843 0.146 0.207 0.25 0.448 0.37 0.68 0.172 0 0.353 0 0.534 0 0-0.861 0-1.704 0-2.548-0.060-0.009-0.103-0.017-0.146-0.017-3.787 0-7.565 0-11.352 0-0.112 0-0.232 0.043-0.318 0.103-0.482 0.344-0.955 0.697-1.42 1.059-0.069 0.052-0.155 0.146-0.155 0.224-0.017 0.396-0.009 0.783-0.009 1.188 0.215-0.009 0.387-0.009 0.577-0.009zM20.011 9.795c0.344-0.456 0.637-0.861 0.947-1.257 0.275-0.353 0.577-0.37 0.895-0.052 0.465 0.465 0.93 0.921 1.394 1.394 0.224 0.232 0.422 0.482 0.663 0.749 0.31-0.422 0.559-0.749 0.826-1.093-0.12-0.103-0.224-0.189-0.327-0.284-0.516-0.491-0.783-1.11-0.628-1.807 0.103-0.448 0.034-0.775-0.215-1.128-0.189-0.267-0.344-0.568-0.516-0.861-0.361-0.602-0.723-1.214-1.076-1.816-0.034 0.017-0.052 0.017-0.052 0.026-0.843 1.42-1.687 2.849-2.522 4.269-0.034 0.060-0.052 0.172-0.026 0.241 0.189 0.525 0.405 1.041 0.637 1.618zM27.869 8.779c0.654 0 1.308-0.009 1.971 0 0.465 0.009 0.818-0.181 1.024-0.594 0.189-0.387 0.138-0.757-0.129-1.084-0.284-0.344-0.654-0.456-1.102-0.336-0.465 0.12-0.714-0.086-0.732-0.568-0.017-0.585-0.456-1.024-1.016-1.033-0.585-0.009-1.024 0.439-1.041 1.041-0.017 0.482-0.267 0.68-0.74 0.559-0.448-0.112-0.818-0.009-1.093 0.344-0.267 0.327-0.31 0.706-0.12 1.084 0.198 0.405 0.542 0.585 0.998 0.585 0.645 0 1.317 0 1.98 0zM7.428 12.643c0.671-0.68 1.325-1.334 1.971-1.988 0.473-0.473 0.714-0.456 1.11 0.069 0.275 0.361 0.551 0.732 0.852 1.127 0.146-0.37 0.293-0.671 0.387-0.99 0.034-0.12 0.026-0.301-0.043-0.405-0.749-1.205-1.515-2.393-2.281-3.589-0.043-0.069-0.095-0.12-0.164-0.207-0.947 1.489-1.876 2.944-2.797 4.407-0.043 0.060-0.052 0.198-0.009 0.25 0.301 0.448 0.628 0.869 0.973 1.325zM9.579 21.147c4.209 0 8.366 0 12.566 0-0.534-0.663-1.179-0.981-1.971-1.007-0.783-0.017-1.566-0.009-2.358-0.009-2.143 0-4.278 0-6.421 0-0.766 0.009-1.369 0.336-1.816 1.016zM13.392 22.205c-0.714 0-1.394 0-2.066 0s-1.351 0-2.023 0c0 0.861 0 1.696 0 2.556 0.138-0.103 0.25-0.164 0.344-0.25 0.628-0.637 1.386-0.869 2.281-0.766 0.482 0.060 0.981 0.009 1.472 0.009-0.009-0.534-0.009-1.024-0.009-1.549zM18.548 19.090c0-0.869 0-1.713 0-2.548-1.033 0-2.048 0-3.064 0 0 0.172 0 0.318 0 0.491 0.473 0 0.93 0 1.394 0 0.482 0 0.654 0.181 0.654 0.663 0 0.456 0 0.912 0 1.386 0.353 0.009 0.671 0.009 1.016 0.009zM11.869 26.853c-0.559-0.009-1.033 0.448-1.041 1.007-0.009 0.577 0.456 1.050 1.033 1.050 0.559 0 1.024-0.465 1.024-1.024 0.009-0.559-0.448-1.024-1.016-1.033zM20.114 28.919c0.559 0.009 1.033-0.456 1.041-1.016 0.009-0.568-0.448-1.033-1.007-1.041-0.577-0.017-1.059 0.456-1.050 1.033-0.009 0.551 0.448 1.016 1.016 1.024zM13.427 18.083c0 0.353 0 0.68 0 0.99 1.041 0 2.048 0 3.055 0 0-0.344 0-0.663 0-0.99-1.024 0-2.023 0-3.055 0zM16.482 23.746c0-0.525 0-1.024 0-1.523-0.689 0-1.351 0-2.023 0 0 0.516 0 1.007 0 1.523 0.68 0 1.343 0 2.023 0zM19.58 23.738c0-0.525 0-1.024 0-1.506-0.697 0-1.36 0-2.023 0 0 0.516 0 1.007 0 1.506 0.671 0 1.334 0 2.023 0zM22.662 22.231c-0.697 0-1.36 0-2.005 0 0 0.516 0 1.007 0 1.506 0.689 0 1.351 0 2.005 0 0-0.516 0-1.016 0-1.506z"></path>
<path d="M31.983 31.002c0 0.344 0 0.663 0 0.998-10.664 0-21.302 0-31.974 0 0-0.318 0-0.646 0-0.998 10.647 0 21.293 0 31.974 0z"></path>
<path d="M4.097 5.681c-0.654 0-1.308 0-1.971 0-1.162-0.009-2.048-0.835-2.109-1.962-0.060-1.102 0.74-2.023 1.876-2.152 0.164-0.017 0.232-0.077 0.293-0.224 0.327-0.835 1.059-1.343 1.911-1.343 0.869 0 1.609 0.499 1.945 1.334 0.060 0.155 0.129 0.207 0.293 0.224 1.136 0.129 1.928 1.050 1.868 2.152-0.060 1.128-0.947 1.954-2.109 1.962-0.671 0.009-1.334 0.009-1.997 0.009zM4.123 4.648c0.646 0 1.291-0.009 1.937 0 0.465 0.009 0.818-0.164 1.033-0.577 0.198-0.379 0.155-0.757-0.112-1.084-0.293-0.361-0.663-0.473-1.119-0.353s-0.706-0.086-0.723-0.551c-0.017-0.611-0.456-1.050-1.033-1.050s-1.007 0.439-1.033 1.050c-0.017 0.465-0.267 0.671-0.723 0.551s-0.835-0.017-1.127 0.344c-0.267 0.327-0.31 0.706-0.112 1.093 0.215 0.413 0.568 0.585 1.033 0.577 0.671-0.009 1.325 0 1.98 0z"></path>
<path d="M5.672 20.63c0-0.336 0-0.654 0-0.99 0.68 0 1.351 0 2.040 0 0 0.327 0 0.646 0 0.99-0.671 0-1.334 0-2.040 0z"></path>
<path d="M25.777 20.648c-0.68 0-1.334 0-2.023 0 0-0.336 0-0.663 0-1.007 0.671 0 1.334 0 2.023 0 0 0.318 0 0.646 0 1.007z"></path>
<path d="M2.066 22.223c0.68 0 1.343 0 2.023 0 0 0.327 0 0.654 0 0.998-0.671 0-1.343 0-2.023 0 0-0.327 0-0.646 0-0.998z"></path>
<path d="M27.869 23.212c0-0.336 0-0.646 0-0.981 0.68 0 1.343 0 2.040 0 0 0.318 0 0.646 0 0.981-0.68 0-1.36 0-2.040 0z"></path>
<path d="M3.58 27.912c0 0.336 0 0.654 0 0.99-0.671 0-1.334 0-2.023 0 0-0.318 0-0.646 0-0.99 0.654 0 1.325 0 2.023 0z"></path>
<path d="M4.648 27.903c0.671 0 1.334 0 2.023 0 0 0.327 0 0.646 0 0.998-0.663 0-1.334 0-2.023 0 0-0.327 0-0.646 0-0.998z"></path>
<path d="M25.82 27.903c0.671 0 1.334 0 2.023 0 0 0.318 0 0.646 0 0.998-0.663 0-1.334 0-2.023 0 0-0.336 0-0.663 0-0.998z"></path>
<path d="M28.91 28.919c0-0.353 0-0.671 0-1.033 0.336 0 0.68 0 1.016 0 0.327 0 0.663 0 1.016 0 0 0.344 0 0.671 0 1.033-0.344 0-0.689 0-1.024 0-0.327 0-0.663 0-1.007 0z"></path>
</svg>
