<svg xmlns="http://www.w3.org/2000/svg" width="32" height="32"><path d="M16.053 1.71c-.862.086-1.799.428-2.581.941-.545.357-5.324 5.107-5.747 5.711-.064.093-.227.161-.665.277-.736.195-.919.261-1.462.532-1.823.91-3.124 2.539-3.653 4.575-.264 1.013-.292 1.542-.292 5.507 0 2.114.024 3.9.056 4.238.365 3.856 2.944 6.435 6.8 6.8.794.075 14.188.075 14.982 0 3.868-.367 6.459-2.971 6.801-6.834.071-.799.071-7.603 0-8.318-.193-1.951-.846-3.397-2.104-4.663a6.476 6.476 0 0 0-1.83-1.326c-.461-.229-1.414-.563-1.605-.563-.14 0-.182-.074-.319-.56a5.328 5.328 0 0 0-.818-1.654c-.391-.518-3.022-3.172-3.509-3.539a5.76 5.76 0 0 0-4.054-1.124m1.786 2.154c.712.24.98.441 2.207 1.652 1.408 1.388 1.96 2 2.182 2.417.095.177.172.337.172.354 0 .018-2.682.033-5.96.033h-5.959l1.893-1.896c2.235-2.24 2.495-2.438 3.493-2.669.519-.119 1.45-.069 1.972.109m5.89 6.562c1.899.285 3.229 1.223 4.007 2.825.329.68.573 1.644.582 2.305l.002.117-1.88.017-1.88.017-.391.143a4.713 4.713 0 0 0-.686.32c-.65.391-1.3 1.136-1.555 1.784-.146.368-.275 1.017-.275 1.379 0 .382.135 1.033.296 1.43.396.974 1.413 1.851 2.454 2.118.372.095.593.106 2.172.106h1.759l-.037.386c-.24 2.499-1.674 4.19-4.073 4.802l-.464.118H8.24l-.464-.118c-2.101-.536-3.441-1.877-3.949-3.952-.11-.448-.114-.597-.133-4.596-.02-4.28-.009-4.596.201-5.425.132-.52.545-1.379.873-1.813.83-1.097 2.098-1.789 3.632-1.982.205-.026 3.619-.05 7.587-.054 6.137-.005 7.293.006 7.742.073m4.591 8.911v1.683l-1.693-.017-1.694-.016-.302-.149a1.85 1.85 0 0 1-.802-.796c-.173-.326-.176-1.087-.005-1.408.266-.498.642-.798 1.136-.907.189-.042.84-.066 1.827-.069l1.533-.005v1.684" fill-rule="evenodd"/></svg>