<!-- Generated by IcoMoon.io -->
<svg version="1.1" xmlns="http://www.w3.org/2000/svg" width="37" height="32" viewBox="0 0 37 32">
<title>wildlife</title>
<path d="M0.526 31.227h0.773v0.773h-0.773v-0.773z"></path>
<path d="M23.903 31.227h1.507v0.773h-1.507v-0.773z"></path>
<path d="M14.862 31.227h1.507v0.773h-1.507v-0.773z"></path>
<path d="M17.875 31.227h1.507v0.773h-1.507v-0.773z"></path>
<path d="M20.889 31.227h1.507v0.773h-1.507v-0.773z"></path>
<path d="M26.917 31.227h1.507v0.773h-1.507v-0.773z"></path>
<path d="M29.93 31.227h1.507v0.773h-1.507v-0.773z"></path>
<path d="M32.944 31.227h1.507v0.773h-1.507v-0.773z"></path>
<path d="M2.807 31.227h1.507v0.773h-1.507v-0.773z"></path>
<path d="M5.82 31.227h1.507v0.773h-1.507v-0.773z"></path>
<path d="M8.834 31.227h1.507v0.773h-1.507v-0.773z"></path>
<path d="M11.848 31.227h1.507v0.773h-1.507v-0.773z"></path>
<path d="M35.958 31.227h0.773v0.773h-0.773v-0.773z"></path>
<path d="M0.223 20.509c0.33 0.709 1.070 1.318 2.046 1.314 0.085 1.448 1.759 2.265 2.978 1.619-0.121 1.242-0.316 2.508-0.575 3.778h-4.146v0.773h36.205v-0.773h-4.39c-0.26-1.27-0.456-2.55-0.58-3.822 1.188 0.688 2.843-0.012 3.023-1.496 1.976 0.039 3.074-2.408 1.77-3.887 1.075-1.195 0.337-3.148-1.216-3.353 0.128-1.393-1.216-2.513-2.572-2.118-0.595-0.766-1.691-0.953-2.508-0.434-0.781-0.52-1.849-0.331-2.405 0.444-0.654-0.201-1.371-0.057-1.907 0.405-0.237 0.204-0.417 0.449-0.536 0.717-0.375-0.492-0.926-0.814-1.563-0.885 0.205-1.624-1.372-3.014-3.002-2.5-0.677-0.915-1.974-1.16-2.949-0.515-0.92-0.64-2.197-0.41-2.826 0.526-1.458-0.485-3.058 0.589-3.058 2.21 0 0.091 0.005 0.183 0.016 0.274-0.308 0.032-0.582 0.13-0.827 0.267-0.515-0.506-1.273-0.705-1.97-0.507-0.601-0.777-1.696-0.947-2.507-0.435-0.783-0.518-1.858-0.334-2.408 0.442-1.337-0.413-2.741 0.679-2.604 2.118-1.62 0.237-2.264 2.245-1.159 3.388-0.664 0.747-0.664 1.73-0.328 2.451l-0-0zM8.804 27.22c-0.261-1.273-0.457-2.553-0.578-3.821 0.436 0.252 0.969 0.334 1.505 0.202 0.714-0.175 1.404-0.761 1.516-1.702 0.528-0.003 1.046-0.189 1.46-0.523 0.116 0.808 0.669 1.503 1.51 1.811 0.62 0.227 1.379 0.217 2.012-0.173-0.131 1.388-0.339 2.798-0.614 4.206l-6.811-0zM20.212 27.22c-0.275-1.422-0.484-2.847-0.617-4.253 0.583 0.386 1.297 0.446 1.906 0.28 0.839-0.228 1.634-0.926 1.713-2.010 0.329 0.009 0.642-0.045 0.935-0.144 0.427 0.459 1.032 0.723 1.657 0.724 0.080 1.452 1.754 2.27 2.977 1.626-0.124 1.261-0.32 2.527-0.577 3.778l-7.994-0zM26.088 14.918c-0.21-0.604 0.048-1.106 0.36-1.374s0.841-0.452 1.39-0.163l0.37 0.195c0.116-0.187 0.2-0.835 0.888-0.968 0.676-0.131 0.997 0.424 1.14 0.526l0.273-0.249c0.548-0.501 1.42-0.344 1.756 0.308l0.173 0.334 0.339-0.163c0.976-0.469 2.105 0.463 1.717 1.552l-0.212 0.596 0.628-0.084c1.241-0.169 1.909 1.515 0.85 2.262l-0.423 0.299 0.407 0.321c1.293 1.019 0.336 3.105-1.26 2.787l-0.498-0.1 0.036 0.506c0.106 1.482-1.83 1.896-2.384 0.648l-0.882-1.989 0.142 2.171c0.106 1.62 0.325 3.261 0.651 4.887h-2.551c0.317-1.572 0.532-3.167 0.642-4.747l0.118-1.702-0.84 1.485c-0.688 1.215-2.562 0.538-2.318-0.803l0.105-0.577-0.572 0.131c-0.45 0.102-0.918-0.015-1.266-0.296 0.352-0.267 0.646-0.624 0.847-1.069 0.392-0.866 0.377-2.058-0.445-2.945 0.332-0.347 0.535-0.779 0.602-1.241l0.423 0.060-0.209-0.599zM12.467 13.557l0.616 0.072-0.206-0.585c-0.062-0.176-0.094-0.356-0.094-0.534 0-1.207 1.288-1.898 2.275-1.376l0.373 0.197 0.164-0.389c0.348-0.828 1.409-0.999 2.018-0.399l0.26 0.256 0.271-0.245c0.695-0.628 1.776-0.428 2.197 0.387l0.172 0.333 0.338-0.161c1.275-0.609 2.62 0.651 2.141 1.922l-0.221 0.587 0.624-0.066c0.798-0.086 1.434 0.375 1.656 1.075 0.167 0.525 0.101 1.258-0.583 1.741l-0.426 0.3 0.411 0.321c0.879 0.686 0.85 1.684 0.558 2.33-0.289 0.639-1.019 1.31-2.12 1.102l-0.514-0.097 0.058 0.52c0.193 1.744-2.246 2.407-2.968 0.789l-0.88-1.972 0.141 2.155c0.117 1.775 0.355 3.589 0.7 5.399h-3.026c0.337-1.757 0.571-3.515 0.687-5.233l0.115-1.706-0.838 1.49c-0.474 0.843-1.309 0.898-1.882 0.689-0.617-0.226-1.167-0.836-1.003-1.689l0.113-0.588-0.582 0.139c-1.054 0.25-1.771-0.391-2.065-1.016-0.296-0.63-0.329-1.602 0.553-2.265l0.446-0.336-0.472-0.3c-0.762-0.484-0.809-1.284-0.617-1.822s0.724-1.131 1.609-1.025zM1.347 17.715c-1.043-0.669-0.567-2.296 0.673-2.296 0.039 0 0.075 0.002 0.111 0.008l0.629 0.090-0.209-0.6c-0.393-1.132 0.8-2.044 1.748-1.538l0.371 0.198 0.166-0.387c0.279-0.65 1.113-0.803 1.607-0.316l0.263 0.259 0.271-0.251c0.528-0.489 1.407-0.356 1.751 0.309l0.173 0.335 0.339-0.164c0.451-0.217 0.981-0.134 1.349 0.177-0.206 0.236-0.361 0.506-0.46 0.783-0.267 0.75-0.179 1.733 0.539 2.426-0.155 0.165-0.272 0.343-0.371 0.525v-0.688c-0.709 0-1.285 0.576-1.285 1.285h0.773c0-0.264 0.203-0.474 0.459-0.501-0.361 0.739-0.308 1.57-0.012 2.225l-0.443-0.045c-0.028 0.281-0.279 0.486-0.561 0.458l-0.078 0.769c0.044 0.004 0.087 0.006 0.13 0.006 0.522 0 0.98-0.32 1.178-0.787 0.307 0.454 0.762 0.837 1.33 1.025-0.266 0.101-0.558 0.13-0.841 0.073l-0.498-0.1 0.036 0.506c0.058 0.808-0.447 1.226-0.939 1.347-0.51 0.125-1.154-0.041-1.441-0.697l-0.879-2.015 0.139 2.195c0.102 1.614 0.32 3.256 0.647 4.888h-2.548c0.32-1.602 0.535-3.197 0.639-4.748l0.114-1.693-0.836 1.477c-0.69 1.219-2.561 0.533-2.318-0.803l0.105-0.576-0.571 0.131c-0.857 0.197-1.438-0.321-1.672-0.824-0.238-0.51-0.263-1.296 0.447-1.833l0.442-0.335-0.467-0.3z"></path>
<path d="M8.066 4.953c0-1.35-1.098-2.449-2.449-2.449s-2.449 1.098-2.449 2.449c0 1.35 1.099 2.448 2.449 2.448s2.449-1.098 2.449-2.448zM5.618 6.629c-0.924 0-1.676-0.752-1.676-1.675s0.752-1.675 1.676-1.675c0.924 0 1.676 0.752 1.676 1.675s-0.752 1.675-1.676 1.675z"></path>
<path d="M5.231 0h0.773v1.478h-0.773v-1.478z"></path>
<path d="M2.388 1.178l1.045 1.045-0.547 0.547-1.045-1.045 0.547-0.547z"></path>
<path d="M0.664 4.567h1.479v0.773h-1.479v-0.773z"></path>
<path d="M2.887 7.137l0.547 0.547-1.045 1.045-0.547-0.547 1.045-1.045z"></path>
<path d="M5.231 8.428h0.773v1.478h-0.773v-1.478z"></path>
<path d="M8.349 7.137l1.045 1.045-0.547 0.547-1.045-1.045 0.547-0.547z"></path>
<path d="M9.093 4.567h1.479v0.773h-1.479v-0.773z"></path>
<path d="M8.847 1.178l0.547 0.547-1.045 1.045-0.547-0.547 1.045-1.045z"></path>
<path d="M27.764 7.209v0.773c0.82 0 1.488 0.668 1.488 1.488h0.773c0-0.82 0.668-1.488 1.488-1.488v-0.773c-0.78 0-1.468 0.396-1.875 0.998-0.407-0.602-1.095-0.998-1.875-0.998z"></path>
<path d="M25.413 2.518h0.773c0-0.61 0.496-1.106 1.107-1.106v-0.773c-0.608 0-1.15 0.29-1.493 0.739-0.344-0.449-0.885-0.739-1.493-0.739v0.773c0.61 0 1.107 0.496 1.107 1.106h-0z"></path>
<path d="M32.101 2.54v0.773c0.733 0 1.33 0.597 1.33 1.33h0.773c0-0.733 0.597-1.33 1.33-1.33v-0.773c-0.708 0-1.335 0.352-1.717 0.889-0.381-0.538-1.009-0.889-1.717-0.889z"></path>
<path d="M18.604 4.837h5.945v-0.773h-0.688c-0.181-0.99-1.088-1.653-2.027-1.581-0.367-0.826-1.262-1.284-2.134-1.108-0.371-0.675-1.148-1.271-2.126-1.271-1.354 0-2.44 1.111-2.408 2.468-0.785 0.114-1.444 0.713-1.611 1.527h-0.692v0.773h3.083v-0.773h-1.587c0.188-0.529 0.698-0.821 1.195-0.767l0.531 0.059-0.11-0.523c-0.227-1.079 0.597-1.991 1.598-1.991 0.776 0 1.364 0.546 1.544 1.085l0.12 0.362c0.039-0.012 0.455-0.145 0.416-0.133 0.652-0.258 1.386 0.132 1.542 0.815l0.091 0.396 0.392-0.111c0.561-0.158 1.187 0.161 1.382 0.772h-4.458l-0 0.774z"></path>
<path d="M16.875 4.064h1.095v0.773h-1.095v-0.773z"></path>
</svg>
