<!-- Generated by IcoMoon.io -->
<svg version="1.1" xmlns="http://www.w3.org/2000/svg" width="33" height="32" viewBox="0 0 33 32">
<title>world</title>
<path d="M29.113 6.804c-0.053 0.009-1.624-0.287-2.952 0.271-0.415 0.175-1.365 1.061-2.17 0.314-0.454-0.42-0.607-1.92-0.667-2.057-0.715-1.568-2.91-1.511-3.161-2.485-0.193-0.741 0.561-1.518 1.851-0.991 2.841 1.156 3.217 1.194 2.502 0.616-0.112-0.094-0.291-0.203-0.497-0.318-0.053-0.034-0.105-0.063-0.149-0.082-0.046-0.025-0.095-0.052-0.144-0.076-2.286-1.261-4.9-1.997-7.693-1.997-5.167 0-9.747 2.458-12.671 6.256 0.013 0 0.023 0.002 0.035 0.002l-0.091 0.090c2.055-1.649 0.977 0.14 5.15-1.497 0.15-0.061 1.331-0.17 1.568-0.108 4.293 1.128 6.244-0.026 6.403-0.136 1.979-1.347 3.508-1.030 3.518 0.123 0.006 0.708 0.205 1.506-0.659 1.308-1.243-0.287-1.961-1.579-2.137-0.167-0.128 1.027-2.102 1.13-1.785 1.785 0.206 0.425 2.078-0.367 2.925-0.861s1.559 0.441 1.614 0.561c0.607 1.311 2.399 1.86 2.585 1.934 1.439 0.57-0.090 1.347-0.931 1.788-0.022 0.010-3.501 3.896-4.755 3.606-0.157-0.036-0.536-0.656-0.743-0.708-3.993-0.998-1.875 4.653-0.851 2.417 0.427-0.931 0.364 0.461 0.371 1.026s0.857 1.122 0.857 1.122c0.035 0.064 0.944 0.164 1.015 0.403l0.279 0.173c0 0 0.52-0.873 1.246-0.795 1.795 0.195 4.604 1.951 4.906 2.1 2.907 1.454 1.928 4.062-0.802 5.502-0.865 0.46-0.8 2.366-1.816 1.648-0.577-0.405-2.043 3.469-2.128 4.121 6.281-1.236 11.243-6.144 12.553-12.398-0.039-0.050-0.080-0.104-0.119-0.164 0.011-0.024 0.021-0.045 0.028-0.061 0.062-0.121 0-0.455-0.029-0.545-0.030-0.093-0.062-0.152-0.076-0.287-0.016-0.137 0.015-0.213 0-0.41-0.016-0.195 0.12-0.181 0.182-0.529s-0.045-0.256-0.091-0.452c-0.017-0.074 0.021-0.129 0.076-0.181 0.022-0.018 0.049-0.038 0.077-0.063 0.063-0.046 0.13-0.091 0.163-0.143 0.060-0.054 0.087-0.083 0.115-0.118 0.004-0.114 0.018-0.225 0.018-0.343 0-3.425-1.085-6.593-2.919-9.195l-0-0z"></path>
<path d="M17.551 20.125c0.335-0.672-0.736-0.665-1.348-1.155-0.894-0.717-2.013-1.204-2.22-1.289-0.444-0.185-2.11-1.731-2.508-2.225-0.337-0.424-0.098-0.992-0.678-0.738-0.012 0.005-0.012-0.011-0.016-0.008-0.385 0.256-0.96 0.106-1.47-1.933-0.093-0.367-0.075-0.392 0.045-0.561 0.64-0.869-1.498-3.581-1.966-4.144-0.236-0.283-1.046-0.062-1.391-0.013-0.101-0.060-0.345 0.013-0.437 0.013-0.107 0 0.014-0.151 0.076-0.27 0.060-0.123-0.063-0.063-0.152-0.078-0.091-0.014 0.030-0.134 0.090-0.272 0.108-0.238-0.851 0.432-1.088 0.543-0.289 0.137-0.168 0.169-0.258 0.275s-0.136 0.332-0.244 0.422c-0.104 0.093 0.213 0.044 0.304 0.061 0.117 0.020 0.046 0.411-0.212 0.364 0 0-0.396 0.279-0.844 0.518-0.075 0.015-0.082-0.030-0.074-0.073 0.123-0.079 0.191-0.219 0.334-0.249 0.196-0.042 0.114-0.243 0-0.272-0.040-0.013-0.058-0.027-0.063-0.049 0.003-0.020 0.003-0.034 0.006-0.044 0.009-0.027 0.031-0.057 0.053-0.090 0.054-0.080-0.305-0.137-0.502-0.137s-0.15-0.121-0.196-0.333c-0.086-0.396 1.067-0.569 0.605-0.857-0.065-0.255-0.264 0.095-0.505 0.016-0.065-0.022-0.173 0.042-0.258 0.107-0.074 0.054-0.188 0.060-0.273 0.063-1.47 2.417-2.33 5.244-2.33 8.281 0 8.838 7.163 16.001 16.001 16.001 0.664 0 1.318-0.055 1.962-0.135-0.006-0.058 0.101-1.66 0.285-2.206 0.2-0.591 0.586-4.072 0.447-4.956-0.201-1.293-0.218-0.692-1.177-4.579v0z"></path>
</svg>
