<svg width="14" height="14" viewBox="0 0 14 14" fill="none" xmlns="http://www.w3.org/2000/svg">
<path d="M6.63158 0C5.90291 0 5.19061 0.216075 4.58474 0.620901C3.97888 1.02573 3.50666 1.60112 3.22781 2.27432C2.94896 2.94753 2.876 3.6883 3.01816 4.40296C3.16032 5.11763 3.5112 5.77409 4.02645 6.28934C4.54169 6.80459 5.19816 7.15547 5.91282 7.29763C6.62749 7.43979 7.36826 7.36683 8.04146 7.08798C8.71467 6.80913 9.29006 6.33691 9.69489 5.73105C10.0997 5.12518 10.3158 4.41288 10.3158 3.68421C10.3158 2.7071 9.92763 1.77 9.23671 1.07908C8.54578 0.388157 7.60869 0 6.63158 0ZM6.63158 5.89474C6.19438 5.89474 5.76699 5.76509 5.40348 5.5222C5.03996 5.2793 4.75663 4.93406 4.58932 4.53014C4.42201 4.12622 4.37823 3.68176 4.46353 3.25296C4.54882 2.82416 4.75935 2.43028 5.0685 2.12113C5.37765 1.81198 5.77153 1.60145 6.20033 1.51616C6.62913 1.43087 7.07359 1.47464 7.47751 1.64195C7.88143 1.80926 8.22667 2.09259 8.46956 2.45611C8.71246 2.81963 8.8421 3.24701 8.8421 3.68421C8.8421 4.27048 8.60921 4.83273 8.19466 5.24729C7.7801 5.66184 7.21785 5.89474 6.63158 5.89474ZM13.2632 14V13.2632C13.2632 11.8952 12.7197 10.5833 11.7524 9.61598C10.7852 8.64868 9.47322 8.10526 8.10526 8.10526H5.15789C3.78994 8.10526 2.478 8.64868 1.51071 9.61598C0.543419 10.5833 0 11.8952 0 13.2632V14H1.47368V13.2632C1.47368 12.286 1.86184 11.349 2.55276 10.658C3.24369 9.9671 4.18078 9.57895 5.15789 9.57895H8.10526C9.08238 9.57895 10.0195 9.9671 10.7104 10.658C11.4013 11.349 11.7895 12.286 11.7895 13.2632V14H13.2632Z" fill="#000"/>
</svg>
